<?xml version="1.0" encoding="UTF-8" standalone="no"?>
<svg width="42px" height="42px" viewBox="0 0 42 42" version="1.1" xmlns="http://www.w3.org/2000/svg" xmlns:xlink="http://www.w3.org/1999/xlink">
    <!-- Generator: Sketch 3.8.2 (29753) - http://www.bohemiancoding.com/sketch -->
    <title>email.icon</title>
    <desc>Created with Sketch.</desc>
    <defs></defs>
    <g id="Symbols" stroke="none" stroke-width="1" fill="none" fill-rule="evenodd">
        <g id="email.icon" stroke="#454545" stroke-width="2">
            <path d="M21,40 C31.4934102,40 40,31.4934102 40,21 C40,10.5065898 31.4934102,2 21,2 C10.5065898,2 2,10.5065898 2,21 C2,31.4934102 10.5065898,40 21,40 Z" id="Oval-76"></path>
            <g id="shopping-24px-outline_newsletter" transform="translate(10.000000, 10.000000)">
                <g id="Group">
                    <polyline id="Shape" points="4 6.1 0 9 0 21 22 21 22 9 18 6.1"></polyline>
                    <polyline id="Shape" points="4 11.2 4 0 18 0 18 11.2"></polyline>
                    <path d="M7.0255127,4 L14.9744873,4" id="Shape"></path>
                    <path d="M7.0255127,8 L14.9744873,8" id="Shape"></path>
                </g>
            </g>
            <polyline id="Shape" points="10 19 21 25.1125488 32.060791 19.0144043"></polyline>
        </g>
    </g>
</svg>