<?xml version="1.0" encoding="UTF-8" standalone="no"?>
<svg width="40px" height="40px" viewBox="0 0 40 40" version="1.1" xmlns="http://www.w3.org/2000/svg" xmlns:xlink="http://www.w3.org/1999/xlink">
    <!-- Generator: Sketch 39.1 (31720) - http://www.bohemiancoding.com/sketch -->
    <title>ic_github_normal</title>
    <desc>Created with Sketch.</desc>
    <defs></defs>
    <g id="Symbols" stroke="none" stroke-width="1" fill="none" fill-rule="evenodd">
        <g id="ic_github_normal" fill="#454545">
            <path d="M38,20 C38,10.0588745 29.9411255,2 20,2 C10.0588745,2 2,10.0588745 2,20 C2,29.9411255 10.0588745,38 20,38 C29.9411255,38 38,29.9411255 38,20 Z M0,20 C0,8.954305 8.954305,0 20,0 C31.045695,0 40,8.954305 40,20 C40,31.045695 31.045695,40 20,40 C8.954305,40 0,31.045695 0,20 Z" id="container_circle"></path>
            <path d="M16.0061035,38.2435647 L24.023502,38.2435647 C24.023502,38.2435647 24.043502,32.9525647 24.043502,30.7745647 C24.043502,29.2555647 23.522502,28.2615647 22.937502,27.7585647 C26.566502,27.3545647 30.375502,25.9775647 30.375502,19.7205647 C30.375502,17.9415647 29.744502,16.4875647 28.700502,15.3485647 C28.868502,14.9365647 29.427502,13.2805647 28.538502,11.0375647 C28.538502,11.0375647 27.173502,10.6005647 24.063502,12.7075647 C22.762502,12.3465647 21.368502,12.1655647 19.985502,12.1595647 C18.600502,12.1655647 17.206502,12.3465647 15.907502,12.7075647 C12.795502,10.6005647 11.427502,11.0375647 11.427502,11.0375647 C10.541502,13.2805647 11.100502,14.9365647 11.268502,15.3485647 C10.226502,16.4875647 9.591502,17.9415647 9.591502,19.7205647 C9.591502,25.9625647 13.394502,27.3595647 17.011502,27.7705647 C16.545502,28.1785647 16.125502,28.8955647 15.977502,29.9485647 C15.048502,30.3655647 12.689502,31.0845647 11.236502,28.5955647 C11.236502,28.5955647 10.376502,27.0315647 8.741502,26.9165647 C8.741502,26.9165647 7.150502,26.8955647 8.629502,27.9065647 C8.629502,27.9065647 9.697502,28.4075647 10.437502,30.2895647 C10.437502,30.2895647 11.394502,33.4575647 15.925502,32.4725647 C15.933502,33.8325647 15.947502,37.2435647 15.947502,37.2435647 C15.947502,37.2435647 15.9865697,38.2435647 16.0061035,38.2435647 Z" id="Fill-1"></path>
        </g>
    </g>
</svg>
