<?xml version="1.0" encoding="UTF-8" standalone="no"?>
<svg width="42px" height="42px" viewBox="0 0 42 42" version="1.1" xmlns="http://www.w3.org/2000/svg" xmlns:xlink="http://www.w3.org/1999/xlink">
    <!-- Generator: Sketch 3.8.2 (29753) - http://www.bohemiancoding.com/sketch -->
    <title>twitter.icon</title>
    <desc>Created with Sketch.</desc>
    <defs></defs>
    <g id="Symbols" stroke="none" stroke-width="1" fill="none" fill-rule="evenodd">
        <g id="twitter.icon">
            <path d="M21,40 C31.4934102,40 40,31.4934102 40,21 C40,10.5065898 31.4934102,2 21,2 C10.5065898,2 2,10.5065898 2,21 C2,31.4934102 10.5065898,40 21,40 Z" id="Oval-76" stroke="#454545" stroke-width="2"></path>
            <g id="social-32px-glyph-1_logo-twitter" transform="translate(10.000000, 13.000000)" fill="#454545">
                <path d="M22.2230769,2.14615385 C21.3923077,2.49230769 20.5615385,2.76923077 19.5923077,2.83846154 C20.5615385,2.28461538 21.2538462,1.38461538 21.6,0.346153846 C20.7,0.9 19.7307692,1.24615385 18.6923077,1.45384615 C17.8615385,0.553846154 16.6846154,0 15.4384615,0 C12.9461538,0 10.8692308,2.00769231 10.8692308,4.56923077 C10.8692308,4.91538462 10.9384615,5.26153846 11.0076923,5.60769231 C7.2,5.4 3.87692308,3.6 1.59230769,0.830769231 C1.17692308,1.52307692 0.969230769,2.28461538 0.969230769,3.11538462 C0.969230769,4.70769231 1.8,6.09230769 2.97692308,6.92307692 C2.21538462,6.92307692 1.52307692,6.71538462 0.9,6.36923077 L0.9,6.43846154 C0.9,8.65384615 2.49230769,10.4538462 4.56923077,10.8692308 C4.15384615,10.9384615 3.80769231,11.0076923 3.39230769,11.0076923 C3.11538462,11.0076923 2.83846154,11.0076923 2.56153846,10.9384615 C3.11538462,12.7384615 4.84615385,14.0538462 6.78461538,14.1230769 C5.26153846,15.3692308 3.25384615,16.0615385 1.10769231,16.0615385 C0.761538462,16.0615385 0.346153846,16.0615385 0,15.9923077 C2.07692308,17.2384615 4.5,18 7.06153846,18 C15.4384615,18 20.0076923,11.0769231 20.0076923,5.05384615 L20.0076923,4.5 C20.8384615,3.80769231 21.6,3.04615385 22.2230769,2.14615385 L22.2230769,2.14615385 Z" id="Shape"></path>
            </g>
        </g>
    </g>
</svg>