<?xml version="1.0" encoding="UTF-8" standalone="no"?>
<svg width="170px" height="82px" viewBox="0 0 170 82" version="1.1" xmlns="http://www.w3.org/2000/svg" xmlns:xlink="http://www.w3.org/1999/xlink">
    <!-- Generator: Sketch 39.1 (31720) - http://www.bohemiancoding.com/sketch -->
    <title>brandmark_government_de_l</title>
    <desc>Created with Sketch.</desc>
    <defs></defs>
    <g id="Symbols" stroke="none" stroke-width="1" fill="none" fill-rule="evenodd">
        <g id="brandmark_government_de_l">
            <g id="BReg_DTP_Plot_de">
                <polygon id="Fill-1" fill="#000000" points="40.3278689 28.2295082 45.0327869 28.2295082 45.0327869 1.34560656 40.3278689 1.34560656"></polygon>
                <polygon id="Fill-2" fill="#FF0000" points="40.3278689 55.1147541 45.0327869 55.1147541 45.0327869 28.2295082 40.3278689 28.2295082"></polygon>
                <polygon id="Fill-3" fill="#FFCC00" points="40.3278689 82 45.0327869 82 45.0327869 55.1147541 40.3278689 55.1147541"></polygon>
                <path d="M28.0843279,10.742 C29.4608525,12.9183607 30.5376066,12.8820656 32.1641639,12.8820656 C30.8185574,11.8496721 29.9286557,10.5296066 29.5038689,9.85478689 L26.9900984,5.8327541 C26.7454426,4.59065574 26.101541,3.42921311 25.1403934,2.56485246 C25.4630164,2.44252459 25.7332131,2.31347541 25.8945246,2.19114754 C24.2531803,2.19114754 22.626623,1.35770492 21.7313443,1.35770492 C21.156,1.35770492 20.7849836,1.70183607 20.7849836,2.15619672 C20.822623,2.66163934 21.3441967,3.17783607 22.3080328,3.17783607 C22.5258033,3.17783607 22.8054098,3.14960656 23.1119016,3.09852459 C23.6334754,3.82577049 24.0542295,4.48311475 24.0542295,5.42140984 C24.0542295,7.18239344 21.9491148,8.55488525 19.8238361,8.55488525 C19.7028525,8.55488525 19.5885902,8.5495082 19.4689508,8.54144262 C19.275377,8.10455738 18.6355082,7.37059016 18.6355082,6.5384918 C18.6355082,5.13911475 19.5482623,3.9964918 19.5482623,2.60921311 C19.5482623,1.74888525 19.1275082,1.21521311 18.9661967,0.993409836 C19.2283279,0.751442623 19.5133115,0.453016393 19.5791803,0.250032787 C19.428623,0.314557377 19.2484918,0.323967213 18.9863607,0.323967213 C17.9674098,0.323967213 17.1366557,0.059147541 16.3274098,0.059147541 C15.8649836,0.059147541 15.7399672,0.201639344 15.7399672,0.337409836 C15.7399672,0.387147541 15.7480328,0.438229508 15.7614754,0.46242623 C15.5894098,0.395213115 15.4280984,0.350852459 15.2358689,0.314557377 C14.9965902,0.270196721 14.7384918,0.247344262 14.4656066,0.247344262 C13.4816066,0.247344262 13.1320984,0.660032787 13.1320984,1.01222951 C13.1320984,1.312 13.3673443,1.85777049 13.6348525,2.27314754 C14.0179672,2.08091803 14.4790492,1.95052459 14.6887541,1.95052459 C15.2103279,1.95052459 15.6754426,2.44790164 15.9214426,3.03668852 C15.5705902,3.07836066 15.503377,3.0944918 15.1484918,3.0944918 C14.1900328,3.0944918 13.5380656,2.75170492 13.4036393,2.75170492 C13.3901967,2.75170492 13.3646557,2.75842623 13.3646557,2.77859016 C13.3646557,2.91436066 13.637541,3.2692459 14.1725574,3.46416393 C14.8769508,3.7222623 15.9348852,3.82980328 16.1109836,3.85937705 C16.1109836,3.89029508 15.9321967,4.22367213 15.7319016,4.28685246 C15.6888852,4.30163934 15.656623,4.30298361 15.6068852,4.29222951 C14.8702295,4.14704918 14.6645574,4.08521311 13.7302951,3.72898361 C13.7007213,3.71957377 13.6845902,3.73704918 13.6845902,3.76662295 C13.6845902,4.13629508 14.6417049,4.9522623 15.4993443,5.26547541 C14.7828525,6.17957377 13.8875738,7.11518033 13.4668197,8.54144262 C13.3471803,8.5495082 13.2315738,8.55488525 13.1119344,8.55488525 C10.9866557,8.55488525 8.88019672,7.18239344 8.88019672,5.42140984 C8.88019672,4.48311475 9.30229508,3.82577049 9.82386885,3.09852459 C10.1303607,3.14960656 10.408623,3.17783607 10.6277377,3.17783607 C11.5915738,3.17783607 12.1131475,2.66163934 12.1507869,2.15619672 C12.1507869,1.70183607 11.7811148,1.35770492 11.203082,1.35770492 C10.3078033,1.35770492 8.68259016,2.19114754 7.03990164,2.19114754 C7.20255738,2.31347541 7.47140984,2.44252459 7.79403279,2.56485246 C6.83288525,3.42921311 6.19032787,4.59065574 5.94432787,5.8327541 L3.43190164,9.85478689 C3.00845902,10.5296066 2.11586885,11.8496721 0.770262295,12.8820656 C2.39681967,12.8820656 3.47491803,12.9183607 4.85144262,10.742 L6.1392459,8.67990164 C6.23603279,8.94740984 6.35298361,9.20819672 6.49144262,9.46360656 L3.92793443,13.5649508 C3.50045902,14.2451475 2.61727869,15.554459 1.26629508,16.5922295 C2.89285246,16.5922295 3.97095082,16.6298689 5.34747541,14.4548525 L7.55340984,10.9221311 C7.7187541,11.0982295 7.89216393,11.2702951 8.07498361,11.4342951 L4.96167213,16.4188197 C4.53419672,17.1003607 3.65504918,18.4056393 2.30003279,19.4434098 C3.92659016,19.4434098 5.00603279,19.4823934 6.38121311,17.3060328 L9.41655738,12.4465246 C9.61685246,12.5728852 9.82118033,12.6952131 10.0322295,12.8108197 L6.32744262,18.7390164 C5.89996721,19.4219016 5.02081967,20.7244918 3.66714754,21.7636066 C5.29370492,21.7636066 6.37180328,21.8025902 7.74832787,19.6275738 L11.5633443,13.5205902 C11.7891803,13.606623 12.0177049,13.6899672 12.2502623,13.7639016 L7.93921311,20.664 C7.51845902,21.3361311 6.61914754,22.6615738 5.2802623,23.6885902 C6.90547541,23.6885902 7.98491803,23.7248852 9.36009836,21.5512131 L13.9547869,14.1980984 C14.0018361,14.2048197 14.047541,14.2128852 14.0932459,14.2222951 C14.2182623,14.6201967 14.3056393,14.9898689 14.3056393,15.3608852 C14.3056393,17.6716721 12.7893115,19.7122623 10.9691803,21.2877377 C11.0861311,21.3388197 11.2891148,21.3562951 11.4759672,21.3562951 C11.8510164,21.3562951 12.0943279,21.3361311 12.2650492,21.3065574 C11.8429508,22.2650164 10.936918,23.5017377 10.4798689,24.1429508 C9.88436066,24.0354098 9.01731148,23.9507213 8.45003279,23.9507213 C7.85586885,23.9507213 7.78865574,24.2988852 7.78865574,24.6094098 C7.78865574,25.148459 8.04003279,25.5772787 8.33442623,25.8165574 C8.44465574,25.5409836 8.66645902,25.1726557 9.76337705,25.1726557 C9.78488525,25.1726557 9.82252459,25.1753443 9.87360656,25.1780328 C9.55232787,25.5356066 8.54816393,26.347541 8.54816393,27.0008525 C8.54816393,27.4337049 9.02403279,28.0829836 9.64911475,28.0829836 C9.61147541,27.9431803 9.61685246,27.8141311 9.61685246,27.7186885 C9.61685246,27.1890492 10.086,26.5693443 10.4825574,26.1364918 C10.470459,26.265541 10.4771803,26.2520984 10.4771803,26.4026557 C10.4771803,27.6541639 10.5900984,28.2295082 11.3845574,28.2295082 C11.7743934,28.2295082 12.0432459,28.0157705 12.136,27.9512459 C11.6198033,27.475377 11.592918,27.1030164 11.592918,26.4013115 C11.5942623,26.2184918 11.5942623,26.0397049 11.5969508,25.7937049 C11.5996393,25.6323934 11.5969508,25.42 11.5700656,25.2667541 C11.8550492,25.2277705 11.9706557,25.2277705 12.1884262,25.2277705 C12.1884262,25.2277705 13.3176066,25.1377049 13.5891475,25.7251475 C13.8956393,25.4441967 14.3405902,25.0476393 14.3405902,24.6107541 C14.3405902,24.3217377 14.2034754,23.995082 13.6227541,23.995082 C13.4022951,23.995082 12.71,24.1295082 12.130623,24.1295082 C12.2865574,23.7826885 12.9788525,22.7691148 13.5797377,22.0351475 C13.6698033,22.3201311 13.8122951,22.6279672 14.1268525,22.8806885 C14.1712131,22.4075082 14.4481311,20.9113443 15.1874754,20.0362295 C15.2735082,20.6277049 15.3891148,21.2339672 15.3891148,22.5123607 C15.3891148,25.6229836 14.6417049,27.9203279 13.0541311,28.3585574 C13.2611475,28.7174754 13.6980328,29.0414426 14.1510492,29.0414426 C14.7317705,29.0414426 15.0476721,28.3840984 15.3702951,27.7643934 C15.5383279,28.2214426 16.0020984,29.3425574 16.4672131,29.3425574 C16.9323279,29.3425574 17.3960984,28.2214426 17.5641311,27.7643934 C17.8867541,28.3840984 18.204,29.0414426 18.7847213,29.0414426 C19.2377377,29.0414426 19.674623,28.7174754 19.8816393,28.3585574 C18.2940656,27.9203279 17.5453115,25.6229836 17.5453115,22.5123607 C17.5453115,21.2339672 17.660918,20.6277049 17.7469508,20.0362295 C18.4862951,20.9113443 18.7645574,22.4075082 18.8075738,22.8806885 C19.1234754,22.6279672 19.2659672,22.3201311 19.3560328,22.0351475 C19.9555738,22.7691148 20.6492131,23.7826885 20.8051475,24.1295082 C20.2244262,24.1295082 19.5321311,23.995082 19.3130164,23.995082 C18.7322951,23.995082 18.5951803,24.3217377 18.5951803,24.6107541 C18.5951803,25.0476393 19.0401311,25.4441967 19.346623,25.7251475 C19.6168197,25.1377049 20.7473443,25.2277705 20.7473443,25.2277705 C20.9651148,25.2277705 21.0807213,25.2277705 21.3657049,25.2667541 C21.3388197,25.42 21.3374754,25.6323934 21.3388197,25.7937049 C21.3401639,26.0397049 21.3415082,26.2184918 21.3415082,26.4013115 C21.3415082,27.1030164 21.3159672,27.475377 20.7997705,27.9512459 C20.8925246,28.0157705 21.161377,28.2295082 21.5512131,28.2295082 C22.3456721,28.2295082 22.4599344,27.6541639 22.4599344,26.4026557 C22.4599344,26.2520984 22.4639672,26.265541 22.4532131,26.1364918 C22.8497705,26.5693443 23.318918,27.1890492 23.318918,27.7186885 C23.318918,27.8141311 23.3242951,27.9431803 23.2853115,28.0829836 C23.9117377,28.0829836 24.3876066,27.4337049 24.3876066,27.0008525 C24.3876066,26.347541 23.3834426,25.5356066 23.0608197,25.1780328 C23.1132459,25.1753443 23.1508852,25.1726557 23.1710492,25.1726557 C24.2693115,25.1726557 24.4911148,25.5409836 24.6013443,25.8165574 C24.8943934,25.5772787 25.1471148,25.148459 25.1471148,24.6094098 C25.1471148,24.2988852 25.0799016,23.9507213 24.4857377,23.9507213 C23.918459,23.9507213 23.0514098,24.0354098 22.4559016,24.1429508 C21.9975082,23.5017377 21.0928197,22.2650164 20.6707213,21.3065574 C20.8400984,21.3361311 21.0847541,21.3562951 21.458459,21.3562951 C21.648,21.3562951 21.8496393,21.3388197 21.9665902,21.2877377 C20.146459,19.7122623 18.6287869,17.6716721 18.6287869,15.3608852 C18.6287869,14.9898689 18.7175082,14.6201967 18.8425246,14.2222951 C18.8868852,14.2128852 18.9339344,14.2048197 18.9809836,14.1980984 L23.5756721,21.5512131 C24.9508525,23.7248852 26.0302951,23.6885902 27.6555082,23.6885902 C26.316623,22.6615738 25.4173115,21.3361311 24.9965574,20.664 L20.6841639,13.7639016 C20.9180656,13.6899672 21.1465902,13.606623 21.3724262,13.5205902 L25.1874426,19.6275738 C26.5639672,21.8025902 27.6420656,21.7636066 29.268623,21.7636066 C27.9149508,20.7244918 27.0358033,19.4219016 26.6083279,18.7390164 L22.903541,12.8108197 C23.1132459,12.6952131 23.318918,12.5728852 23.5178689,12.4465246 L26.5545574,17.3060328 C27.931082,19.4823934 29.0078361,19.4434098 30.6343934,19.4434098 C29.2807213,18.4056393 28.4015738,17.1003607 27.9740984,16.4188197 L24.8607869,11.4342951 C25.0436066,11.2702951 25.2183607,11.0982295 25.3810164,10.9221311 L27.5882951,14.4548525 C28.9648197,16.6298689 30.042918,16.5922295 31.6694754,16.5922295 C30.3171475,15.554459 29.4353115,14.2451475 29.0078361,13.5649508 L26.4443279,9.46360656 C26.5827869,9.20819672 26.6997377,8.94740984 26.7965246,8.67990164 L28.0843279,10.742 L28.0843279,10.742 Z M7.50904918,6.01960656 C7.50904918,4.48714754 8.62344262,3.27596721 9.01596721,2.93452459 C9.11006557,2.95737705 9.20416393,2.97888525 9.2982623,2.99904918 C8.88019672,3.50718033 8.14488525,4.36078689 8.14488525,5.48996721 C8.14488525,7.73219672 10.5403607,9.67868852 13.253082,9.67868852 C13.2356066,9.87091803 13.2261967,10.0725574 13.2261967,10.2795738 C13.2261967,10.6116066 13.2450164,10.9194426 13.2772787,11.2098033 C10.2096721,11.1909836 7.50904918,8.70140984 7.50904918,6.01960656 L7.50904918,6.01960656 Z M11.6655082,24.3997049 L11.6480328,24.4521311 L11.7018033,24.4521311 C12.5621311,24.4521311 12.981541,24.3902951 13.2598033,24.3499672 C13.4049836,24.3324918 13.5098361,24.3163607 13.6227541,24.3163607 C13.8445574,24.3163607 14.0152787,24.3365246 14.0152787,24.6107541 C14.0152787,24.794918 13.8001967,25.086623 13.5904918,25.256 C13.2732459,24.9562295 12.8336721,24.897082 12.1884262,24.897082 C11.8873115,24.897082 11.4920984,24.9521967 11.2810492,24.9817705 L11.2474426,24.9858033 L11.2098033,24.9911803 L11.2219016,25.092 C11.2474426,25.2707869 11.2783607,25.4925902 11.2783607,25.7923607 L11.2743279,26.0639016 L11.2702951,26.4013115 C11.2702951,27.1325902 11.3711148,27.5493115 11.6265246,27.8652131 C11.5606557,27.8894098 11.454459,27.9095738 11.3845574,27.9095738 C10.9301967,27.9095738 10.798459,27.710623 10.798459,26.4026557 C10.798459,26.1391803 10.7850164,25.8931803 10.7756066,25.7291803 L10.7621639,25.4858689 L10.7043607,25.5302295 C10.029541,26.045082 9.33455738,26.9645574 9.29288525,27.6514754 C9.08990164,27.521082 8.86944262,27.2266885 8.86944262,27.0008525 C8.86944262,26.6258033 9.43403279,26.0625574 10.086,25.4092459 L10.4623934,25.0341967 L10.5094426,24.9858033 L10.3871148,24.9548852 C10.2459672,24.9185902 9.98518033,24.8527213 9.76337705,24.8527213 C9.0307541,24.8527213 8.57236066,24.9911803 8.29006557,25.2990164 C8.18790164,25.1524918 8.10321311,24.8097049 8.10321311,24.6094098 C8.10321311,24.4790164 8.1287541,24.3876066 8.17983607,24.3351803 C8.24436066,24.2733443 8.34383607,24.2733443 8.43121311,24.2733443 L8.45003279,24.2733443 C9.25659016,24.2733443 10.2217705,24.4185246 10.5981639,24.4790164 L10.6196721,24.4843934 L10.634459,24.4655738 C10.6989836,24.3781967 12.2381639,22.3281967 12.6374098,21.2420328 C12.7301639,21.207082 12.8094754,21.181541 12.9694426,21.181541 C13.2732459,21.181541 13.3579344,21.3858689 13.4439672,21.699082 C12.4828197,22.8672459 11.8832787,23.7759672 11.6655082,24.3997049 L11.6655082,24.3997049 Z M19.9649836,21.181541 C20.1262951,21.181541 20.2042623,21.207082 20.2983607,21.2420328 C20.6976066,22.3281967 22.2367869,24.3781967 22.2999672,24.4655738 L22.3147541,24.4843934 L22.3376066,24.4790164 C22.714,24.4185246 23.6791803,24.2733443 24.4857377,24.2733443 L24.5045574,24.2733443 C24.5919344,24.2733443 24.6914098,24.2733443 24.7545902,24.3351803 C24.8070164,24.3876066 24.8325574,24.4790164 24.8325574,24.6094098 C24.8325574,24.8097049 24.7478689,25.1524918 24.6457049,25.2990164 C24.3634098,24.9911803 23.9050164,24.8527213 23.1710492,24.8527213 C22.9505902,24.8527213 22.6898033,24.9185902 22.5486557,24.9548852 L22.4908525,24.9683279 L22.4249836,24.9858033 L22.8484262,25.4092459 C23.5017377,26.0625574 24.0663279,26.6258033 24.0663279,27.0008525 C24.0663279,27.2266885 23.8458689,27.521082 23.6428852,27.6514754 C23.5998689,26.9645574 22.9062295,26.045082 22.2300656,25.5302295 L22.1722623,25.4872131 L22.1615082,25.7291803 C22.1520984,25.8931803 22.1373115,26.1391803 22.1373115,26.4026557 C22.1373115,27.710623 22.0042295,27.9095738 21.5512131,27.9095738 C21.4813115,27.9095738 21.3751148,27.8894098 21.3092459,27.8652131 C21.5646557,27.5493115 21.6654754,27.1325902 21.6654754,26.4013115 L21.6614426,26.0639016 L21.6574098,25.7923607 C21.6574098,25.4925902 21.6883279,25.2707869 21.7125246,25.092 L21.7259672,24.9911803 L21.6547213,24.9817705 C21.4423279,24.9521967 21.048459,24.897082 20.7473443,24.897082 C20.1007541,24.897082 19.6625246,24.9562295 19.3452787,25.256 C19.1355738,25.086623 18.9204918,24.794918 18.9204918,24.6107541 C18.9204918,24.3365246 19.0898689,24.3163607 19.3130164,24.3163607 C19.4259344,24.3163607 19.5307869,24.3324918 19.6759672,24.3499672 C19.9542295,24.3902951 20.3722951,24.4521311 21.2339672,24.4521311 L21.2863934,24.4521311 L21.2702623,24.3997049 C21.0524918,23.7759672 20.4529508,22.8672459 19.4918033,21.699082 C19.5778361,21.3858689 19.6625246,21.181541 19.9649836,21.181541 L19.9649836,21.181541 Z M16.4026885,3.3015082 C16.3059016,2.90495082 16.102918,2.49495082 15.8434754,2.18711475 C15.6068852,1.90885246 15.2157049,1.57681967 14.6887541,1.57681967 C14.4481311,1.57681967 14.0448525,1.6897377 13.7880984,1.79727869 C13.6913115,1.62386885 13.504459,1.20311475 13.504459,1.01222951 C13.504459,0.817311475 13.8351475,0.619704918 14.4656066,0.619704918 C15.851541,0.619704918 16.6809508,1.24747541 16.6809508,2.29868852 C16.6809508,2.66701639 16.5344262,3.00442623 16.4026885,3.3015082 L16.4026885,3.3015082 Z M17.025082,1.93439344 C16.9753443,1.63865574 16.8624262,1.36980328 16.6903607,1.13859016 C16.6984262,0.86704918 16.81,0.607606557 17.2482295,0.821344262 C17.0116393,1.06331148 17.194459,1.49078689 17.194459,1.49078689 C17.194459,1.49078689 17.6770492,1.26629508 17.5775738,0.947704918 C18.2954098,1.11977049 17.7792131,2.08360656 17.025082,1.93439344 L17.025082,1.93439344 Z M19.7243607,11.2098033 C19.7606557,10.9086885 19.7821639,10.5981639 19.7821639,10.2795738 C19.7821639,10.1075082 19.7835082,9.90586885 19.762,9.67734426 C22.4411148,9.63970492 24.7908852,7.70934426 24.7908852,5.48996721 C24.7908852,4.36078689 24.0542295,3.50718033 23.6375082,2.99904918 C23.7316066,2.97888525 23.8257049,2.95737705 23.9198033,2.93452459 C24.3123279,3.27596721 25.4267213,4.48714754 25.4267213,6.01960656 C25.4267213,8.68259016 22.765082,11.1546885 19.7243607,11.2098033 L19.7243607,11.2098033 Z" id="Fill-4" fill="#000000"></path>
                <path d="M61.3803607,6.43229508 C61.3803607,7.58701639 61.3400328,8.44331148 61.259377,8.99983607 C61.1074754,10.0523934 60.792918,10.8065246 60.3170492,11.2635738 C59.7403607,11.8200984 58.8585246,12.0983607 57.6742295,12.0983607 L54.9857049,12.0983607 L54.9857049,1.1157377 L57.6742295,1.1157377 C58.7577049,1.1157377 59.583082,1.32813115 60.1503607,1.7542623 C60.6571475,2.12796721 60.9959016,2.68045902 61.1679672,3.40904918 C61.310459,4.01665574 61.3803607,5.02485246 61.3803607,6.43229508 L61.3803607,6.43229508 Z M60.029377,6.55462295 C60.029377,5.54104918 60.0038361,4.8272459 59.9527541,4.41186885 C59.8317705,3.46013115 59.557541,2.83236066 59.1327541,2.52855738 C58.788623,2.26508197 58.2818361,2.13334426 57.6137377,2.13334426 L56.277541,2.13334426 L56.277541,11.0659672 L57.7804262,11.0659672 C58.327541,11.0659672 58.768459,10.9382623 59.1018361,10.685541 C59.5279672,10.3723279 59.8062295,9.73380328 59.9379672,8.77131148 C59.998459,8.31560656 60.029377,7.5762623 60.029377,6.55462295 L60.029377,6.55462295 Z" id="Fill-5" fill="#000000"></path>
                <path d="M63.4464918,2.5742623 L64.7679016,2.5742623 L64.7679016,1.26763934 L63.4464918,1.26763934 L63.4464918,2.5742623 Z M63.5069836,12.0983607 L64.7074098,12.0983607 L64.7074098,4.44278689 L63.5069836,4.44278689 L63.5069836,12.0983607 Z" id="Fill-6" fill="#000000"></path>
                <path d="M71.9072787,8.43793443 L67.8973443,8.43793443 L67.8973443,8.95413115 C67.8973443,9.73380328 67.9685902,10.2957049 68.1097377,10.6398361 C68.3127213,11.1358689 68.7079344,11.3845574 69.295377,11.3845574 C70.1758689,11.3845574 70.6369508,10.8226557 70.6772787,9.69885246 L71.8615738,9.69885246 C71.7916721,11.3993443 70.935377,12.2502623 69.295377,12.2502623 C68.2320656,12.2502623 67.5021311,11.8913443 67.106918,11.1721639 C66.8138689,10.634459 66.6673443,9.7687541 66.6673443,8.57370492 C66.6673443,7.21734426 66.7937049,6.24544262 67.0464262,5.658 C67.4416393,4.73583607 68.2213115,4.2747541 69.3854426,4.2747541 C70.4796721,4.2747541 71.2082623,4.68072131 71.5739016,5.49131148 C71.7957049,5.9967541 71.9072787,6.86245902 71.9072787,8.08842623 L71.9072787,8.43793443 L71.9072787,8.43793443 Z M70.6920656,7.61659016 C70.6920656,6.87859016 70.6409836,6.35701639 70.5401639,6.05321311 C70.3586885,5.44560656 69.9688525,5.14180328 69.3706557,5.14180328 C68.5399016,5.14180328 68.0694098,5.63783607 67.9578361,6.62990164 C67.9175082,6.97403279 67.8973443,7.30337705 67.8973443,7.61659016 L70.6920656,7.61659016 L70.6920656,7.61659016 Z" id="Fill-7" fill="#000000"></path>
                <path d="M60.9555738,25.2223934 C60.9555738,26.3354426 60.6773115,27.1258689 60.1194426,27.5909836 C59.614,28.0171148 58.7980328,28.2295082 57.6742295,28.2295082 L54.9857049,28.2295082 L54.9857049,17.2468852 L57.9027541,17.2468852 C58.8840656,17.2468852 59.6059344,17.4592787 60.0670164,17.8854098 C60.5280984,18.3101967 60.7579672,19.0145902 60.7579672,19.9959016 C60.7579672,20.6855082 60.6410164,21.2111148 60.408459,21.5767541 C60.1651475,21.9907869 59.7349836,22.2959344 59.1179672,22.4881639 C59.8263934,22.6602295 60.3170492,22.9788197 60.5912787,23.4452787 C60.8345902,23.8499016 60.9555738,24.4427213 60.9555738,25.2223934 L60.9555738,25.2223934 Z M59.4661311,20.0725246 C59.4661311,19.3936721 59.2994426,18.9178033 58.9660656,18.644918 C58.6716721,18.4016066 58.1958033,18.280623 57.5371148,18.280623 L56.2614098,18.280623 L56.2614098,22.032459 L57.6137377,22.032459 C58.8491148,22.032459 59.4661311,21.3791475 59.4661311,20.0725246 L59.4661311,20.0725246 Z M59.6341639,25.1605574 C59.6341639,24.4427213 59.4795738,23.9077049 59.1703934,23.5581967 C58.8612131,23.2086885 58.353082,23.0339344 57.6446557,23.0339344 L56.2614098,23.0339344 L56.2614098,27.1971148 L57.430918,27.1971148 C58.2011803,27.1971148 58.7482951,27.0694098 59.0722623,26.8166885 C59.4459672,26.5236393 59.6341639,25.9711475 59.6341639,25.1605574 L59.6341639,25.1605574 Z" id="Fill-8" fill="#000000"></path>
                <path d="M68.1554426,28.2295082 L66.9550164,28.2295082 L66.9402295,27.2576066 C66.4751148,27.9861967 65.8312131,28.3504918 65.0112131,28.3504918 C63.6440984,28.3504918 62.9598689,27.5667869 62.9598689,25.9966885 L62.9598689,20.5739344 L64.1602951,20.5739344 L64.1602951,25.4643607 C64.1602951,26.0934754 64.211377,26.5384262 64.3121967,26.8019016 C64.4842623,27.2374426 64.8391475,27.4552131 65.3755082,27.4552131 C66.3783279,27.4552131 66.8797377,26.7104918 66.8797377,25.2223934 L66.8797377,20.5739344 L68.0949508,20.5739344 L68.0949508,26.5438033 C68.0949508,27.1406557 68.1151148,27.7025574 68.1554426,28.2295082" id="Fill-9" fill="#000000"></path>
                <path d="M75.4924262,28.2295082 L74.292,28.2295082 L74.292,23.3377377 C74.292,22.6803934 74.2462951,22.2287213 74.1562295,21.9867541 C73.9828197,21.540459 73.6346557,21.3173115 73.1077049,21.3173115 C72.5915082,21.3173115 72.190918,21.571377 71.9072787,22.0781639 C71.6747213,22.5123607 71.5577705,23.0299016 71.5577705,23.6267541 L71.5577705,28.2295082 L70.3586885,28.2295082 L70.3586885,22.2448525 C70.3586885,21.566 70.3385246,21.0094754 70.2968525,20.5739344 L71.4824918,20.5739344 L71.4824918,21.622459 C71.9072787,20.8118689 72.5713443,20.4059016 73.472,20.4059016 C74.8189508,20.4059016 75.4924262,21.2017049 75.4924262,22.7919672 L75.4924262,28.2295082" id="Fill-10" fill="#000000"></path>
                <path d="M82.7984918,28.2295082 L81.6289836,28.2295082 L81.6141967,27.3490164 C81.1786557,28.0171148 80.5818033,28.3504918 79.8222951,28.3504918 C78.8396393,28.3504918 78.1661639,27.910918 77.8018689,27.029082 C77.5679672,26.4416393 77.4523607,25.5302295 77.4523607,24.2948525 C77.4523607,23.1307213 77.5881311,22.2502295 77.8623607,21.6520328 C78.2266557,20.8212787 78.8692131,20.4059016 79.791377,20.4059016 C80.5602951,20.4059016 81.1383279,20.7056721 81.5227869,21.3025246 L81.5227869,17.2468852 L82.738,17.2468852 L82.738,26.7857705 C82.738,27.06 82.7581639,27.5412459 82.7984918,28.2295082 L82.7984918,28.2295082 Z M81.5684918,24.4776721 C81.5684918,23.4345246 81.4932131,22.6898033 81.3399672,22.2448525 C81.1275738,21.6063279 80.7175738,21.2877377 80.1099672,21.2877377 C79.5131148,21.2877377 79.1071475,21.622459 78.8947541,22.2905574 C78.7536066,22.7260984 78.6823607,23.4036066 78.6823607,24.3257705 C78.6823607,25.3285902 78.7630164,26.0625574 78.9256721,26.5276721 C79.1380656,27.1554426 79.5184918,27.47 80.0642623,27.47 C80.7121967,27.47 81.1437049,27.1514098 81.3560984,26.5128852 C81.4972459,26.0975082 81.5684918,25.42 81.5684918,24.4776721 L81.5684918,24.4776721 Z" id="Fill-11" fill="#000000"></path>
                <path d="M89.9378689,24.569082 L85.9279344,24.569082 L85.9279344,25.0852787 C85.9279344,25.8649508 85.9991803,26.4268525 86.1403279,26.7709836 C86.3433115,27.2670164 86.7385246,27.5157049 87.3259672,27.5157049 C88.206459,27.5157049 88.667541,26.9538033 88.7078689,25.83 L89.8921639,25.83 C89.8222623,27.5304918 88.9659672,28.3814098 87.3259672,28.3814098 C86.2626557,28.3814098 85.5327213,28.0224918 85.1388525,27.3033115 C84.844459,26.7656066 84.6979344,25.8999016 84.6979344,24.7048525 C84.6979344,23.3484918 84.8242951,22.3765902 85.0770164,21.7891475 C85.4722295,20.8669836 86.2519016,20.4059016 87.417377,20.4059016 C88.5102623,20.4059016 89.2388525,20.8118689 89.6044918,21.622459 C89.8262951,22.1279016 89.9378689,22.9936066 89.9378689,24.2195738 L89.9378689,24.569082 L89.9378689,24.569082 Z M88.7226557,23.7477377 C88.7226557,23.0097377 88.672918,22.4881639 88.5707541,22.1843607 C88.3892787,21.5767541 87.9994426,21.2729508 87.4012459,21.2729508 C86.5704918,21.2729508 86.1,21.7689836 85.9884262,22.7610492 C85.9480984,23.1051803 85.9279344,23.4345246 85.9279344,23.7477377 L88.7226557,23.7477377 L88.7226557,23.7477377 Z" id="Fill-12" fill="#000000"></path>
                <path d="M96.0905574,26.1338033 C96.0905574,27.6219016 95.2907213,28.366623 93.6897049,28.366623 C92.1209508,28.366623 91.3506885,27.5412459 91.3816066,25.8904918 L92.5806885,25.8904918 C92.5806885,26.0423934 92.5860656,26.183541 92.5968197,26.3152787 C92.6680656,27.1151148 93.0417705,27.5157049 93.720623,27.5157049 C94.489541,27.5157049 94.8753443,27.1204918 94.8753443,26.3314098 C94.8753443,25.9052787 94.7530164,25.5719016 94.5110492,25.3285902 C94.3591475,25.1659344 94.0190492,24.9427869 93.4920984,24.6604918 C92.7742623,24.2746885 92.3185574,23.9910492 92.1263279,23.8095738 C91.7405246,23.4546885 91.5482951,22.9841967 91.5482951,22.3967541 C91.5482951,21.7380656 91.7660656,21.2366557 92.2016066,20.8925246 C92.6062295,20.5685574 93.1479672,20.4059016 93.8268197,20.4059016 C94.6172459,20.4059016 95.1791475,20.5914098 95.5125246,20.961082 C95.8472459,21.3307541 96.0246885,21.9007213 96.0448525,22.6696393 L94.8444262,22.6696393 C94.8444262,21.7179016 94.4855082,21.2420328 93.7663279,21.2420328 C93.4517705,21.2420328 93.2044262,21.3388197 93.0216066,21.5310492 C92.8401311,21.7232787 92.7487213,21.976 92.7487213,22.2905574 C92.7487213,22.6346885 92.8952459,22.9277377 93.1896393,23.1710492 C93.341541,23.313541 93.700459,23.5353443 94.2677377,23.8391475 C94.8847541,24.1738689 95.3108852,24.4575082 95.5434426,24.6900656 C95.9077377,25.0745246 96.0905574,25.5557705 96.0905574,26.1338033" id="Fill-13" fill="#000000"></path>
                <path d="M101.088525,21.5767541 C100.966197,21.5565902 100.880164,21.5458361 100.829082,21.5458361 C100.252393,21.5458361 99.819541,21.7232787 99.5305246,22.0781639 C99.2428525,22.4317049 99.0976721,22.903541 99.0976721,23.4896393 L99.0976721,28.2295082 L97.882459,28.2295082 L97.882459,21.970623 C97.882459,21.4544262 97.8676721,20.9893115 97.8367541,20.5739344 L99.0223934,20.5739344 L99.0223934,21.5767541 C99.4377705,20.8064918 100.085705,20.4220328 100.966197,20.4220328 C101.046852,20.4220328 101.088525,20.8064918 101.088525,21.5767541" id="Fill-14" fill="#000000"></path>
                <path d="M107.285574,24.569082 L103.275639,24.569082 L103.275639,25.0852787 C103.275639,25.8649508 103.345541,26.4268525 103.488033,26.7709836 C103.691016,27.2670164 104.084885,27.5157049 104.672328,27.5157049 C105.554164,27.5157049 106.015246,26.9538033 106.055574,25.83 L107.239869,25.83 C107.168623,27.5304918 106.313672,28.3814098 104.672328,28.3814098 C103.609016,28.3814098 102.880426,28.0224918 102.485213,27.3033115 C102.192164,26.7656066 102.044295,25.8999016 102.044295,24.7048525 C102.044295,23.3484918 102.172,22.3765902 102.424721,21.7891475 C102.819934,20.8669836 103.599607,20.4059016 104.763738,20.4059016 C105.857967,20.4059016 106.586557,20.8118689 106.950852,21.622459 C107.174,22.1279016 107.285574,22.9936066 107.285574,24.2195738 L107.285574,24.569082 L107.285574,24.569082 Z M106.070361,23.7477377 C106.070361,23.0097377 106.019279,22.4881639 105.918459,22.1843607 C105.735639,21.5767541 105.345803,21.2729508 104.748951,21.2729508 C103.918197,21.2729508 103.447705,21.7689836 103.336131,22.7610492 C103.295803,23.1051803 103.275639,23.4345246 103.275639,23.7477377 L106.070361,23.7477377 L106.070361,23.7477377 Z" id="Fill-15" fill="#000000"></path>
                <path d="M114.258262,20.5739344 C114.258262,20.6855082 114.250197,20.884459 114.23541,21.1734754 C114.219279,21.4624918 114.212557,21.6869836 114.212557,21.8496393 L114.212557,28.5480984 C114.212557,29.4796721 113.994787,30.1585246 113.559246,30.5846557 C113.123705,31.0094426 112.430066,31.2218361 111.478328,31.2218361 C109.89882,31.2218361 109.097639,30.4824918 109.077475,29.0038033 L110.35318,29.0038033 C110.35318,29.935377 110.748393,30.4018361 111.53882,30.4018361 C112.155836,30.4018361 112.56718,30.1786885 112.76882,29.7337377 C112.911311,29.4393443 112.981213,28.9540656 112.981213,28.2752131 L112.981213,27.2414754 C112.556426,27.8396721 111.963607,28.1380984 111.204098,28.1380984 C110.252361,28.1380984 109.599049,27.7388525 109.245508,26.9390164 C109.011607,26.4120656 108.896,25.5920656 108.896,24.4776721 C108.896,23.2422951 109.022361,22.3201311 109.275082,21.7125246 C109.639377,20.8414426 110.288656,20.4059016 111.22023,20.4059016 C112.069803,20.4059016 112.682787,20.7607869 113.057836,21.4692131 L113.057836,20.5739344 L114.258262,20.5739344 L114.258262,20.5739344 Z M113.012131,24.159082 C113.012131,23.2974098 112.940885,22.6602295 112.799738,22.2448525 C112.57659,21.617082 112.161213,21.3025246 111.553607,21.3025246 C110.925836,21.3025246 110.510459,21.6574098 110.30882,22.3658361 C110.186492,22.7919672 110.126,23.4950164 110.126,24.4776721 C110.126,25.3581639 110.186492,25.9859344 110.30882,26.3609836 C110.501049,26.9887541 110.890885,27.3033115 111.478328,27.3033115 C112.16659,27.3033115 112.622295,26.9228852 112.845443,26.163377 C112.957016,25.7681639 113.012131,25.1000656 113.012131,24.159082 L113.012131,24.159082 Z" id="Fill-16" fill="#000000"></path>
                <path d="M116.399672,18.7054098 L117.721082,18.7054098 L117.721082,17.3987869 L116.399672,17.3987869 L116.399672,18.7054098 Z M116.460164,28.2295082 L117.66059,28.2295082 L117.66059,20.5739344 L116.460164,20.5739344 L116.460164,28.2295082 Z" id="Fill-17" fill="#000000"></path>
                <path d="M124.860459,24.569082 L120.850525,24.569082 L120.850525,25.0852787 C120.850525,25.8649508 120.920426,26.4268525 121.062918,26.7709836 C121.265902,27.2670164 121.661115,27.5157049 122.247213,27.5157049 C123.129049,27.5157049 123.590131,26.9538033 123.630459,25.83 L124.814754,25.83 C124.743508,27.5304918 123.888557,28.3814098 122.247213,28.3814098 C121.183902,28.3814098 120.455311,28.0224918 120.060098,27.3033115 C119.767049,26.7656066 119.61918,25.8999016 119.61918,24.7048525 C119.61918,23.3484918 119.746885,22.3765902 119.999607,21.7891475 C120.39482,20.8669836 121.174492,20.4059016 122.338623,20.4059016 C123.432852,20.4059016 124.161443,20.8118689 124.525738,21.622459 C124.748885,22.1279016 124.860459,22.9936066 124.860459,24.2195738 L124.860459,24.569082 L124.860459,24.569082 Z M123.645246,23.7477377 C123.645246,23.0097377 123.594164,22.4881639 123.493344,22.1843607 C123.310525,21.5767541 122.920689,21.2729508 122.323836,21.2729508 C121.493082,21.2729508 121.02259,21.7689836 120.911016,22.7610492 C120.870689,23.1051803 120.850525,23.4345246 120.850525,23.7477377 L123.645246,23.7477377 L123.645246,23.7477377 Z" id="Fill-18" fill="#000000"></path>
                <path d="M129.964623,21.5767541 C129.842295,21.5565902 129.756262,21.5458361 129.706525,21.5458361 C129.128492,21.5458361 128.695639,21.7232787 128.407967,22.0781639 C128.118951,22.4317049 127.975115,22.903541 127.975115,23.4896393 L127.975115,28.2295082 L126.759902,28.2295082 L126.759902,21.970623 C126.759902,21.4544262 126.74377,20.9893115 126.714197,20.5739344 L127.898492,20.5739344 L127.898492,21.5767541 C128.313869,20.8064918 128.961803,20.4220328 129.842295,20.4220328 C129.924295,20.4220328 129.964623,20.8064918 129.964623,21.5767541" id="Fill-19" fill="#000000"></path>
                <path d="M136.60259,28.2295082 L135.402164,28.2295082 L135.387377,27.2576066 C134.920918,27.9861967 134.278361,28.3504918 133.458361,28.3504918 C132.091246,28.3504918 131.407016,27.5667869 131.407016,25.9966885 L131.407016,20.5739344 L132.607443,20.5739344 L132.607443,25.4643607 C132.607443,26.0934754 132.658525,26.5384262 132.759344,26.8019016 C132.93141,27.2374426 133.286295,27.4552131 133.822656,27.4552131 C134.825475,27.4552131 135.326885,26.7104918 135.326885,25.2223934 L135.326885,20.5739344 L136.542098,20.5739344 L136.542098,26.5438033 C136.542098,27.1406557 136.562262,27.7025574 136.60259,28.2295082" id="Fill-20" fill="#000000"></path>
                <path d="M143.939574,28.2295082 L142.739148,28.2295082 L142.739148,23.3377377 C142.739148,22.6803934 142.693443,22.2287213 142.602033,21.9867541 C142.429967,21.540459 142.080459,21.3173115 141.554852,21.3173115 C141.038656,21.3173115 140.638066,21.571377 140.354426,22.0781639 C140.121869,22.5123607 140.004918,23.0299016 140.004918,23.6267541 L140.004918,28.2295082 L138.804492,28.2295082 L138.804492,22.2448525 C138.804492,21.566 138.784328,21.0094754 138.744,20.5739344 L139.929639,20.5739344 L139.929639,21.622459 C140.354426,20.8118689 141.017148,20.4059016 141.919148,20.4059016 C143.266098,20.4059016 143.939574,21.2017049 143.939574,22.7919672 L143.939574,28.2295082" id="Fill-21" fill="#000000"></path>
                <path d="M151.260426,20.5739344 C151.260426,20.6855082 151.253705,20.884459 151.237574,21.1734754 C151.222787,21.4624918 151.216066,21.6869836 151.216066,21.8496393 L151.216066,28.5480984 C151.216066,29.4796721 150.996951,30.1585246 150.562754,30.5846557 C150.127213,31.0094426 149.433574,31.2218361 148.480492,31.2218361 C146.900984,31.2218361 146.101148,30.4824918 146.080984,29.0038033 L147.356689,29.0038033 C147.356689,29.935377 147.751902,30.4018361 148.542328,30.4018361 C149.159344,30.4018361 149.569344,30.1786885 149.772328,29.7337377 C149.913475,29.4393443 149.984721,28.9540656 149.984721,28.2752131 L149.984721,27.2414754 C149.559934,27.8396721 148.967115,28.1380984 148.207607,28.1380984 C147.255869,28.1380984 146.602557,27.7388525 146.247672,26.9390164 C146.015115,26.4120656 145.899508,25.5920656 145.899508,24.4776721 C145.899508,23.2422951 146.025869,22.3201311 146.27859,21.7125246 C146.642885,20.8414426 147.29082,20.4059016 148.222393,20.4059016 C149.073311,20.4059016 149.686295,20.7607869 150.061344,21.4692131 L150.061344,20.5739344 L151.260426,20.5739344 L151.260426,20.5739344 Z M150.015639,24.159082 C150.015639,23.2974098 149.944393,22.6602295 149.803246,22.2448525 C149.580098,21.617082 149.164721,21.3025246 148.557115,21.3025246 C147.929344,21.3025246 147.513967,21.6574098 147.310984,22.3658361 C147.19,22.7919672 147.129508,23.4950164 147.129508,24.4776721 C147.129508,25.3581639 147.19,25.9859344 147.310984,26.3609836 C147.504557,26.9887541 147.894393,27.3033115 148.480492,27.3033115 C149.170098,27.3033115 149.625803,26.9228852 149.848951,26.163377 C149.95918,25.7681639 150.015639,25.1000656 150.015639,24.159082 L150.015639,24.159082 Z" id="Fill-22" fill="#000000"></path>
            </g>
        </g>
    </g>
</svg>