<?xml version="1.0" encoding="UTF-8" standalone="no"?>
<svg width="170px" height="82px" viewBox="0 0 170 82" version="1.1" xmlns="http://www.w3.org/2000/svg" xmlns:xlink="http://www.w3.org/1999/xlink">
    <!-- Generator: Sketch 39.1 (31720) - http://www.bohemiancoding.com/sketch -->
    <title>brandmark_government_en_l</title>
    <desc>Created with Sketch.</desc>
    <defs></defs>
    <g id="Symbols" stroke="none" stroke-width="1" fill="none" fill-rule="evenodd">
        <g id="brandmark_government_en_l">
            <g id="BReg_DTP_Plot_en">
                <polygon id="Fill-1" fill="#000000" points="40.3278689 28.2295082 45.0327869 28.2295082 45.0327869 1.34560656 40.3278689 1.34560656"></polygon>
                <polygon id="Fill-2" fill="#FF0000" points="40.3278689 55.1147541 45.0327869 55.1147541 45.0327869 28.2295082 40.3278689 28.2295082"></polygon>
                <polygon id="Fill-3" fill="#FFCC00" points="40.3278689 82 45.0327869 82 45.0327869 55.1147541 40.3278689 55.1147541"></polygon>
                <path d="M28.0843279,10.742 C29.4608525,12.9183607 30.5376066,12.8820656 32.1641639,12.8820656 C30.8185574,11.8496721 29.9286557,10.5296066 29.5038689,9.85478689 L26.9900984,5.8327541 C26.7454426,4.59065574 26.101541,3.42921311 25.1403934,2.56485246 C25.4630164,2.44252459 25.7332131,2.31347541 25.8945246,2.19114754 C24.2531803,2.19114754 22.626623,1.35770492 21.7313443,1.35770492 C21.156,1.35770492 20.7849836,1.70183607 20.7849836,2.15619672 C20.822623,2.66163934 21.3441967,3.17783607 22.3080328,3.17783607 C22.5258033,3.17783607 22.8054098,3.14960656 23.1119016,3.09852459 C23.6334754,3.82577049 24.0542295,4.48311475 24.0542295,5.42140984 C24.0542295,7.18239344 21.9491148,8.55488525 19.8238361,8.55488525 C19.7028525,8.55488525 19.5885902,8.5495082 19.4689508,8.54144262 C19.275377,8.10455738 18.6355082,7.37059016 18.6355082,6.5384918 C18.6355082,5.13911475 19.5482623,3.9964918 19.5482623,2.60921311 C19.5482623,1.74888525 19.1275082,1.21521311 18.9661967,0.993409836 C19.2283279,0.751442623 19.5133115,0.453016393 19.5791803,0.250032787 C19.428623,0.314557377 19.2484918,0.323967213 18.9863607,0.323967213 C17.9674098,0.323967213 17.1366557,0.059147541 16.3274098,0.059147541 C15.8649836,0.059147541 15.7399672,0.201639344 15.7399672,0.337409836 C15.7399672,0.387147541 15.7480328,0.438229508 15.7614754,0.46242623 C15.5894098,0.395213115 15.4280984,0.350852459 15.2358689,0.314557377 C14.9965902,0.270196721 14.7384918,0.247344262 14.4656066,0.247344262 C13.4816066,0.247344262 13.1320984,0.660032787 13.1320984,1.01222951 C13.1320984,1.312 13.3673443,1.85777049 13.6348525,2.27314754 C14.0179672,2.08091803 14.4790492,1.95052459 14.6887541,1.95052459 C15.2103279,1.95052459 15.6754426,2.44790164 15.9214426,3.03668852 C15.5705902,3.07836066 15.503377,3.0944918 15.1484918,3.0944918 C14.1900328,3.0944918 13.5380656,2.75170492 13.4036393,2.75170492 C13.3901967,2.75170492 13.3646557,2.75842623 13.3646557,2.77859016 C13.3646557,2.91436066 13.637541,3.2692459 14.1725574,3.46416393 C14.8769508,3.7222623 15.9348852,3.82980328 16.1109836,3.85937705 C16.1109836,3.89029508 15.9321967,4.22367213 15.7319016,4.28685246 C15.6888852,4.30163934 15.656623,4.30298361 15.6068852,4.29222951 C14.8702295,4.14704918 14.6645574,4.08521311 13.7302951,3.72898361 C13.7007213,3.71957377 13.6845902,3.73704918 13.6845902,3.76662295 C13.6845902,4.13629508 14.6417049,4.9522623 15.4993443,5.26547541 C14.7828525,6.17957377 13.8875738,7.11518033 13.4668197,8.54144262 C13.3471803,8.5495082 13.2315738,8.55488525 13.1119344,8.55488525 C10.9866557,8.55488525 8.88019672,7.18239344 8.88019672,5.42140984 C8.88019672,4.48311475 9.30229508,3.82577049 9.82386885,3.09852459 C10.1303607,3.14960656 10.408623,3.17783607 10.6277377,3.17783607 C11.5915738,3.17783607 12.1131475,2.66163934 12.1507869,2.15619672 C12.1507869,1.70183607 11.7811148,1.35770492 11.203082,1.35770492 C10.3078033,1.35770492 8.68259016,2.19114754 7.03990164,2.19114754 C7.20255738,2.31347541 7.47140984,2.44252459 7.79403279,2.56485246 C6.83288525,3.42921311 6.19032787,4.59065574 5.94432787,5.8327541 L3.43190164,9.85478689 C3.00845902,10.5296066 2.11586885,11.8496721 0.770262295,12.8820656 C2.39681967,12.8820656 3.47491803,12.9183607 4.85144262,10.742 L6.1392459,8.67990164 C6.23603279,8.94740984 6.35298361,9.20819672 6.49144262,9.46360656 L3.92793443,13.5649508 C3.50045902,14.2451475 2.61727869,15.554459 1.26629508,16.5922295 C2.89285246,16.5922295 3.97095082,16.6298689 5.34747541,14.4548525 L7.55340984,10.9221311 C7.7187541,11.0982295 7.89216393,11.2702951 8.07498361,11.4342951 L4.96167213,16.4188197 C4.53419672,17.1003607 3.65504918,18.4056393 2.30003279,19.4434098 C3.92659016,19.4434098 5.00603279,19.4823934 6.38121311,17.3060328 L9.41655738,12.4465246 C9.61685246,12.5728852 9.82118033,12.6952131 10.0322295,12.8108197 L6.32744262,18.7390164 C5.89996721,19.4219016 5.02081967,20.7244918 3.66714754,21.7636066 C5.29370492,21.7636066 6.37180328,21.8025902 7.74832787,19.6275738 L11.5633443,13.5205902 C11.7891803,13.606623 12.0177049,13.6899672 12.2502623,13.7639016 L7.93921311,20.664 C7.51845902,21.3361311 6.61914754,22.6615738 5.2802623,23.6885902 C6.90547541,23.6885902 7.98491803,23.7248852 9.36009836,21.5512131 L13.9547869,14.1980984 C14.0018361,14.2048197 14.047541,14.2128852 14.0932459,14.2222951 C14.2182623,14.6201967 14.3056393,14.9898689 14.3056393,15.3608852 C14.3056393,17.6716721 12.7893115,19.7122623 10.9691803,21.2877377 C11.0861311,21.3388197 11.2891148,21.3562951 11.4759672,21.3562951 C11.8510164,21.3562951 12.0943279,21.3361311 12.2650492,21.3065574 C11.8429508,22.2650164 10.936918,23.5017377 10.4798689,24.1429508 C9.88436066,24.0354098 9.01731148,23.9507213 8.45003279,23.9507213 C7.85586885,23.9507213 7.78865574,24.2988852 7.78865574,24.6094098 C7.78865574,25.148459 8.04003279,25.5772787 8.33442623,25.8165574 C8.44465574,25.5409836 8.66645902,25.1726557 9.76337705,25.1726557 C9.78488525,25.1726557 9.82252459,25.1753443 9.87360656,25.1780328 C9.55232787,25.5356066 8.54816393,26.347541 8.54816393,27.0008525 C8.54816393,27.4337049 9.02403279,28.0829836 9.64911475,28.0829836 C9.61147541,27.9431803 9.61685246,27.8141311 9.61685246,27.7186885 C9.61685246,27.1890492 10.086,26.5693443 10.4825574,26.1364918 C10.470459,26.265541 10.4771803,26.2520984 10.4771803,26.4026557 C10.4771803,27.6541639 10.5900984,28.2295082 11.3845574,28.2295082 C11.7743934,28.2295082 12.0432459,28.0157705 12.136,27.9512459 C11.6198033,27.475377 11.592918,27.1030164 11.592918,26.4013115 C11.5942623,26.2184918 11.5942623,26.0397049 11.5969508,25.7937049 C11.5996393,25.6323934 11.5969508,25.42 11.5700656,25.2667541 C11.8550492,25.2277705 11.9706557,25.2277705 12.1884262,25.2277705 C12.1884262,25.2277705 13.3176066,25.1377049 13.5891475,25.7251475 C13.8956393,25.4441967 14.3405902,25.0476393 14.3405902,24.6107541 C14.3405902,24.3217377 14.2034754,23.995082 13.6227541,23.995082 C13.4022951,23.995082 12.71,24.1295082 12.130623,24.1295082 C12.2865574,23.7826885 12.9788525,22.7691148 13.5797377,22.0351475 C13.6698033,22.3201311 13.8122951,22.6279672 14.1268525,22.8806885 C14.1712131,22.4075082 14.4481311,20.9113443 15.1874754,20.0362295 C15.2735082,20.6277049 15.3891148,21.2339672 15.3891148,22.5123607 C15.3891148,25.6229836 14.6417049,27.9203279 13.0541311,28.3585574 C13.2611475,28.7174754 13.6980328,29.0414426 14.1510492,29.0414426 C14.7317705,29.0414426 15.0476721,28.3840984 15.3702951,27.7643934 C15.5383279,28.2214426 16.0020984,29.3425574 16.4672131,29.3425574 C16.9323279,29.3425574 17.3960984,28.2214426 17.5641311,27.7643934 C17.8867541,28.3840984 18.204,29.0414426 18.7847213,29.0414426 C19.2377377,29.0414426 19.674623,28.7174754 19.8816393,28.3585574 C18.2940656,27.9203279 17.5453115,25.6229836 17.5453115,22.5123607 C17.5453115,21.2339672 17.660918,20.6277049 17.7469508,20.0362295 C18.4862951,20.9113443 18.7645574,22.4075082 18.8075738,22.8806885 C19.1234754,22.6279672 19.2659672,22.3201311 19.3560328,22.0351475 C19.9555738,22.7691148 20.6492131,23.7826885 20.8051475,24.1295082 C20.2244262,24.1295082 19.5321311,23.995082 19.3130164,23.995082 C18.7322951,23.995082 18.5951803,24.3217377 18.5951803,24.6107541 C18.5951803,25.0476393 19.0401311,25.4441967 19.346623,25.7251475 C19.6168197,25.1377049 20.7473443,25.2277705 20.7473443,25.2277705 C20.9651148,25.2277705 21.0807213,25.2277705 21.3657049,25.2667541 C21.3388197,25.42 21.3374754,25.6323934 21.3388197,25.7937049 C21.3401639,26.0397049 21.3415082,26.2184918 21.3415082,26.4013115 C21.3415082,27.1030164 21.3159672,27.475377 20.7997705,27.9512459 C20.8925246,28.0157705 21.161377,28.2295082 21.5512131,28.2295082 C22.3456721,28.2295082 22.4599344,27.6541639 22.4599344,26.4026557 C22.4599344,26.2520984 22.4639672,26.265541 22.4532131,26.1364918 C22.8497705,26.5693443 23.318918,27.1890492 23.318918,27.7186885 C23.318918,27.8141311 23.3242951,27.9431803 23.2853115,28.0829836 C23.9117377,28.0829836 24.3876066,27.4337049 24.3876066,27.0008525 C24.3876066,26.347541 23.3834426,25.5356066 23.0608197,25.1780328 C23.1132459,25.1753443 23.1508852,25.1726557 23.1710492,25.1726557 C24.2693115,25.1726557 24.4911148,25.5409836 24.6013443,25.8165574 C24.8943934,25.5772787 25.1471148,25.148459 25.1471148,24.6094098 C25.1471148,24.2988852 25.0799016,23.9507213 24.4857377,23.9507213 C23.918459,23.9507213 23.0514098,24.0354098 22.4559016,24.1429508 C21.9975082,23.5017377 21.0928197,22.2650164 20.6707213,21.3065574 C20.8400984,21.3361311 21.0847541,21.3562951 21.458459,21.3562951 C21.648,21.3562951 21.8496393,21.3388197 21.9665902,21.2877377 C20.146459,19.7122623 18.6287869,17.6716721 18.6287869,15.3608852 C18.6287869,14.9898689 18.7175082,14.6201967 18.8425246,14.2222951 C18.8868852,14.2128852 18.9339344,14.2048197 18.9809836,14.1980984 L23.5756721,21.5512131 C24.9508525,23.7248852 26.0302951,23.6885902 27.6555082,23.6885902 C26.316623,22.6615738 25.4173115,21.3361311 24.9965574,20.664 L20.6841639,13.7639016 C20.9180656,13.6899672 21.1465902,13.606623 21.3724262,13.5205902 L25.1874426,19.6275738 C26.5639672,21.8025902 27.6420656,21.7636066 29.268623,21.7636066 C27.9149508,20.7244918 27.0358033,19.4219016 26.6083279,18.7390164 L22.903541,12.8108197 C23.1132459,12.6952131 23.318918,12.5728852 23.5178689,12.4465246 L26.5545574,17.3060328 C27.931082,19.4823934 29.0078361,19.4434098 30.6343934,19.4434098 C29.2807213,18.4056393 28.4015738,17.1003607 27.9740984,16.4188197 L24.8607869,11.4342951 C25.0436066,11.2702951 25.2183607,11.0982295 25.3810164,10.9221311 L27.5882951,14.4548525 C28.9648197,16.6298689 30.042918,16.5922295 31.6694754,16.5922295 C30.3171475,15.554459 29.4353115,14.2451475 29.0078361,13.5649508 L26.4443279,9.46360656 C26.5827869,9.20819672 26.6997377,8.94740984 26.7965246,8.67990164 L28.0843279,10.742 L28.0843279,10.742 Z M7.50904918,6.01960656 C7.50904918,4.48714754 8.62344262,3.27596721 9.01596721,2.93452459 C9.11006557,2.95737705 9.20416393,2.97888525 9.2982623,2.99904918 C8.88019672,3.50718033 8.14488525,4.36078689 8.14488525,5.48996721 C8.14488525,7.73219672 10.5403607,9.67868852 13.253082,9.67868852 C13.2356066,9.87091803 13.2261967,10.0725574 13.2261967,10.2795738 C13.2261967,10.6116066 13.2450164,10.9194426 13.2772787,11.2098033 C10.2096721,11.1909836 7.50904918,8.70140984 7.50904918,6.01960656 L7.50904918,6.01960656 Z M11.6655082,24.3997049 L11.6480328,24.4521311 L11.7018033,24.4521311 C12.5621311,24.4521311 12.981541,24.3902951 13.2598033,24.3499672 C13.4049836,24.3324918 13.5098361,24.3163607 13.6227541,24.3163607 C13.8445574,24.3163607 14.0152787,24.3365246 14.0152787,24.6107541 C14.0152787,24.794918 13.8001967,25.086623 13.5904918,25.256 C13.2732459,24.9562295 12.8336721,24.897082 12.1884262,24.897082 C11.8873115,24.897082 11.4920984,24.9521967 11.2810492,24.9817705 L11.2474426,24.9858033 L11.2098033,24.9911803 L11.2219016,25.092 C11.2474426,25.2707869 11.2783607,25.4925902 11.2783607,25.7923607 L11.2743279,26.0639016 L11.2702951,26.4013115 C11.2702951,27.1325902 11.3711148,27.5493115 11.6265246,27.8652131 C11.5606557,27.8894098 11.454459,27.9095738 11.3845574,27.9095738 C10.9301967,27.9095738 10.798459,27.710623 10.798459,26.4026557 C10.798459,26.1391803 10.7850164,25.8931803 10.7756066,25.7291803 L10.7621639,25.4858689 L10.7043607,25.5302295 C10.029541,26.045082 9.33455738,26.9645574 9.29288525,27.6514754 C9.08990164,27.521082 8.86944262,27.2266885 8.86944262,27.0008525 C8.86944262,26.6258033 9.43403279,26.0625574 10.086,25.4092459 L10.4623934,25.0341967 L10.5094426,24.9858033 L10.3871148,24.9548852 C10.2459672,24.9185902 9.98518033,24.8527213 9.76337705,24.8527213 C9.0307541,24.8527213 8.57236066,24.9911803 8.29006557,25.2990164 C8.18790164,25.1524918 8.10321311,24.8097049 8.10321311,24.6094098 C8.10321311,24.4790164 8.1287541,24.3876066 8.17983607,24.3351803 C8.24436066,24.2733443 8.34383607,24.2733443 8.43121311,24.2733443 L8.45003279,24.2733443 C9.25659016,24.2733443 10.2217705,24.4185246 10.5981639,24.4790164 L10.6196721,24.4843934 L10.634459,24.4655738 C10.6989836,24.3781967 12.2381639,22.3281967 12.6374098,21.2420328 C12.7301639,21.207082 12.8094754,21.181541 12.9694426,21.181541 C13.2732459,21.181541 13.3579344,21.3858689 13.4439672,21.699082 C12.4828197,22.8672459 11.8832787,23.7759672 11.6655082,24.3997049 L11.6655082,24.3997049 Z M19.9649836,21.181541 C20.1262951,21.181541 20.2042623,21.207082 20.2983607,21.2420328 C20.6976066,22.3281967 22.2367869,24.3781967 22.2999672,24.4655738 L22.3147541,24.4843934 L22.3376066,24.4790164 C22.714,24.4185246 23.6791803,24.2733443 24.4857377,24.2733443 L24.5045574,24.2733443 C24.5919344,24.2733443 24.6914098,24.2733443 24.7545902,24.3351803 C24.8070164,24.3876066 24.8325574,24.4790164 24.8325574,24.6094098 C24.8325574,24.8097049 24.7478689,25.1524918 24.6457049,25.2990164 C24.3634098,24.9911803 23.9050164,24.8527213 23.1710492,24.8527213 C22.9505902,24.8527213 22.6898033,24.9185902 22.5486557,24.9548852 L22.4908525,24.9683279 L22.4249836,24.9858033 L22.8484262,25.4092459 C23.5017377,26.0625574 24.0663279,26.6258033 24.0663279,27.0008525 C24.0663279,27.2266885 23.8458689,27.521082 23.6428852,27.6514754 C23.5998689,26.9645574 22.9062295,26.045082 22.2300656,25.5302295 L22.1722623,25.4872131 L22.1615082,25.7291803 C22.1520984,25.8931803 22.1373115,26.1391803 22.1373115,26.4026557 C22.1373115,27.710623 22.0042295,27.9095738 21.5512131,27.9095738 C21.4813115,27.9095738 21.3751148,27.8894098 21.3092459,27.8652131 C21.5646557,27.5493115 21.6654754,27.1325902 21.6654754,26.4013115 L21.6614426,26.0639016 L21.6574098,25.7923607 C21.6574098,25.4925902 21.6883279,25.2707869 21.7125246,25.092 L21.7259672,24.9911803 L21.6547213,24.9817705 C21.4423279,24.9521967 21.048459,24.897082 20.7473443,24.897082 C20.1007541,24.897082 19.6625246,24.9562295 19.3452787,25.256 C19.1355738,25.086623 18.9204918,24.794918 18.9204918,24.6107541 C18.9204918,24.3365246 19.0898689,24.3163607 19.3130164,24.3163607 C19.4259344,24.3163607 19.5307869,24.3324918 19.6759672,24.3499672 C19.9542295,24.3902951 20.3722951,24.4521311 21.2339672,24.4521311 L21.2863934,24.4521311 L21.2702623,24.3997049 C21.0524918,23.7759672 20.4529508,22.8672459 19.4918033,21.699082 C19.5778361,21.3858689 19.6625246,21.181541 19.9649836,21.181541 L19.9649836,21.181541 Z M16.4026885,3.3015082 C16.3059016,2.90495082 16.102918,2.49495082 15.8434754,2.18711475 C15.6068852,1.90885246 15.2157049,1.57681967 14.6887541,1.57681967 C14.4481311,1.57681967 14.0448525,1.6897377 13.7880984,1.79727869 C13.6913115,1.62386885 13.504459,1.20311475 13.504459,1.01222951 C13.504459,0.817311475 13.8351475,0.619704918 14.4656066,0.619704918 C15.851541,0.619704918 16.6809508,1.24747541 16.6809508,2.29868852 C16.6809508,2.66701639 16.5344262,3.00442623 16.4026885,3.3015082 L16.4026885,3.3015082 Z M17.025082,1.93439344 C16.9753443,1.63865574 16.8624262,1.36980328 16.6903607,1.13859016 C16.6984262,0.86704918 16.81,0.607606557 17.2482295,0.821344262 C17.0116393,1.06331148 17.194459,1.49078689 17.194459,1.49078689 C17.194459,1.49078689 17.6770492,1.26629508 17.5775738,0.947704918 C18.2954098,1.11977049 17.7792131,2.08360656 17.025082,1.93439344 L17.025082,1.93439344 Z M19.7243607,11.2098033 C19.7606557,10.9086885 19.7821639,10.5981639 19.7821639,10.2795738 C19.7821639,10.1075082 19.7835082,9.90586885 19.762,9.67734426 C22.4411148,9.63970492 24.7908852,7.70934426 24.7908852,5.48996721 C24.7908852,4.36078689 24.0542295,3.50718033 23.6375082,2.99904918 C23.7316066,2.97888525 23.8257049,2.95737705 23.9198033,2.93452459 C24.3123279,3.27596721 25.4267213,4.48714754 25.4267213,6.01960656 C25.4267213,8.68259016 22.765082,11.1546885 19.7243607,11.2098033 L19.7243607,11.2098033 Z" id="Fill-4" fill="#000000"></path>
                <polyline id="Fill-5" fill="#000000" points="60.2417705 2.1642623 57.7051475 2.1642623 57.7051475 12.0983607 56.4133115 12.0983607 56.4133115 2.1642623 53.8766885 2.1642623 53.8766885 1.1157377 60.2417705 1.1157377 60.2417705 2.1642623"></polyline>
                <path d="M66.363541,12.0983607 L65.1631148,12.0983607 L65.1631148,7.20659016 C65.1631148,6.55865574 65.1174098,6.10832787 65.026,5.85560656 C64.8539344,5.40931148 64.5044262,5.18616393 63.9788197,5.18616393 C62.945082,5.18616393 62.4288852,5.94163934 62.4288852,7.44990164 L62.4288852,12.0983607 L61.228459,12.0983607 L61.228459,1.1157377 L62.4288852,1.1157377 L62.4288852,5.32327869 C62.924918,4.6242623 63.5688197,4.2747541 64.3579016,4.2747541 C65.6940984,4.2747541 66.363541,5.07593443 66.363541,6.67560656 L66.363541,12.0983607" id="Fill-6" fill="#000000"></path>
                <path d="M73.5634098,8.43793443 L69.5534754,8.43793443 L69.5534754,8.95413115 C69.5534754,9.73380328 69.623377,10.2957049 69.7658689,10.6398361 C69.9688525,11.1358689 70.3627213,11.3845574 70.9501639,11.3845574 C71.832,11.3845574 72.293082,10.8226557 72.3334098,9.69885246 L73.5177049,9.69885246 C73.446459,11.3993443 72.5915082,12.2502623 70.9501639,12.2502623 C69.8868525,12.2502623 69.1582623,11.8913443 68.7630492,11.1721639 C68.47,10.634459 68.3221311,9.7687541 68.3221311,8.57370492 C68.3221311,7.21734426 68.4498361,6.24544262 68.7025574,5.658 C69.0977705,4.73583607 69.8774426,4.2747541 71.0415738,4.2747541 C72.1358033,4.2747541 72.8643934,4.68072131 73.2286885,5.49131148 C73.4518361,5.9967541 73.5634098,6.86245902 73.5634098,8.08842623 L73.5634098,8.43793443 L73.5634098,8.43793443 Z M72.3481967,7.61659016 C72.3481967,6.87859016 72.2971148,6.35701639 72.1962951,6.05321311 C72.0134754,5.44560656 71.6236393,5.14180328 71.0267869,5.14180328 C70.1960328,5.14180328 69.725541,5.63783607 69.6139672,6.62990164 C69.5736393,6.97403279 69.5534754,7.30337705 69.5534754,7.61659016 L72.3481967,7.61659016 L72.3481967,7.61659016 Z" id="Fill-7" fill="#000000"></path>
                <polyline id="Fill-8" fill="#000000" points="59.7255738 18.2954098 56.2761967 18.2954098 56.2761967 22.0472459 59.5279672 22.0472459 59.5279672 23.0796393 56.2761967 23.0796393 56.2761967 28.2295082 54.9857049 28.2295082 54.9857049 17.2468852 59.7255738 17.2468852 59.7255738 18.2954098"></polyline>
                <path d="M65.9374098,24.569082 L61.9274754,24.569082 L61.9274754,25.0852787 C61.9274754,25.8649508 61.9987213,26.4268525 62.1398689,26.7709836 C62.3428525,27.2670164 62.7380656,27.5157049 63.3255082,27.5157049 C64.206,27.5157049 64.667082,26.9538033 64.7074098,25.83 L65.8917049,25.83 C65.8218033,27.5304918 64.9655082,28.3814098 63.3255082,28.3814098 C62.2621967,28.3814098 61.5322623,28.0224918 61.1370492,27.3033115 C60.844,26.7656066 60.6974754,25.8999016 60.6974754,24.7048525 C60.6974754,23.3484918 60.8238361,22.3765902 61.0765574,21.7891475 C61.4717705,20.8669836 62.2514426,20.4059016 63.4155738,20.4059016 C64.5098033,20.4059016 65.2397377,20.8118689 65.6040328,21.622459 C65.8258361,22.1279016 65.9374098,22.9936066 65.9374098,24.2195738 L65.9374098,24.569082 L65.9374098,24.569082 Z M64.7221967,23.7477377 C64.7221967,23.0097377 64.672459,22.4881639 64.5702951,22.1843607 C64.3888197,21.5767541 63.9989836,21.2729508 63.4007869,21.2729508 C62.571377,21.2729508 62.099541,21.7689836 61.9879672,22.7610492 C61.9476393,23.1051803 61.9274754,23.4345246 61.9274754,23.7477377 L64.7221967,23.7477377 L64.7221967,23.7477377 Z" id="Fill-9" fill="#000000"></path>
                <path d="M72.8953115,28.2295082 L71.7258033,28.2295082 L71.7096721,27.3490164 C71.2741311,28.0171148 70.6772787,28.3504918 69.9177705,28.3504918 C68.9351148,28.3504918 68.2616393,27.910918 67.8973443,27.029082 C67.6647869,26.4416393 67.5478361,25.5302295 67.5478361,24.2948525 C67.5478361,23.1307213 67.6849508,22.2502295 67.9578361,21.6520328 C68.3221311,20.8212787 68.9660328,20.4059016 69.8868525,20.4059016 C70.6571148,20.4059016 71.2338033,20.7056721 71.6182623,21.3025246 L71.6182623,17.2468852 L72.8348197,17.2468852 L72.8348197,26.7857705 C72.8348197,27.06 72.8549836,27.5412459 72.8953115,28.2295082 L72.8953115,28.2295082 Z M71.6639672,24.4776721 C71.6639672,23.4345246 71.5886885,22.6898033 71.4367869,22.2448525 C71.2243934,21.6063279 70.8143934,21.2877377 70.2067869,21.2877377 C69.6085902,21.2877377 69.2039672,21.622459 68.9915738,22.2905574 C68.849082,22.7260984 68.7778361,23.4036066 68.7778361,24.3257705 C68.7778361,25.3285902 68.8598361,26.0625574 69.0211475,26.5276721 C69.233541,27.1554426 69.6139672,27.47 70.161082,27.47 C70.8090164,27.47 71.2391803,27.1514098 71.4515738,26.5128852 C71.5940656,26.0975082 71.6639672,25.42 71.6639672,24.4776721 L71.6639672,24.4776721 Z" id="Fill-10" fill="#000000"></path>
                <path d="M80.0346885,24.569082 L76.0234098,24.569082 L76.0234098,25.0852787 C76.0234098,25.8649508 76.0946557,26.4268525 76.2371475,26.7709836 C76.4387869,27.2670164 76.834,27.5157049 77.4214426,27.5157049 C78.3019344,27.5157049 78.7630164,26.9538033 78.8033443,25.83 L79.9889836,25.83 C79.9177377,27.5304918 79.0627869,28.3814098 77.4214426,28.3814098 C76.3581311,28.3814098 75.629541,28.0224918 75.2343279,27.3033115 C74.9399344,26.7656066 74.7934098,25.8999016 74.7934098,24.7048525 C74.7934098,23.3484918 74.9197705,22.3765902 75.1738361,21.7891475 C75.5690492,20.8669836 76.3487213,20.4059016 77.5128525,20.4059016 C78.607082,20.4059016 79.3356721,20.8118689 79.6999672,21.622459 C79.9231148,22.1279016 80.0346885,22.9936066 80.0346885,24.2195738 L80.0346885,24.569082 L80.0346885,24.569082 Z M78.8194754,23.7477377 C78.8194754,23.0097377 78.7683934,22.4881639 78.6675738,22.1843607 C78.4847541,21.5767541 78.094918,21.2729508 77.4980656,21.2729508 C76.6673115,21.2729508 76.1968197,21.7689836 76.0852459,22.7610492 C76.044918,23.1051803 76.0234098,23.4345246 76.0234098,23.7477377 L78.8194754,23.7477377 L78.8194754,23.7477377 Z" id="Fill-11" fill="#000000"></path>
                <path d="M85.1388525,21.5767541 C85.0165246,21.5565902 84.9304918,21.5458361 84.8794098,21.5458361 C84.3027213,21.5458361 83.8698689,21.7232787 83.5808525,22.0781639 C83.2931803,22.4317049 83.148,22.903541 83.148,23.4896393 L83.148,28.2295082 L81.9327869,28.2295082 L81.9327869,21.970623 C81.9327869,21.4544262 81.918,20.9893115 81.887082,20.5739344 L83.0727213,20.5739344 L83.0727213,21.5767541 C83.4880984,20.8064918 84.1360328,20.4220328 85.0165246,20.4220328 C85.0971803,20.4220328 85.1388525,20.8064918 85.1388525,21.5767541" id="Fill-12" fill="#000000"></path>
                <path d="M91.1382951,28.2295082 L89.9687869,28.2295082 L89.954,27.2266885 C89.436459,27.9767869 88.7535738,28.3504918 87.9026557,28.3504918 C87.2547213,28.3504918 86.7533115,28.1380984 86.3984262,27.7133115 C86.0852131,27.3073443 85.9279344,26.7709836 85.9279344,26.1028852 C85.9279344,25.0194098 86.3433115,24.2894754 87.1740656,23.9157705 C87.7211803,23.6630492 88.6218361,23.5313115 89.877377,23.5205574 L89.877377,23.1858361 C89.877377,22.5580656 89.8262951,22.1225246 89.7254754,21.8805574 C89.5641639,21.4745902 89.2186885,21.2729508 88.693082,21.2729508 C88.3274426,21.2729508 88.0236393,21.3737705 87.7816721,21.5767541 C87.5383607,21.7783934 87.417377,22.0620328 87.417377,22.4263279 L87.417377,22.5029508 L86.2169508,22.5029508 L86.2169508,22.4263279 C86.2169508,21.7286557 86.4696721,21.207082 86.976459,20.8629508 C87.412,20.5591475 87.9994426,20.4059016 88.7387869,20.4059016 C89.6192787,20.4059016 90.2322623,20.6196393 90.5763934,21.0444262 C90.9003607,21.4288852 91.0630164,22.0674098 91.0630164,22.9586557 L91.0630164,25.7842951 C91.0630164,26.7051148 91.0872131,27.521082 91.1382951,28.2295082 L91.1382951,28.2295082 Z M89.877377,25.2680984 L89.877377,24.3553443 L89.5735738,24.3553443 C87.9739016,24.3553443 87.1740656,24.902459 87.1740656,25.9966885 C87.1740656,26.9793443 87.5477705,27.47 88.2978689,27.47 C88.8651475,27.47 89.2845574,27.2266885 89.5587869,26.7414098 C89.7711803,26.3556066 89.877377,25.8649508 89.877377,25.2680984 L89.877377,25.2680984 Z" id="Fill-13" fill="#000000"></path>
                <polygon id="Fill-14" fill="#000000" points="93.2958361 28.2295082 94.4962623 28.2295082 94.4962623 17.2468852 93.2958361 17.2468852"></polygon>
                <path d="M106.798951,20.1935082 L105.477541,20.1935082 L105.477541,19.9959016 C105.477541,18.7107869 104.900852,18.0668852 103.746131,18.0668852 C102.803803,18.0668852 102.186787,18.5481311 101.892393,19.510623 C101.720328,20.0873115 101.634295,21.161377 101.634295,22.7301311 C101.634295,24.3808852 101.720328,25.4804918 101.892393,26.0262623 C102.176033,26.9484262 102.814557,27.4095082 103.806623,27.4095082 C104.424984,27.4095082 104.972098,27.3033115 105.447967,27.090918 L105.447967,23.4896393 L103.548525,23.4896393 L103.548525,22.4720328 L106.708885,22.4720328 L106.708885,27.9404918 C105.746393,28.264459 104.789279,28.4271148 103.837541,28.4271148 C102.298361,28.4271148 101.284787,27.9001639 100.799508,26.8476066 C100.464787,26.1176721 100.298098,24.7707213 100.298098,22.8067541 C100.298098,20.8414426 100.470164,19.4743279 100.814295,18.7054098 C101.300918,17.5910164 102.27282,17.0344918 103.731344,17.0344918 C105.775967,17.0344918 106.798951,18.0373115 106.798951,20.0416066 L106.798951,20.1935082" id="Fill-15" fill="#000000"></path>
                <path d="M113.908754,24.3553443 C113.908754,25.753377 113.751475,26.7414098 113.436918,27.3180984 C113.043049,28.0265246 112.303705,28.3814098 111.22023,28.3814098 C110.115246,28.3814098 109.377246,28.0265246 109.002197,27.3180984 C108.718557,26.7817377 108.576066,25.83 108.576066,24.4628852 C108.576066,23.1455082 108.727967,22.1937705 109.03177,21.6063279 C109.437738,20.8064918 110.197246,20.4059016 111.310295,20.4059016 C112.415279,20.4059016 113.149246,20.7755738 113.513541,21.514918 C113.777016,22.032459 113.908754,22.9788197 113.908754,24.3553443 L113.908754,24.3553443 Z M112.662623,25.1766885 L112.662623,24.0071803 C112.662623,23.1360984 112.611541,22.5325246 112.510721,22.1991475 C112.318492,21.5807869 111.908492,21.2729508 111.280721,21.2729508 C110.622033,21.2729508 110.186492,21.6009508 109.974098,22.2596393 C109.862525,22.6037705 109.80741,23.1965902 109.80741,24.0367541 L109.80741,25.1309836 C109.80741,25.8703279 109.867902,26.3972787 109.988885,26.7104918 C110.201279,27.2468525 110.616656,27.5157049 111.235016,27.5157049 C111.831869,27.5157049 112.237836,27.2576066 112.45023,26.7414098 C112.591377,26.3972787 112.662623,25.8757049 112.662623,25.1766885 L112.662623,25.1766885 Z" id="Fill-16" fill="#000000"></path>
                <polyline id="Fill-17" fill="#000000" points="120.71341 20.5739344 118.572 28.2295082 117.204885 28.2295082 115.078262 20.5739344 116.368754 20.5739344 117.933475 27.0142951 119.543902 20.5739344 120.71341 20.5739344"></polyline>
                <path d="M126.941377,24.569082 L122.931443,24.569082 L122.931443,25.0852787 C122.931443,25.8649508 123.002689,26.4268525 123.143836,26.7709836 C123.34682,27.2670164 123.742033,27.5157049 124.329475,27.5157049 C125.209967,27.5157049 125.671049,26.9538033 125.711377,25.83 L126.895672,25.83 C126.824426,27.5304918 125.969475,28.3814098 124.329475,28.3814098 C123.266164,28.3814098 122.53623,28.0224918 122.141016,27.3033115 C121.847967,26.7656066 121.701443,25.8999016 121.701443,24.7048525 C121.701443,23.3484918 121.827803,22.3765902 122.080525,21.7891475 C122.475738,20.8669836 123.25541,20.4059016 124.419541,20.4059016 C125.51377,20.4059016 126.242361,20.8118689 126.608,21.622459 C126.829803,22.1279016 126.941377,22.9936066 126.941377,24.2195738 L126.941377,24.569082 L126.941377,24.569082 Z M125.726164,23.7477377 C125.726164,23.0097377 125.675082,22.4881639 125.574262,22.1843607 C125.392787,21.5767541 125.002951,21.2729508 124.404754,21.2729508 C123.574,21.2729508 123.103508,21.7689836 122.991934,22.7610492 C122.951607,23.1051803 122.931443,23.4345246 122.931443,23.7477377 L125.726164,23.7477377 L125.726164,23.7477377 Z" id="Fill-18" fill="#000000"></path>
                <path d="M132.045541,21.5767541 C131.923213,21.5565902 131.838525,21.5458361 131.787443,21.5458361 C131.20941,21.5458361 130.776557,21.7232787 130.488885,22.0781639 C130.199869,22.4317049 130.056033,22.903541 130.056033,23.4896393 L130.056033,28.2295082 L128.84082,28.2295082 L128.84082,21.970623 C128.84082,21.4544262 128.824689,20.9893115 128.795115,20.5739344 L129.97941,20.5739344 L129.97941,21.5767541 C130.394787,20.8064918 131.042721,20.4220328 131.923213,20.4220328 C132.005213,20.4220328 132.045541,20.8064918 132.045541,21.5767541" id="Fill-19" fill="#000000"></path>
                <path d="M138.623016,28.2295082 L137.42259,28.2295082 L137.42259,23.3377377 C137.42259,22.6803934 137.376885,22.2287213 137.285475,21.9867541 C137.11341,21.540459 136.763902,21.3173115 136.238295,21.3173115 C135.722098,21.3173115 135.321508,21.571377 135.037869,22.0781639 C134.805311,22.5123607 134.688361,23.0299016 134.688361,23.6267541 L134.688361,28.2295082 L133.487934,28.2295082 L133.487934,22.2448525 C133.487934,21.566 133.46777,21.0094754 133.427443,20.5739344 L134.613082,20.5739344 L134.613082,21.622459 C135.037869,20.8118689 135.70059,20.4059016 136.60259,20.4059016 C137.949541,20.4059016 138.623016,21.2017049 138.623016,22.7919672 L138.623016,28.2295082" id="Fill-20" fill="#000000"></path>
                <path d="M149.316623,28.2295082 L148.116197,28.2295082 L148.116197,23.0796393 C148.116197,22.5231148 148.066459,22.1279016 147.964295,21.8953443 C147.812393,21.5202951 147.50859,21.3334426 147.052885,21.3334426 C146.15223,21.3334426 145.701902,22.027082 145.701902,23.4143607 L145.701902,28.2295082 L144.501475,28.2295082 L144.501475,23.0191475 C144.501475,22.4827869 144.461148,22.1077377 144.380492,21.8953443 C144.238,21.5202951 143.92882,21.3334426 143.452951,21.3334426 C142.997246,21.3334426 142.647738,21.5565902 142.40577,22.001541 C142.192033,22.3967541 142.085836,22.9075738 142.085836,23.5353443 L142.085836,28.2295082 L140.88541,28.2295082 L140.88541,21.8953443 C140.88541,21.4396393 140.865246,20.9987213 140.824918,20.5739344 L142.025344,20.5739344 L142.025344,21.5767541 C142.429967,20.7957377 143.033541,20.4059016 143.833377,20.4059016 C144.704459,20.4059016 145.270393,20.7957377 145.533869,21.5767541 C145.980164,20.7957377 146.613311,20.4059016 147.433311,20.4059016 C148.132328,20.4059016 148.628361,20.6344262 148.92141,21.0901311 C149.184885,21.4853443 149.316623,22.1279016 149.316623,23.0191475 L149.316623,28.2295082" id="Fill-21" fill="#000000"></path>
                <path d="M156.516492,24.569082 L152.506557,24.569082 L152.506557,25.0852787 C152.506557,25.8649508 152.577803,26.4268525 152.718951,26.7709836 C152.921934,27.2670164 153.317148,27.5157049 153.90459,27.5157049 C154.785082,27.5157049 155.246164,26.9538033 155.286492,25.83 L156.470787,25.83 C156.400885,27.5304918 155.54459,28.3814098 153.90459,28.3814098 C152.841279,28.3814098 152.111344,28.0224918 151.716131,27.3033115 C151.423082,26.7656066 151.276557,25.8999016 151.276557,24.7048525 C151.276557,23.3484918 151.402918,22.3765902 151.655639,21.7891475 C152.050852,20.8669836 152.830525,20.4059016 153.994656,20.4059016 C155.088885,20.4059016 155.817475,20.8118689 156.183115,21.622459 C156.404918,22.1279016 156.516492,22.9936066 156.516492,24.2195738 L156.516492,24.569082 L156.516492,24.569082 Z M155.301279,23.7477377 C155.301279,23.0097377 155.251541,22.4881639 155.149377,22.1843607 C154.967902,21.5767541 154.578066,21.2729508 153.979869,21.2729508 C153.149115,21.2729508 152.678623,21.7689836 152.567049,22.7610492 C152.526721,23.1051803 152.506557,23.4345246 152.506557,23.7477377 L155.301279,23.7477377 L155.301279,23.7477377 Z" id="Fill-22" fill="#000000"></path>
                <path d="M163.564459,28.2295082 L162.365377,28.2295082 L162.365377,23.3377377 C162.365377,22.6803934 162.319672,22.2287213 162.228262,21.9867541 C162.056197,21.540459 161.706689,21.3173115 161.179738,21.3173115 C160.663541,21.3173115 160.264295,21.571377 159.980656,22.0781639 C159.746754,22.5123607 159.631148,23.0299016 159.631148,23.6267541 L159.631148,28.2295082 L158.430721,28.2295082 L158.430721,22.2448525 C158.430721,21.566 158.410557,21.0094754 158.37023,20.5739344 L159.554525,20.5739344 L159.554525,21.622459 C159.980656,20.8118689 160.643377,20.4059016 161.544033,20.4059016 C162.890984,20.4059016 163.564459,21.2017049 163.564459,22.7919672 L163.564459,28.2295082" id="Fill-23" fill="#000000"></path>
                <path d="M168.790951,28.2295082 C168.415902,28.2698361 168.121508,28.29 167.909115,28.29 C167.220852,28.29 166.750361,28.1434754 166.496295,27.849082 C166.283902,27.5869508 166.177705,27.1057049 166.177705,26.4066885 L166.177705,21.4544262 L165.039115,21.4544262 L165.039115,20.5739344 L166.177705,20.5739344 L166.177705,19.1611148 L167.378131,18.6287869 L167.378131,20.5739344 L168.745246,20.5739344 L168.745246,21.4544262 L167.378131,21.4544262 L167.378131,26.2695738 C167.378131,26.6957049 167.438623,26.9806885 167.559607,27.1285574 C167.681934,27.275082 167.909115,27.3490164 168.243836,27.3490164 C168.304328,27.3490164 168.487148,27.3275082 168.790951,27.2871803 L168.790951,28.2295082" id="Fill-24" fill="#000000"></path>
            </g>
        </g>
    </g>
</svg>