<svg id="Ebene_1" xmlns="http://www.w3.org/2000/svg" viewBox="0 0 170 82" width="170" height="82"><style>.st0{fill:red}.st1{fill:#fc0}</style><path d="M54.3 92v11h2.1c.9 0 1.7-.1 2.3-.3.7-.2 1.2-.5 1.7-.9.4-.4.8-1 1-1.6.2-.7.3-1.5.3-2.4 0-1-.1-1.9-.4-2.6-.3-.7-.6-1.3-1.1-1.8-.5-.5-1-.8-1.7-1-.7-.2-1.4-.3-2.3-.3h-1.9zm1.4 9.9v-8.8h.5c.6 0 1.2.1 1.7.2.5.2.9.4 1.2.8.3.4.6.8.8 1.4.2.6.3 1.3.3 2.2 0 .8-.1 1.4-.3 2-.2.5-.4 1-.7 1.3-.3.3-.7.6-1.2.7-.5.1-1 .2-1.6.2h-.7zm9-9.9h-1.3v7.7h1.3V92zm-.6 9.5c-.3 0-.5.1-.6.3-.2.2-.2.4-.2.7 0 .3.1.5.2.7.2.2.4.3.6.3.3 0 .5-.1.6-.3.2-.2.2-.4.2-.7 0-.3-.1-.5-.2-.7-.1-.2-.3-.3-.6-.3zm7.6-4.5v-.9c0-.2 0-.5-.1-.6h-3.9c0-.9.2-1.6.6-2 .3-.4.8-.6 1.5-.6.2 0 .4 0 .6.1.2.1.3.1.5.2.1.1.2.1.3.2.1.1.2.1.2.2l.5-.9-.2-.2c-.1-.1-.3-.2-.4-.3-.2-.1-.4-.2-.7-.3-.3-.1-.6-.1-.9-.1-.5 0-.9.1-1.3.2-.4.2-.7.4-1 .7-.3.3-.5.8-.6 1.3-.1.5-.2 1.1-.2 1.9 0 .7.1 1.3.2 1.8.2.5.4.9.6 1.2.3.3.6.6.9.7.4.2.7.2 1.1.2.7 0 1.3-.2 1.7-.7.3-.4.6-1.1.6-2.1zm-2.5 1.8c-.5 0-.8-.2-1.1-.6s-.4-.9-.5-1.7h2.8v.5c0 .5-.1.9-.3 1.2-.2.4-.5.6-.9.6zM60.1 84c0-.4 0-.7-.1-1-.1-.3-.2-.5-.4-.7-.2-.2-.4-.4-.6-.5-.2-.1-.4-.2-.7-.3.3-.1.6-.2.8-.3.3-.1.5-.3.7-.6.2-.2.3-.5.4-.8.1-.3.2-.6.2-1s-.1-.8-.2-1.2c-.1-.4-.4-.7-.7-.9-.3-.3-.7-.5-1.2-.6-.5-.1-1.1-.2-1.7-.2h-2.3v11h2.1c.7 0 1.2-.1 1.7-.2s.8-.3 1.1-.6.5-.5.6-.9c.2-.3.3-.7.3-1.2zm-1.4 0c0 .5-.2.9-.5 1.3-.4.3-.9.5-1.7.5h-.7V82h.7c.7 0 1.3.2 1.7.5.3.3.5.8.5 1.5zm.2-5.1c0 .6-.2 1.1-.6 1.4-.4.3-.9.5-1.7.5h-.9V77h.9c.8 0 1.4.2 1.8.5.3.3.5.8.5 1.4zm8.6-3.1h-1.2v.9c0-.1-.1-.2-.2-.3l-.4-.4-.6-.3c-.2-.1-.5-.1-.8-.1-.3 0-.6.1-.9.2-.3.1-.5.3-.7.5-.2.2-.3.5-.4.9-.1.4-.2.8-.2 1.3v5h1.3v-4.9c0-.6.1-1.1.3-1.4.2-.3.5-.4 1-.4.4 0 .7.1.9.3.3.2.5.4.6.6v5.9h1.3v-7.8zm6.2 0v4.9c0 .7-.1 1.1-.3 1.4-.2.3-.6.4-1 .4s-.7-.1-1-.3c-.3-.2-.5-.4-.6-.6v-5.9h-1.3v7.7h1.2v-.9c0 .1.1.2.2.3l.4.4.6.3c.2.1.5.1.8.1.3 0 .7-.1.9-.2.3-.1.5-.3.7-.5s.3-.5.4-.9c.1-.4.2-.8.2-1.3v-5h-1.2zm2.8 3.7c0 .8.1 1.4.3 2 .2.5.5.9.8 1.3.3.3.7.5 1.1.7.4.1.8.2 1.2.2.2 0 .5 0 .6-.1.2 0 .3-.1.4-.1v3.7l1.3.1V75.8H81v.8c0-.1-.1-.2-.2-.3-.1-.1-.2-.2-.4-.3-.1-.1-.3-.2-.6-.3-.2-.1-.5-.1-.8-.1-.4 0-.7.1-1 .2-.3.1-.6.4-.9.7-.2.3-.4.7-.6 1.2.1.5 0 1.1 0 1.8zm3.1-2.7c.2 0 .4 0 .5.1.2.1.3.1.4.2.1.1.2.2.3.2.1.1.1.2.2.2v4.7c-.1.1-.3.1-.4.2-.2.1-.3.1-.6.1s-.6-.1-.8-.2c-.3-.1-.5-.3-.7-.5-.2-.2-.3-.5-.5-.9-.1-.4-.2-.8-.2-1.4 0-.5 0-1 .1-1.3.1-.4.2-.6.4-.9.2-.2.3-.4.5-.5h.8zm9.6 4.1V80c0-.2 0-.5-.1-.6h-3.9c0-.9.2-1.6.6-2 .3-.4.8-.6 1.5-.6.2 0 .4 0 .6.1.2.1.3.1.5.2.1.1.2.1.3.2.1.1.2.1.2.2l.5-.9-.2-.2c-.1-.1-.3-.2-.4-.3-.2-.1-.4-.2-.7-.3-.3-.1-.6-.1-.9-.1-.5 0-.9.1-1.3.2-.4.2-.7.4-1 .7-.3.3-.5.8-.6 1.3-.3.5-.3 1.1-.3 1.8s.1 1.3.2 1.8c.2.5.4.9.6 1.2.3.3.6.6.9.7.4.2.7.2 1.1.2.7 0 1.3-.2 1.7-.7.5-.4.7-1.1.7-2zm-2.4 1.7c-.5 0-.8-.2-1.1-.6s-.4-.9-.5-1.7H88v.5c0 .5-.1.9-.3 1.2-.2.5-.5.6-.9.6zm7.5-.7c-.1.1-.2.2-.5.4-.2.2-.5.2-.9.2-.3 0-.6-.1-.8-.2-.2-.2-.3-.4-.3-.6 0-.3.1-.5.2-.7.2-.2.4-.4.8-.6l.5-.3c.5-.3.9-.6 1.2-1 .3-.4.4-.8.4-1.4 0-.6-.2-1.1-.6-1.5-.4-.4-1-.6-1.8-.6-.3 0-.6 0-.8.1s-.4.1-.6.2c-.2.1-.3.2-.4.3l-.3.3.6 1 .2-.2c.1-.1.2-.2.3-.2.1-.1.3-.1.4-.2.2-.1.3-.1.6-.1.4 0 .7.1.9.3.2.2.3.4.3.6 0 .2 0 .3-.1.5 0 .1-.1.3-.2.4-.1.1-.2.2-.4.3-.1.1-.3.2-.5.3l-.5.3c-.5.3-.9.6-1.1 1-.3.3-.4.8-.4 1.3 0 .3.1.6.2.8.1.2.3.4.5.6.2.2.4.3.7.4.3.1.6.2.9.2.3 0 .6 0 .8-.1.2-.1.4-.1.6-.2.2-.1.3-.2.4-.3l.2-.2-.5-1.1zm5.6.5s-.1 0-.2.1h-.4c-.4 0-.7-.1-1-.3-.2-.2-.4-.5-.5-.7v-5.6h-1.3v7.7h1.2v-1c.1.1.1.3.2.4.1.1.2.3.3.4s.3.2.5.3c.2.1.4.1.6.1h.4c.1 0 .2-.1.3-.1l-.1-1.3zm6.1-1.5V80c0-.2 0-.5-.1-.6H102c0-.9.2-1.6.6-2 .3-.4.8-.6 1.5-.6.2 0 .4 0 .6.1.2.1.3.1.5.2.1.1.2.1.3.2.1.1.2.1.2.2l.5-.9-.2-.2c-.1-.1-.3-.2-.4-.3-.2-.1-.4-.2-.7-.3-.3-.1-.6-.1-.9-.1-.5 0-.9.1-1.3.2-.4.2-.7.4-1 .7s-.5.8-.6 1.3c-.1.5-.2 1.1-.2 1.9 0 .7.1 1.3.2 1.8.2.5.4.9.6 1.2.3.3.6.6.9.7.4.2.7.2 1.1.2.7 0 1.3-.2 1.7-.7.4-.5.6-1.2.6-2.1zm-2.5 1.7c-.5 0-.8-.2-1.1-.6s-.4-.9-.5-1.7h2.8v.5c0 .5-.1.9-.3 1.2-.2.5-.5.6-.9.6zm9.7-.1h-1c.2-.4.4-.9.4-1.4 0-.4-.1-.8-.2-1.1-.1-.3-.3-.6-.6-.8-.2-.2-.5-.4-.8-.5-.3-.1-.7-.2-1-.2h-.4c-.1-.1-.3-.1-.4-.3-.1-.1-.2-.3-.2-.5s.1-.3.2-.4c.1-.1.3-.2.6-.2h1c.4 0 .7 0 1-.1.3-.1.6-.2.8-.4.2-.2.4-.4.5-.6.1-.3.2-.6.2-.9 0-.4-.1-.8-.3-1.1-.2-.3-.4-.6-.7-.9-.3-.2-.7-.4-1.2-.6-.5-.1-1-.2-1.5-.2-.8 0-1.4.2-1.9.5-.4.4-.6.9-.6 1.5 0 .3.1.5.2.7.1.2.2.4.4.5.1.2.3.3.4.4.1.1.3.2.3.2-.3.2-.5.6-.5 1.1 0 .2 0 .4.1.5.1.1.2.3.3.4.1.1.2.2.3.2.1.1.2.1.2.1-.4.2-.7.5-1 .9-.2.4-.4.9-.4 1.5 0 .4.1.8.2 1.1.1.3.3.6.6.8s.5.4.8.5c.3.1.7.2 1 .2.4 0 .7-.1 1-.2h2.3l-.1-.7zm-3.6-6.5h-.6c-.1-.1-.2-.1-.3-.2-.1-.1-.2-.2-.2-.3-.1-.1-.1-.2-.2-.4 0-.1-.1-.3-.1-.5 0-.8.5-1.2 1.4-1.2.8 0 1.4.2 1.7.5.4.3.6.7.6 1 0 .4-.1.6-.4.8-.2.2-.5.2-.9.2h-1zm1.7 5.1c0 .6-.1.9-.4 1.2-.3.2-.6.4-.9.4-.4 0-.7-.1-1-.4-.3-.2-.4-.6-.4-1.2s.1-.9.4-1.2c.3-.2.6-.4.9-.4.4 0 .7.1 1 .4.3.3.4.7.4 1.2zm4.7-5.3h-1.3v7.7h1.3v-7.7zm-.7 9.6c-.3 0-.5.1-.6.3-.2.2-.2.4-.2.7 0 .3.1.5.2.7.2.2.4.3.6.3.3 0 .5-.1.6-.3.2-.2.2-.4.2-.7 0-.3-.1-.5-.2-.7-.1-.3-.3-.3-.6-.3zm7.6-4.5V80c0-.2 0-.5-.1-.6h-3.9c0-.9.2-1.6.6-2 .3-.4.8-.6 1.5-.6.2 0 .4 0 .6.1.2.1.3.1.5.2.1.1.2.1.3.2.1.1.2.1.2.2l.5-.9-.2-.2c-.1-.1-.3-.2-.4-.3-.2-.1-.4-.2-.7-.3-.3-.1-.6-.1-.9-.1-.5 0-.9.1-1.3.2-.4.2-.7.4-1 .7s-.5.8-.6 1.3c-.1.5-.2 1.1-.2 1.9 0 .7.1 1.3.2 1.8.2.5.4.9.6 1.2.3.3.6.6.9.7.4.2.7.2 1.1.2.7 0 1.3-.2 1.7-.7.4-.5.6-1.2.6-2.1zm-2.5 1.7c-.5 0-.8-.2-1.1-.6-.3-.4-.4-.9-.5-1.7h2.8v.5c0 .5-.1.9-.3 1.2-.1.5-.4.6-.9.6zm7.6-.2s-.1 0-.2.1h-.4c-.4 0-.7-.1-1-.3-.2-.2-.4-.5-.5-.7v-5.6h-1.3v7.7h1.2v-1c.1.1.1.3.2.4.1.1.2.3.3.4s.3.2.5.3c.2.1.4.1.6.1h.4c.1 0 .2-.1.3-.1l-.1-1.3zm6.6-6.6h-1.2v.9c0-.1-.1-.2-.2-.3l-.4-.4-.6-.3c-.2-.1-.5-.1-.8-.1-.3 0-.6.1-.9.2-.3.1-.5.3-.7.5-.2.2-.3.5-.4.9-.1.4-.2.8-.2 1.3v5h1.3v-4.9c0-.6.1-1.1.3-1.4.2-.3.5-.4 1-.4.4 0 .7.1.9.3.3.2.5.4.6.6v5.9h1.3v-7.8zm6.2 0v4.9c0 .7-.1 1.1-.3 1.4-.2.3-.6.4-1 .4s-.7-.1-1-.3c-.3-.2-.5-.4-.6-.6v-5.9h-1.3v7.7h1.2v-.9c0 .1.1.2.2.3l.4.4.6.3c.2.1.5.1.8.1.3 0 .7-.1.9-.2.3-.1.5-.3.7-.5.2-.2.3-.5.4-.9.1-.4.2-.8.2-1.3v-5h-1.2zm8.8 6.7h-1c.2-.4.4-.9.4-1.4 0-.4-.1-.8-.2-1.1-.1-.3-.3-.6-.6-.8-.2-.2-.5-.4-.8-.5-.3-.1-.7-.2-1-.2h-.4c-.1-.1-.3-.1-.4-.3-.1-.1-.2-.3-.2-.5s.1-.3.2-.4c.1-.1.3-.2.6-.2h1c.4 0 .7 0 1-.1s.6-.2.8-.4c.2-.2.4-.4.5-.6.1-.3.2-.6.2-.9 0-.4-.1-.8-.3-1.1-.2-.3-.4-.6-.7-.9-.3-.2-.7-.4-1.2-.6-.5-.1-1-.2-1.5-.2-.8 0-1.4.2-1.9.5-.4.4-.6.9-.6 1.5 0 .3.1.5.2.7.1.2.2.4.4.5.1.2.3.3.4.4.1.1.3.2.3.2-.3.2-.5.6-.5 1.1 0 .2 0 .4.1.5.1.1.2.3.3.4.1.1.2.2.3.2.1.1.2.1.2.1-.4.2-.7.5-1 .9-.2.4-.4.9-.4 1.5 0 .4.1.8.2 1.1.1.3.3.6.6.8s.5.4.8.5c.3.1.7.2 1 .2s.7-.1 1-.2h2.3l-.1-.7zM146 76h-.6c-.1-.1-.2-.1-.3-.2-.1-.1-.2-.2-.2-.3-.1-.1-.1-.2-.2-.4 0-.1-.1-.3-.1-.5 0-.8.5-1.2 1.4-1.2.8 0 1.4.2 1.7.5.4.3.6.7.6 1 0 .4-.1.6-.4.8-.2.2-.5.2-.9.2h-1zm1.7 5.1c0 .6-.1.9-.4 1.2-.3.2-.6.4-.9.4-.4 0-.7-.1-1-.4-.3-.2-.4-.6-.4-1.2s.1-.9.4-1.2c.3-.2.6-.4.9-.4.4 0 .7.1 1 .4.3.3.4.7.4 1.2z" transform="matrix(1 0 0 -1 0 104)" id="Name"/><g id="Adler-und-Saeulenelement"><path d="M19 11.2c0-.3.1-.6.1-.9v-.6c2.7 0 5-2 5-4.2 0-1.1-.7-2-1.2-2.5.1 0 .2 0 .3-.1.4.3 1.5 1.6 1.5 3.1 0 2.6-2.7 5.1-5.7 5.2m-2.7-9.3c0-.3-.2-.6-.3-.8 0-.3.1-.5.6-.3-.2.2-.1.7-.1.7s.5-.2.4-.5c.6.1.1 1-.6.9m-.7 1.3c-.1-.4-.3-.8-.6-1.1-.2-.3-.6-.6-1.2-.6-.2 0-.6.1-.9.2-.1-.2-.3-.6-.3-.8 0-.2.3-.4 1-.4 1.4 0 2.2.6 2.2 1.7.1.4 0 .7-.2 1m3.6 17.9c.2 0 .2 0 .3.1.4 1.1 1.9 3.1 2 3.2.4-.1 1.3-.2 2.1-.2.1 0 .2 0 .3.1.1.1.1.1.1.3 0 .2-.1.5-.2.7-.3-.3-.7-.4-1.5-.4-.2 0-.5.1-.6.1h-.2l.4.4c.7.7 1.2 1.2 1.2 1.6 0 .2-.2.5-.4.7 0-.7-.7-1.6-1.4-2.1h-.1V26.5c0 1.3-.1 1.5-.6 1.5h-.2c.3-.3.4-.7.4-1.5v-.6c0-.3 0-.5.1-.7v-.1h-.1c-.2 0-.6-.1-.9-.1-.6 0-1.1.1-1.4.4-.2-.2-.4-.5-.4-.6 0-.3.2-.3.4-.3h.4c.3 0 .7.1 1.6.1h.1v-.1c-.2-.6-.8-1.5-1.8-2.7 0-.5.1-.7.4-.7m-8.3 3.3c.9.1 1.3 0 1.6-.1h.4c.2 0 .4 0 .4.3 0 .2-.2.5-.4.6-.3-.3-.8-.4-1.4-.4-.3 0-.7.1-.9.1v.1c0 .2.1.4.1.7v.6c0 .7.1 1.1.4 1.5h-.2c-.5 0-.6-.2-.6-1.5V25.4h-.1c-.7.5-1.4 1.4-1.4 2.1-.2-.1-.4-.4-.4-.7 0-.4.6-.9 1.2-1.6l.1-.2h-.1c-.1 0-.4-.1-.6-.1-.7 0-1.2.1-1.5.4-.1-.1-.2-.5-.2-.7 0-.1 0-.2.1-.3.1-.1.2-.1.3-.1.8 0 1.8.1 2.1.2.1-.1 1.6-2.1 2-3.2.1 0 .2-.1.3-.1.3 0 .4.2.5.5-.9 1.2-1.5 2.1-1.7 2.8M6.7 6c0-1.5 1.1-2.7 1.5-3.1.1 0 .2 0 .3.1-.4.5-1.1 1.3-1.1 2.4 0 2.2 2.4 4.2 5.1 4.2v.6c0 .3 0 .6.1.9-3.2 0-5.9-2.5-5.9-5.1m20.6 4.7c1.4 2.2 2.5 2.1 4.1 2.1-1.3-1-2.2-2.4-2.7-3l-2.5-4c-.2-1.2-.9-2.4-1.9-3.3.3-.1.6-.3.8-.4-1.6 0-3.3-.8-4.2-.8-.6 0-.9.3-.9.8s.6 1 1.5 1c.2 0 .5 0 .8-.1.5.7.9 1.4.9 2.3 0 1.8-2.1 3.1-4.2 3.1h-.4c-.2-.4-.8-1.2-.8-2 0-1.4.9-2.5.9-3.9 0-.9-.4-1.4-.6-1.6.3-.2.5-.5.6-.7-.2.1-.3.1-.6.1-1 0-1.9-.3-2.7-.3-.3 0-.4.1-.4.3v.1c-.2-.1-.3-.1-.5-.1s-.5-.1-.8-.1c-1 0-1.3.4-1.3.8 0 .3.2.8.5 1.3.4-.2.8-.3 1.1-.3.5 0 1 .5 1.2 1.1-.4-.1-.5-.1-.8-.1-1 0-1.6-.3-1.7-.3 0 .1.3.5.8.7.7.3 1.8.4 1.9.4 0 0-.2.4-.4.4h-.1c-.8-.1-1-.2-1.9-.5 0 .4 1 1.2 1.8 1.5-.7.9-1.6 1.9-2 3.3h-.4c-2.1 0-4.2-1.4-4.2-3.1 0-.9.4-1.6.9-2.3.3.1.6.1.8.1 1 0 1.5-.5 1.5-1s-.4-.8-.9-.8c-.9 0-2.5.8-4.2.8.1.1.4.2.7.3-1 .9-1.6 2-1.8 3.3l-2.5 4c-.4.7-1.3 2-2.7 3 1.6 0 2.7 0 4.1-2.1l1.3-2.1c.1.3.2.5.4.8l-2.6 4.1c-.4.7-1.3 2-2.7 3 1.6 0 2.7 0 4.1-2.1l2.2-3.5c.2.1.3.3.5.5l-3.1 5c-.4.7-1.3 2-2.7 3 1.6 0 2.7 0 4.1-2.1l3-4.9c.2.1.4.2.6.4l-3.7 5.9c-.4.7-1.3 2-2.7 3 1.6 0 2.7 0 4.1-2.1l3.8-6.1c.2.1.5.2.7.2l-4.3 6.9c-.4.7-1.3 2-2.7 3 1.6 0 2.7 0 4.1-2.1l4.6-7.4h.1c.1.4.2.8.2 1.1 0 2.3-1.5 4.4-3.3 5.9.1.1.3.1.5.1h.8c-.4 1-1.3 2.2-1.8 2.8-.6-.1-1.5-.2-2-.2-.6 0-.7.3-.7.7 0 .5.3 1 .5 1.2.1-.3.3-.6 1.4-.6h.1c-.3.4-1.3 1.2-1.3 1.8 0 .4.5 1.1 1.1 1.1v-.4c0-.5.5-1.2.9-1.6v.3c0 1.3.1 1.8.9 1.8.4 0 .7-.2.8-.3-.5-.5-.5-.8-.5-1.6v-.6-.5h.6s1.1-.1 1.4.5c.3-.3.8-.7.8-1.1 0-.3-.1-.6-.7-.6-.2 0-.9.1-1.5.1.2-.3.8-1.4 1.5-2.1.1.3.2.6.5.8 0-.5.3-2 1.1-2.8.1.6.2 1.2.2 2.5 0 3.1-.7 5.4-2.3 5.9.2.4.6.7 1.1.7.6 0 .9-.7 1.2-1.3.2.5.6 1.6 1.1 1.6s.9-1.1 1.1-1.6c.3.6.6 1.3 1.2 1.3.5 0 .9-.3 1.1-.7-1.6-.4-2.3-2.7-2.3-5.9 0-1.3.1-1.9.2-2.5.7.9 1 2.4 1.1 2.8.3-.3.5-.6.5-.8.6.7 1.3 1.8 1.5 2.1-.6 0-1.3-.1-1.5-.1-.6 0-.7.3-.7.6 0 .4.4.8.8 1.1.3-.6 1.4-.5 1.4-.5h.6v1.1c0 .7 0 1.1-.5 1.6.1.1.4.3.8.3.8 0 .9-.6.9-1.8V26c.4.4.9 1.1.9 1.6v.4c.6 0 1.1-.6 1.1-1.1 0-.7-1-1.5-1.3-1.8h.1c1.1 0 1.3.4 1.4.6.3-.2.5-.7.5-1.2 0-.3-.1-.7-.7-.7s-1.4.1-2 .2c-.5-.6-1.4-1.9-1.8-2.8h.8c.2 0 .4 0 .5-.1-1.8-1.6-3.3-3.6-3.3-5.9 0-.4.1-.7.2-1.1h.1l4.6 7.4c1.4 2.2 2.5 2.1 4.1 2.1-1.3-1-2.2-2.4-2.7-3l-4.3-6.9c.2-.1.5-.2.7-.2l3.8 6.1c1.4 2.2 2.5 2.1 4.1 2.1-1.4-1-2.2-2.3-2.7-3l-3.7-5.9c.2-.1.4-.2.6-.4l3 4.9c1.4 2.2 2.5 2.1 4.1 2.1-1.4-1-2.2-2.3-2.7-3l-3.1-5c.2-.2.4-.3.5-.5l2.2 3.5c1.4 2.2 2.5 2.1 4.1 2.1-1.4-1-2.2-2.3-2.7-3l-2.6-4.1c.1-.3.3-.5.4-.8l1.1 2.1zm17 17.5h-4.7V1.3h4.7v26.9z"/><path class="st0" d="M44.3 55.1h-4.7V28.2h4.7v26.9z"/><path class="st1" d="M44.3 82h-4.7V55.1h4.7V82z"/></g></svg>