<?xml version="1.0" encoding="UTF-8" standalone="no"?>
<svg width="145px" height="82px" viewBox="0 0 145 82" version="1.1" xmlns="http://www.w3.org/2000/svg" xmlns:xlink="http://www.w3.org/1999/xlink">
    <!-- Generator: Sketch 39.1 (31720) - http://www.bohemiancoding.com/sketch -->
    <title>brandmark_government_de_l</title>
    <desc>Created with Sketch.</desc>
    <defs></defs>
    <g id="Symbols" stroke="none" stroke-width="1" fill="none" fill-rule="evenodd">
        <g id="brandmark_government_de_l">
            <g id="logo-gut-leben-in-deutschland" transform="translate(0.000000, 18.000000)">
                <g id="Group" transform="translate(50.451381, 4.845706)" fill="#000000">
                    <path d="M7.75269555,9.44589614 C7.43957666,9.72452423 6.54346403,10.3795022 4.67836457,10.3795022 C2.04448215,10.3795022 0.0664676924,9.05581681 0.0664676924,5.36338887 C0.0664676924,1.96331853 2.52897557,0.430460212 5.00509732,0.430460212 C6.77009484,0.430460212 7.62456506,1.16943037 7.88082604,1.37779573 L7.21214504,2.78547331 C6.95588405,2.56337845 6.3152316,2.00531465 5.11961395,2.00531465 C3.46753142,2.00531465 2.07331151,3.0091834 2.07331151,5.36338887 C2.07331151,7.80158658 3.14079867,8.80464772 4.94823942,8.80464772 C5.33183007,8.80464772 5.67377832,8.76345922 5.97328335,8.69319648 L5.97328335,6.58854486 L4.2787576,6.58854486 L4.2787576,5.08395316 L7.75189473,5.08395316 L7.75269555,9.44589614 L7.75269555,9.44589614 L7.75269555,9.44589614 Z" id="Shape"></path>
                    <path d="M17.3320514,6.18392841 C17.3320514,8.99928357 16.0507465,10.3786945 13.4609089,10.3786945 C10.8702706,10.3786945 9.71709614,9.08246819 9.71709614,6.18392841 L9.71709614,0.59682945 L11.623838,0.59682945 L11.623838,6.24046165 C11.623838,8.02368144 12.2364619,8.80464772 13.5313807,8.80464772 C14.8831574,8.80464772 15.4957813,8.05275568 15.4957813,6.24046165 L15.4957813,0.59682945 L17.3312506,0.59682945 L17.3312506,6.18392841 L17.3320514,6.18392841 L17.3320514,6.18392841 Z" id="Shape"></path>
                    <polygon id="Shape" points="26.6415324 2.12888015 23.7954339 2.12888015 23.7954339 10.2115177 21.8878912 10.2115177 21.8878912 2.12888015 19.0121625 2.12888015 19.0121625 0.59682945 26.7552482 0.59682945"></polygon>
                    <polygon id="Shape" points="34.6360743 0.59682945 34.6360743 8.67865936 38.5360461 8.67865936 38.4231311 10.2115177 32.7285316 10.2115177 32.7285316 0.59682945"></polygon>
                    <polygon id="Shape" points="45.7602034 2.12888015 42.0732485 2.12888015 42.0732485 4.59534448 45.4895277 4.59534448 45.4895277 6.1282028 42.0732485 6.1282028 42.0732485 8.67785174 46.2294813 8.67785174 46.1157655 10.2107101 40.164905 10.2107101 40.164905 0.59682945 45.8731184 0.59682945"></polygon>
                    <path d="M52.6976687,5.25113002 L52.6976687,5.27939664 C53.6234115,5.45949537 54.7333419,6.17100653 54.7333419,7.50842137 C54.7333419,9.09619769 53.5233095,10.2115177 50.7052395,10.2115177 L48.2571463,10.2115177 L48.2571463,0.59682945 L50.577109,0.59682945 C53.4520369,0.59682945 54.4618654,1.57243158 54.4618654,3.13355652 C54.4618654,4.51215986 53.5377242,4.99996093 52.6976687,5.25113002 L52.6976687,5.25113002 Z M50.577109,2.07396215 L50.1630874,2.07396215 L50.1630874,4.65187772 L50.5618935,4.65187772 C51.914471,4.65187772 52.539908,4.13581003 52.539908,3.27246675 C52.5407088,2.5334966 51.9857436,2.07396215 50.577109,2.07396215 L50.577109,2.07396215 Z M50.7909268,6.1007438 L50.1638882,6.1007438 L50.1638882,8.70692598 L50.7052395,8.70692598 C52.1571182,8.70692598 52.7689413,8.24658391 52.7689413,7.38324064 C52.7689413,6.56108586 52.0714309,6.1007438 50.7909268,6.1007438 L50.7909268,6.1007438 Z" id="Shape"></path>
                    <polygon id="Shape" points="62.4764276 2.12888015 58.7894727 2.12888015 58.7894727 4.59534448 62.2065528 4.59534448 62.2065528 6.1282028 58.7894727 6.1282028 58.7894727 8.67785174 62.9465064 8.67785174 62.8319897 10.2107101 56.8827309 10.2107101 56.8827309 0.59682945 62.5901434 0.59682945"></polygon>
                    <polygon id="Shape" points="72.5883258 10.2115177 70.9522596 10.2115177 66.9097426 4.20607277 66.8801124 4.20607277 66.8801124 10.2115177 64.9741714 10.2115177 64.9741714 0.59682945 66.6102376 0.59682945 70.6527546 6.56108586 70.681584 6.56108586 70.681584 0.59682945 72.5883258 0.59682945"></polygon>
                    <polygon id="Shape" points="80.4098915 1.94878141 79.2423024 1.94878141 79.2423024 0.59682945 83.4842225 0.59682945 83.4842225 1.94878141 82.3166334 1.94878141 82.3166334 8.86037334 83.4978364 8.86037334 83.4978364 10.2115177 79.2270869 10.2115177 79.2270869 8.86037334 80.4082899 8.86037334 80.4098915 1.94878141"></polygon>
                    <polygon id="Shape" points="93.2317496 10.2115177 91.5948826 10.2115177 87.5531664 4.20607277 87.5243371 4.20607277 87.5243371 10.2115177 85.6175952 10.2115177 85.6175952 0.59682945 87.2536614 0.59682945 91.2961784 6.56108586 91.3250078 6.56108586 91.3250078 0.59682945 93.2317496 0.59682945"></polygon>
                    <path d="M0.488497499,26.1232008 L0.488497499,16.5093202 L2.76841943,16.5093202 C6.38890663,16.5093202 8.04579405,17.8604645 8.04579405,21.1781579 C8.04579405,24.6468757 5.97328335,26.1240084 2.6434922,26.1240084 L0.488497499,26.1240084 L0.488497499,26.1232008 Z M2.3399831,18.055908 L2.3399831,24.5782282 L2.64429302,24.5782282 C4.90980027,24.5782282 6.11262526,23.6438146 6.11262526,21.1781579 C6.11262526,18.8643333 4.97947122,18.055908 2.76922025,18.055908 L2.3399831,18.055908 L2.3399831,18.055908 Z" id="Shape"></path>
                    <polygon id="Shape" points="15.0961743 18.0421785 11.5173295 18.0421785 11.5173295 20.5078352 14.832706 20.5078352 14.832706 22.0415011 11.5173295 22.0415011 11.5173295 24.5919577 15.5518384 24.5919577 15.440525 26.1240084 9.66584395 26.1240084 9.66584395 16.5093202 15.2066869 16.5093202"></polygon>
                    <path d="M24.4032529,22.0972268 C24.4032529,24.9117743 23.1595863,26.2919929 20.6458262,26.2919929 C18.1312654,26.2919929 17.0117252,24.9957665 17.0117252,22.0972268 L17.0117252,16.5093202 L18.8632108,16.5093202 L18.8632108,22.1521448 C18.8632108,23.9361722 19.4574159,24.7155232 20.7146964,24.7155232 C22.0272331,24.7155232 22.6222391,23.9636312 22.6222391,22.1521448 L22.6222391,16.5093202 L24.4040537,16.5093202 L24.4040537,22.0972268 L24.4032529,22.0972268 Z" id="Shape"></path>
                    <polygon id="Shape" points="33.1689802 18.0421785 30.4053656 18.0421785 30.4053656 26.1232008 28.55388 26.1232008 28.55388 18.0421785 25.7630377 18.0421785 25.7630377 16.5093202 33.2794927 16.5093202"></polygon>
                    <path d="M39.1606823,18.5711681 C38.9396572,18.3902617 38.3726797,17.9024606 37.4613516,17.9024606 C36.5764504,17.9024606 36.1760426,18.29254 36.1760426,18.7658039 C36.1760426,19.3650562 36.4515232,19.6574138 37.2259118,20.1314854 L38.2621672,20.7719262 C39.5618909,21.5803515 40.1280675,22.345973 40.1280675,23.5727442 C40.1280675,24.9101591 39.18791,26.2903776 36.8815611,26.2903776 C35.3471985,26.2903776 34.5463829,25.6208626 34.2284592,25.355964 L34.8362782,23.7956467 C35.1534011,24.1154633 35.8581188,24.7009861 36.8535326,24.7009861 C37.8345317,24.7009861 38.2909965,24.2826401 38.2909965,23.8093762 C38.2909965,23.1689354 38.0147152,22.8337741 37.2819689,22.345973 L36.2457136,21.648999 C34.9331769,20.7719262 34.3661994,20.0886816 34.3661994,18.8069924 C34.3661994,17.441311 35.5001543,16.3405281 37.4060953,16.3405281 C38.7458598,16.3405281 39.4369636,16.8703253 39.7404727,17.0932278 L39.1606823,18.5711681 L39.1606823,18.5711681 Z" id="Shape"></path>
                    <path d="M46.0997492,16.3421433 C47.7302097,16.3421433 48.5037975,17.0665764 48.7240218,17.2620198 L48.0745604,18.6688898 C47.798279,18.4177207 47.19046,17.9169978 46.1822332,17.9169978 C44.6350575,17.9169978 43.3905901,18.8780628 43.3905901,21.2621501 C43.3905901,23.7278068 44.4140324,24.7163308 46.0300782,24.7163308 C47.1768461,24.7163308 47.8126937,24.2293374 48.115402,23.9789759 L48.6135093,25.3026613 C48.3100002,25.5812893 47.56364,26.2919929 45.7674107,26.2919929 C43.252049,26.2919929 41.4430066,24.9255038 41.4430066,21.2888015 C41.4430066,17.7635504 43.7781848,16.3421433 46.0997492,16.3421433 L46.0997492,16.3421433 Z" id="Shape"></path>
                    <polygon id="Shape" points="57.681144 26.1232008 55.8288576 26.1232008 55.8288576 22.0398859 52.0297885 22.0398859 52.0297885 26.1232008 50.1783029 26.1232008 50.1783029 16.5093202 52.0297885 16.5093202 52.0297885 20.5078352 55.8288576 20.5078352 55.8288576 16.5093202 57.681144 16.5093202"></polygon>
                    <polygon id="Shape" points="61.7853238 16.5093202 61.7853238 24.5919577 65.570779 24.5919577 65.4602664 26.1240084 59.9338382 26.1240084 59.9338382 16.5093202 61.7853238 16.5093202"></polygon>
                    <path d="M73.1232706,26.1232008 L72.2936257,23.5323633 L69.3514293,23.5323633 L68.5217844,26.1232008 L66.669498,26.1232008 L70.1794726,16.5085126 L71.6305504,16.5085126 L75.1261104,26.1232008 L73.1232706,26.1232008 L73.1232706,26.1232008 Z M70.8441495,18.9063294 L70.816121,18.9063294 L69.7662518,22.1941409 L71.8932179,22.1941409 L70.8441495,18.9063294 L70.8441495,18.9063294 Z" id="Shape"></path>
                    <polygon id="Shape" points="83.8501952 26.1232008 82.2613771 26.1232008 78.3381816 20.1177559 78.3101531 20.1177559 78.3101531 26.1232008 76.4586675 26.1232008 76.4586675 16.5093202 78.0466848 16.5093202 81.9706811 22.4735766 81.9979088 22.4735766 81.9979088 16.5093202 83.8501952 16.5093202 83.8501952 26.1232008"></polygon>
                    <path d="M86.1381253,26.1232008 L86.1381253,16.5093202 L88.4180472,16.5093202 C92.0385344,16.5093202 93.6954219,17.8604645 93.6954219,21.1781579 C93.6954219,24.6468757 91.623712,26.1240084 88.29312,26.1240084 L86.1381253,26.1240084 L86.1381253,26.1232008 Z M87.9896109,18.055908 L87.9896109,24.5782282 L88.29312,24.5782282 C90.5594281,24.5782282 91.7614523,23.6438146 91.7614523,21.1781579 C91.7614523,18.8643333 90.6282982,18.055908 88.4172464,18.055908 L87.9896109,18.055908 L87.9896109,18.055908 Z" id="Shape"></path>
                </g>
                <g id="Group" transform="translate(50.451381, 36.342795)" fill="#000000">
                    <polygon id="Shape" points="7.33547063 8.33461424 6.53785833 8.33461424 4.78487304 2.3461293 4.76325102 2.3461293 2.97823311 8.33461424 2.18142162 8.33461424 0.193797368 0.863343277 1.17159318 0.863343277 2.61706529 6.84052157 2.63788649 6.84052157 4.39087178 0.863343277 5.25254933 0.863343277 6.94227019 6.84052157 6.96309139 6.84052157 8.45100673 0.863343277 9.3855585 0.863343277"></polygon>
                    <path d="M12.5415727,5.44334302 L12.9668057,5.44334302 L12.9668057,5.04276466 C12.9668057,4.13257956 12.6160485,3.78611158 11.9577781,3.78611158 C11.3411501,3.78611158 10.9167179,4.07846918 10.6924895,4.262606 L10.3737649,3.61247379 C10.6404365,3.4073389 11.1601658,3.00595293 12.1163396,3.00595293 C13.2334773,3.00595293 13.8276825,3.66658417 13.8276825,5.04195704 L13.8276825,7.24998372 C13.8276825,7.69417344 13.8701257,8.19166591 13.8917477,8.332999 L13.0621028,8.332999 L13.0300702,7.75878285 L13.009249,7.75878285 C12.8282646,8.05114044 12.392621,8.46302545 11.5853989,8.46302545 C10.7453433,8.46302545 10.203992,7.85650459 10.203992,6.97943181 C10.2031912,5.90853079 11.2130196,5.44334302 12.5415727,5.44334302 L12.5415727,5.44334302 Z M12.9660049,7.19668096 L12.9660049,6.07086194 L12.4783082,6.09186 C11.510923,6.13627897 11.0648688,6.37371856 11.0648688,6.92612904 C11.0648688,7.43492817 11.4052154,7.71678673 11.7767938,7.71678673 C12.4566862,7.71597911 12.7754108,7.40262346 12.9660049,7.19668096 L12.9660049,7.19668096 Z" id="Shape"></path>
                    <path d="M18.4868275,4.21899465 C18.3058431,4.06797015 17.9230533,3.76430591 17.36008,3.76430591 C16.8067164,3.76430591 16.5416464,4.0017455 16.5416464,4.30460212 C16.5416464,4.71648713 16.7754846,4.89981634 17.3168359,5.1816749 L17.6996258,5.37711837 C18.4964373,5.78819576 18.9328817,6.23238547 18.9328817,6.98993084 C18.9328817,7.78058853 18.358697,8.46302545 17.1158312,8.46302545 C16.2653651,8.46302545 15.81851,8.1270565 15.5846718,7.90980735 L15.9033964,7.14095534 C16.126824,7.36870352 16.4984024,7.68205917 17.1150304,7.68205917 C17.7628902,7.68205917 18.0928262,7.43250531 18.0928262,7.09734399 C18.0928262,6.59904389 17.7741016,6.41571468 17.1999168,6.10155141 L16.8275376,5.89641653 C16.0939905,5.49583817 15.7328227,5.0629551 15.7328227,4.34740586 C15.7328227,3.57936146 16.413516,3.00514531 17.3801003,3.00514531 C18.1985339,3.00514531 18.5917343,3.35161328 18.7727186,3.50263779 L18.4868275,4.21899465 L18.4868275,4.21899465 Z" id="Shape"></path>
                    <path d="M27.8507639,8.33461424 L27.0531516,8.33461424 L27.0531516,7.74909144 L27.0323304,7.74909144 C26.8729681,7.94453491 26.4581457,8.46464068 25.4595286,8.46464068 C24.407257,8.46464068 23.833873,7.80400944 23.833873,6.3527205 L23.833873,3.1375946 L24.6947498,3.1375946 L24.6947498,6.21219503 C24.6947498,7.24109993 24.9918524,7.68528964 25.6821554,7.68528964 C26.4052918,7.68528964 26.7768703,7.32751502 26.9890864,7.12157252 L26.9890864,3.1375946 L27.8507639,3.1375946 L27.8507639,8.33542186 L27.8507639,8.33542186 L27.8507639,8.33461424 Z" id="Shape"></path>
                    <path d="M33.1313418,8.33461424 L33.1313418,5.25920619 C33.1313418,4.26422124 32.8334384,3.7869192 32.1111028,3.7869192 C31.4191981,3.7869192 31.0051765,4.13338718 30.7721391,4.34902109 L30.7721391,8.33461424 L29.9112624,8.33461424 L29.9112624,3.13678699 L30.7088747,3.13678699 L30.7088747,3.72230979 L30.7288951,3.72230979 C30.9307006,3.49375399 31.4304095,3.00676054 32.3137091,3.00676054 C33.3980134,3.00676054 33.9922186,3.69888888 33.9922186,5.11868072 L33.9922186,8.33380662 L33.1313418,8.33380662 L33.1313418,8.33461424 Z" id="Shape"></path>
                    <path d="M38.6497619,4.21899465 C38.4687776,4.06797015 38.0867886,3.76430591 37.5230144,3.76430591 C36.9704517,3.76430591 36.7045809,4.0017455 36.7045809,4.30460212 C36.7045809,4.71648713 36.938419,4.89981634 37.481372,5.1816749 L37.8625602,5.37711837 C38.6601725,5.78819576 39.096617,6.23238547 39.096617,6.98993084 C39.096617,7.78058853 38.5224322,8.46302545 37.2787657,8.46302545 C36.4282995,8.46302545 35.9822453,8.1270565 35.7476063,7.90980735 L36.0663309,7.14095534 C36.2897584,7.36870352 36.6621377,7.68205917 37.2787657,7.68205917 C37.9274263,7.68205917 38.2557607,7.43250531 38.2557607,7.09734399 C38.2557607,6.59904389 37.9386377,6.41571468 37.3636521,6.10155141 L36.9920737,5.89641653 C36.2585266,5.49583817 35.8981596,5.0629551 35.8981596,4.34740586 C35.8981596,3.57936146 36.578052,3.00514531 37.5446364,3.00514531 C38.3638708,3.00514531 38.7562704,3.35161328 38.9364539,3.50263779 L38.6497619,4.21899465 L38.6497619,4.21899465 Z" id="Shape"></path>
                    <polygon id="Shape" points="48.9418436 8.33461424 48.2403292 8.33461424 47.2200902 5.44334302 47.1984681 5.44334302 46.0933427 8.33461424 45.3718078 8.33461424 43.5331353 3.13678699 44.4476667 3.13678699 45.7650083 7.20717999 45.7866303 7.20717999 46.8597232 4.42493715 46.4032583 3.13678699 47.3169889 3.13678699 48.6351313 7.20717999 48.6567533 7.20717999 49.9636843 3.13678699 50.7821178 3.13678699"></polygon>
                    <path d="M52.7921649,1.88094153 C52.4518183,1.88094153 52.1867483,1.64269432 52.1867483,1.26392164 C52.1867483,0.884341336 52.4534199,0.635595098 52.7921649,0.635595098 C53.1325115,0.635595098 53.4087929,0.884341336 53.4087929,1.26392164 C53.4087929,1.6418867 53.1325115,1.88094153 52.7921649,1.88094153 L52.7921649,1.88094153 Z M53.217398,8.33461424 L52.3573221,8.33461424 L52.3573221,3.13678699 L53.217398,3.13678699 L53.217398,8.33461424 L53.217398,8.33461424 Z" id="Shape"></path>
                    <path d="M58.5652444,4.15438524 C58.4595367,4.06877777 58.0871575,3.77561256 57.5137735,3.77561256 C56.5888315,3.77561256 55.9089391,4.317524 55.9089391,5.65978455 C55.9089391,7.15387722 56.5255671,7.68448202 57.4280863,7.68448202 C57.9702384,7.68448202 58.310585,7.47853952 58.4803579,7.33801405 L58.7350173,7.99783768 C58.5436223,8.17147547 58.1296007,8.46383307 57.2679231,8.46383307 C55.9289595,8.46383307 55.0152289,7.65217732 55.0152289,5.69208926 C55.0152289,3.79741823 56.2901273,3.00595293 57.4801393,3.00595293 C58.2569304,3.00595293 58.6285088,3.29831052 58.8407249,3.46144929 L58.5652444,4.15438524 L58.5652444,4.15438524 Z" id="Shape"></path>
                    <path d="M63.6896632,8.33461424 L63.6896632,5.25920619 C63.6896632,4.26422124 63.390959,3.7869192 62.6694242,3.7869192 C61.9783203,3.7869192 61.5642987,4.13338718 61.3304605,4.34902109 L61.3304605,8.33461424 L60.4695838,8.33461424 L60.4695838,0.679206451 L61.3304605,0.581484714 L61.3304605,3.66739179 L61.3512817,3.66739179 C61.6067419,3.40814652 62.0848288,3.00676054 62.8712297,3.00676054 C63.955534,3.00676054 64.5497391,3.69888888 64.5497391,5.11868072 L64.5497391,8.33461424 L63.6896632,8.33461424 L63.6896632,8.33461424 L63.6896632,8.33461424 Z" id="Shape"></path>
                    <path d="M68.9334036,3.8830257 L67.6152611,3.8830257 L67.6152611,6.56916204 C67.6152611,7.38081778 67.8170667,7.68367441 68.3808408,7.68367441 C68.6571222,7.68367441 68.8685375,7.58514505 68.9758468,7.5326499 L69.0599324,8.23527727 C68.9758468,8.28938765 68.688354,8.46302545 68.1462019,8.46302545 C67.146784,8.46302545 66.7535836,7.87831026 66.7535836,6.6862666 L66.7535836,3.88141047 L66.05287,3.88141047 L66.05287,3.26439058 L66.7535836,3.13436413 L66.8488806,1.6830752 L67.6144603,1.6830752 L67.6144603,3.13436413 L69.0383104,3.13436413 L68.9334036,3.8830257 L68.9334036,3.8830257 Z" id="Shape"></path>
                    <path d="M71.2653785,1.88094153 C70.9258327,1.88094153 70.6599619,1.64269432 70.6599619,1.26392164 C70.6599619,0.884341336 70.9266335,0.635595098 71.2653785,0.635595098 C71.6057251,0.635595098 71.8820065,0.884341336 71.8820065,1.26392164 C71.8812057,1.6418867 71.6049243,1.88094153 71.2653785,1.88094153 L71.2653785,1.88094153 Z M71.6906116,8.33461424 L70.8297348,8.33461424 L70.8297348,3.13678699 L71.6906116,3.13678699 L71.6906116,8.33461424 L71.6906116,8.33461424 Z" id="Shape"></path>
                    <path d="M78.0330709,3.81841629 L77.2570806,3.81841629 C77.4380649,4.08816059 77.5445734,4.41443812 77.5445734,4.7609061 C77.5445734,5.86572706 76.6828959,6.51424404 75.5457377,6.51424404 C75.3967861,6.51424404 75.2590458,6.50374501 75.1205047,6.48193933 C74.9507318,6.55704777 74.6952716,6.70807227 74.6952716,6.99073846 C74.6952716,7.20637237 74.8546339,7.35820449 75.2374238,7.35820449 L76.278484,7.35820449 C77.3523777,7.35820449 77.9682049,7.81289323 77.9682049,8.73357736 C77.9682049,9.71806329 77.0440637,10.629056 75.2678547,10.629056 C74.0570216,10.629056 73.3547063,10.151754 73.3547063,9.22057081 C73.3547063,8.42991312 73.9401025,8.10605844 74.2484165,7.94372729 L74.2484165,7.92272923 C74.024989,7.74909144 73.9304927,7.47853952 73.9304927,7.18698955 C73.9304927,6.6450781 74.3965674,6.38502521 74.5343077,6.31960818 L74.5343077,6.2978025 C74.0145784,6.03774962 73.6750326,5.52975811 73.6750326,4.76171372 C73.6750326,3.59147573 74.5343077,3.00676054 75.6090022,3.00676054 C75.8852835,3.00676054 76.1407437,3.04956428 76.3745819,3.13597937 L78.1379778,3.13597937 L78.0330709,3.81841629 L78.0330709,3.81841629 Z M74.7176944,8.12867174 C74.4510229,8.29100289 74.1851521,8.55024815 74.1851521,9.04935587 C74.1851521,9.63407105 74.5687427,9.88362491 75.3343224,9.88362491 C76.5771882,9.88362491 77.1081289,9.39582384 77.1081289,8.86521904 C77.1081289,8.36611133 76.8542704,8.17228309 76.2792848,8.17228309 L75.1541389,8.17228309 C74.9827644,8.17147547 74.8450241,8.16016883 74.7176944,8.12867174 L74.7176944,8.12867174 Z M75.6210144,3.7320012 C75.0372199,3.7320012 74.5158889,4.01385976 74.5158889,4.76171372 C74.5158889,5.50795243 75.036419,5.789811 75.6001932,5.789811 C76.1847886,5.789811 76.7045179,5.50795243 76.7045179,4.76171372 C76.7045179,4.01305215 76.1847886,3.7320012 75.6210144,3.7320012 L75.6210144,3.7320012 Z" id="Shape"></path>
                    <path d="M83.3520879,1.88094153 C83.0125421,1.88094153 82.7458705,1.64269432 82.7458705,1.26392164 C82.7458705,0.884341336 83.0125421,0.635595098 83.3520879,0.635595098 C83.6924346,0.635595098 83.9687159,0.884341336 83.9687159,1.26392164 C83.9687159,1.6418867 83.6916337,1.88094153 83.3520879,1.88094153 L83.3520879,1.88094153 Z M83.777321,8.33461424 L82.9172451,8.33461424 L82.9172451,3.13678699 L83.777321,3.13678699 L83.777321,8.33461424 L83.777321,8.33461424 Z" id="Shape"></path>
                    <path d="M88.3900187,4.21899465 C88.2082336,4.06797015 87.8262445,3.76430591 87.2616696,3.76430591 C86.7107084,3.76430591 86.4440369,4.0017455 86.4440369,4.30460212 C86.4440369,4.71648713 86.677875,4.89981634 87.2192263,5.1816749 L87.6020162,5.37711837 C88.3996285,5.78819576 88.836073,6.23238547 88.836073,6.98993084 C88.836073,7.78058853 88.2602866,8.46302545 87.0174208,8.46302545 C86.1669547,8.46302545 85.7209004,8.1270565 85.4862614,7.90980735 L85.8065877,7.14095534 C86.0292144,7.36870352 86.4007928,7.68205917 87.0174208,7.68205917 C87.6652806,7.68205917 87.9952166,7.43250531 87.9952166,7.09734399 C87.9952166,6.59904389 87.6772928,6.41571468 87.1023073,6.10155141 L86.7307288,5.89641653 C85.9979826,5.49583817 85.6368148,5.0629551 85.6368148,4.34740586 C85.6368148,3.57936146 86.3167072,3.00514531 87.2832916,3.00514531 C88.1017251,3.00514531 88.4949255,3.35161328 88.675109,3.50263779 L88.3900187,4.21899465 L88.3900187,4.21899465 Z" id="Shape"></path>
                    <path d="M93.1052208,3.8830257 L91.7870784,3.8830257 L91.7870784,6.56916204 C91.7870784,7.38081778 91.9888839,7.68367441 92.5518572,7.68367441 C92.8297402,7.68367441 93.0411555,7.58514505 93.147664,7.5326499 L93.2325505,8.23527727 C93.147664,8.28938765 92.860972,8.46302545 92.3180191,8.46302545 C91.3186012,8.46302545 90.9270024,7.87831026 90.9270024,6.6862666 L90.9270024,3.88141047 L90.2246872,3.88141047 L90.2246872,3.26439058 L90.9270024,3.13436413 L91.0222995,1.6830752 L91.7878792,1.6830752 L91.7878792,3.13436413 L93.2109284,3.13436413 L93.1052208,3.8830257 L93.1052208,3.8830257 Z" id="Shape"></path>
                </g>
                <g id="Group" transform="translate(0.000000, -0.000000)">
                    <path d="M34.4219216,10.6756828 C34.4219216,10.6521534 34.4134476,10.6342711 34.4134476,10.6032122 L34.4134476,10.7547417 C34.4143891,10.7302711 34.4219216,10.7058005 34.4219216,10.6756828 L34.4219216,10.6756828 Z" id="Shape" fill="#FF0000"></path>
                    <path d="M7.98252962,8.94678843 C7.45559297,8.40326174 7.15288468,7.75797523 7.15288468,6.97216325 L7.15288468,11.5658925 C7.15288468,16.1014733 17.0773921,16.0037515 23.2076353,17.6747125 C24.6971522,17.1077649 26.2771613,16.5965429 27.7682799,16.0651305 C26.1706529,11.3615652 11.6254397,12.6957496 7.98252962,8.94678843 L7.98252962,8.94678843 Z" id="Shape" fill="#FF0000"></path>
                    <path d="M19.6544166,4.59292163 L19.6544166,0 C17.5178406,0.134872149 7.15208387,1.09432193 7.15208387,6.97216325 C7.15208387,7.75878285 7.45559297,8.40326174 7.98252962,8.94759604 C10.4850783,5.38196408 17.8862158,4.70356525 19.6544166,4.59292163 L19.6544166,4.59292163 Z" id="Shape" fill="#FF0000" opacity="0.7"></path>
                    <path d="M34.4219216,15.2727761 C34.4219216,15.2473643 34.4134476,15.2257173 34.4134476,15.1993643 L34.4134476,15.3518349 C34.4143891,15.3217173 34.4219216,15.2981879 34.4219216,15.2727761 L34.4219216,15.2727761 Z" id="Shape" fill="#FF0000"></path>
                    <path d="M41.8458169,40.1224453 C39.682814,40.1143691 35.7900495,40.0505673 31.6938779,39.677448 C19.9114784,38.8900207 2.95260701,36.5584286 0.348354774,29.734867 C0.128130491,29.1501518 0,28.5315167 0,27.8846149 L0,32.4759213 C0,43.6242755 34.3629962,44.5958395 41.7793492,44.6652946 C42.0940697,44.6693327 44.2851011,44.6701403 45.2540879,44.6701403 L45.2540879,40.1248681 C44.2875035,40.1240605 42.1132893,40.1224453 41.8458169,40.1224453 L41.8458169,40.1224453 Z" id="Shape" fill="#FFCC00"></path>
                    <path d="M16.4903942,28.6381222 C16.4903942,32.7698941 24.4152651,34.4271256 31.6938779,35.089372 C35.7900495,35.4624914 39.682814,35.5262932 41.8458169,35.5335618 C42.1132893,35.5335618 44.2867027,35.5359846 45.2540879,35.5359846 L45.2540879,35.5311389 L45.2540879,40.082872 L45.2540879,40.1297139 C44.2867027,40.1297139 42.1132893,40.1280986 41.8458169,40.1280986 C39.682814,40.1200224 35.7900495,40.0562206 31.6938779,39.6831013 C24.4152651,39.0208548 16.4903942,37.3636234 16.4903942,33.2310438 L16.4903942,28.6381222 L16.4903942,28.6381222 Z" id="Shape" fill="#FF0000"></path>
                    <path d="M33.4989162,12.9671091 C32.3305262,14.2924097 30.1707267,15.2098634 27.7690808,16.0659381 C26.2779622,16.5973505 24.697953,17.1077649 23.2084361,17.6747125 C19.5887497,19.0517006 16.4919959,20.7791947 16.4919959,24.0435853 C16.4919959,24.7865936 16.7578666,25.444802 17.220738,26.0367857 C17.8365652,25.0846045 18.7919382,24.3860152 19.8810474,23.7956467 C20.8011845,23.2577733 21.8470496,22.795816 22.9505735,22.3669711 C24.5169687,21.7556045 26.1906733,21.2209616 27.7690808,20.6620902 C31.3295068,19.3917076 34.363797,17.9896834 34.4150492,15.3301984 L34.4150492,15.1993643 L34.4150492,10.7332387 C34.3990329,11.5998124 34.0618895,12.3298988 33.4989162,12.9671091 L33.4989162,12.9671091 Z" id="Shape" fill="#000000" opacity="0.7"></path>
                    <path d="M33.4989162,12.9671091 C34.0618895,12.3290912 34.3990329,11.5990048 34.4142484,10.7324311 L34.4142484,10.6024046 C34.3533864,7.30005602 29.4684114,5.46595632 23.8490885,5.44334302 L23.8490885,10.0370723 C28.037354,10.0548399 31.8172035,11.0780914 33.4989162,12.9671091 L33.4989162,12.9671091 Z" id="Shape" fill="#000000"></path>
                    <path d="M17.2559739,26.0860504 C17.2423601,26.0707056 17.2319495,26.0553609 17.2199372,26.0375933 M17.2191364,26.0375933 C16.7554642,25.4456096 16.4903942,24.7874012 16.4903942,24.0443929 L16.4903942,28.6389298 C16.4903942,32.7707017 24.4152651,34.4271256 31.6938779,35.0901797 C35.7900495,35.463299 39.682814,35.5271008 41.8458169,35.5343694 C42.1132893,35.5343694 44.2867027,35.5375998 45.2540879,35.5375998 L45.2540879,35.5327541 L45.2540879,30.9422554 C44.2666823,30.9422554 42.0316061,30.9422554 41.7168856,30.9382173 C37.3035909,30.9147964 26.2018847,30.6797796 20.3078821,28.1648582 C18.9769266,27.5962954 17.9182484,26.9098204 17.2543723,26.0860504" id="Shape" fill="#000000"></path>
                    <path d="M27.7682799,20.6637054 L27.7682799,20.6637054 C26.1898724,21.2217692 24.5153671,21.7572197 22.9497726,22.3677787 C21.845448,22.795816 20.8003837,23.258581 19.8794457,23.7964543 C18.7911374,24.3868228 17.8349636,25.0854121 17.2191364,26.0375933 C17.2311487,26.0545533 17.2423601,26.0707056 17.2551731,26.0860504 C17.9190492,26.910628 18.9769266,27.5962954 20.3078821,28.1648582 C23.6328683,26.481783 27.9212357,25.5570608 27.9212357,21.5432011 L27.9212357,20.6087874 L27.7682799,20.6637054 L27.7682799,20.6637054 Z" id="Shape" fill="#FF0000" opacity="0.7"></path>
                    <g opacity="0.7" transform="translate(0.000000, 18.575206)" id="Shape" fill="#FFCC00">
                        <path d="M0.000800815571,9.30940875 C0.000800815571,9.95550288 0.128130491,10.574138 0.349956405,11.1596608 C1.53115937,6.85667392 5.3742733,5.38923264 7.15208387,4.93050581 L7.15208387,0.332738475 C5.03552831,0.881918484 0.000800815571,2.86138937 0.000800815571,9.30940875 L0.000800815571,9.30940875 Z"></path>
                    </g>
                </g>
            </g>
        </g>
    </g>
</svg>