<svg width="12px" height="16px" viewBox="0 0 12 16">
    <!-- Generator: Sketch 3.8.2 (29753) - http://www.bohemiancoding.com/sketch -->
    <title></title>
    <defs></defs>
    <g id="Symbols" stroke="none" stroke-width="1" fill="none" fill-rule="evenodd">
        <g id="l_corporate-header" transform="translate(-734.000000, -41.000000)" fill="#666666">
            <g id="meta-navigation">
                <g transform="translate(448.000000, 41.000000)">
                    <g id="Group-2" transform="translate(276.000000, 0.000000)">
                        <path d="M21.98,3.924 C20.469,2.792 20.222,6.532 19.187,6.725 C19.375,4.893 20.222,3.784 20.212,1.725 C18.398,-0.57 18.406,5.291 17.484,5.841 C17.075,4.193 17.465,1.66 16.932,0.152 C15.45,-0.516 15.621,1.596 15.677,3.417 C15.677,3.417 15.677,4.451 15.668,4.56 C15.668,4.56 15.592,5.163 15.573,5.239 C15.573,5.239 15.506,5.433 15.478,5.497 C15.392,5.335 15.326,5.163 15.259,5.001 L13.997,1.51 L13.703,1.111 L13.531,0.992 L13.333,0.917 L13.02,0.949 C12.981,0.971 12.743,1.187 12.686,1.283 C12.621,1.38 12.582,1.488 12.563,1.585 C12.364,2.706 13.294,4.376 13.751,5.927 L13.885,6.466 L13.98,7.328 C13.98,7.392 13.922,7.899 13.876,8.05 C13.762,8.405 13.563,8.717 13.23,8.988 C12.394,8.708 11.852,6.531 10.436,7.005 C9.381,7.361 10.665,9.085 10.987,9.473 C11.205,9.743 11.605,9.947 11.9,10.292 C12.726,11.305 13.525,12.771 14.389,13.374 C16.214,14.667 18.486,13.87 19.483,12.416 C20.225,11.36 19.968,9.862 20.396,8.58 C20.916,7.048 22.17,6.036 21.98,3.924 L21.98,3.924 Z" id="Shape"></path>
                    </g>
                </g>
            </g>
        </g>
    </g>
</svg>
