<?xml version="1.0" encoding="windows-1252"?>
<!DOCTYPE svg PUBLIC "-//W3C//DTD SVG 1.1//EN" "http://www.w3.org/Graphics/SVG/1.1/DTD/svg11.dtd">
<svg version="1.1" id="Ebene_1" xmlns="http://www.w3.org/2000/svg" xmlns:xlink="http://www.w3.org/1999/xlink" x="0px" y="0px" width="16px" height="16px" viewBox="0 0 20 20" enable-background="new 0 0 20 20" xml:space="preserve"><path fill="#666666" d="M19.385,4.521c0,0-1.748,0.126-1.947,1.379c0,0-1.03,1.707-1.929,1.389c0,0-1.544-0.284-2.039-2.079 c0,0-0.728-2.083-0.804-2.179c0,0-1.447-2.771-1.72-2.845c0,0-0.488-0.298-0.629-0.141c0,0-0.463,0.267-0.374,0.577l1.312,2.961 c0,0,0.506,1.54,0.572,1.655c0,0,0.034,0.263-0.142,0.362c0,0-0.289,0.317-0.483-0.133c0,0-3.051-4.924-3.14-4.764 c0,0-0.418-0.285-0.778-0.014c0,0-0.535,0.488-0.202,0.832c0,0,2.6,4.463,2.766,4.634c0,0,0.254,0.298-0.151,0.178 c0,0-0.194-0.03-0.752-0.629c0,0-0.555-0.617-0.932-0.913c0,0-2.019-2.305-2.215-2.283c0,0-0.416-0.285-0.681,0.093 c0,0-0.441,0.463-0.077,0.796c0,0,2.168,2.414,2.306,2.542c0,0,1.703,1.604,1.695,1.757c0,0-0.013,0.307-0.158,0.332 c0,0-0.543-0.158-1.238-0.604c0,0-2.216-1.61-2.407-1.714c0,0-0.591-0.301-0.78,0.097c0,0-0.308,0.516,0.134,0.782 c0,0,2.26,1.907,2.705,2.096c0,0,1.212,0.932,1.376,1.062c0,0,0.346,0.33,0.341,0.446c0,0,0.229,0.532,0.526,1.094 c0.331,0.175,0.686,0.264,1.062,0.264c0.346,0,0.578-0.078,0.58-0.079l0.076-0.021c0.278-0.053,0.506-0.868,0.534-1.573 c-0.388-1.196,0.57-2.249,1.215-2.691l0.084-0.058l0.1-0.021c0.161-0.036,0.312-0.054,0.449-0.054c0.665,0,0.944,0.41,1.005,0.653 l0.028,0.11l-0.254,1.357c-0.041,0.219,0.084,1.222,0.229,2.045c0.14,0.375,0.207,0.789,0.229,0.96 c0.046,0.166,0.072,0.45,0.072,0.983c0.43-0.248,0.822-0.569,1.13-0.967c0,0,1.914-2.918,1.85-3.086c0,0,0.216-0.482,0.288-0.94 c0,0,0.653-1.787,0.965-2.111l0.812-0.937C19.995,5.123,20.103,4.752,19.385,4.521"/><path fill="#666666" d="M14.326,15.915c0,0,0.179-3.485,0.039-3.598c0,0-0.056-0.524-0.226-0.956c0,0-0.337-1.872-0.232-2.309 l0.227-1.219c0,0-0.093-0.374-0.828-0.211c0,0-1.445,0.991-0.985,2.173c0,0-0.027,1.994-0.963,2.173c0,0-1.478,0.537-2.811-0.766 c0,0-1.68-1.43-1.794-1.474c0,0-2.647-1.662-2.921-1.587c0,0-0.572-0.011-0.613,0.197c0,0-0.265,0.463-0.031,0.687l2.627,1.893 c0,0,1.214,1.073,1.33,1.14c0,0,0.162,0.21,0.062,0.383c0,0-0.09,0.419-0.486,0.131c0,0-5.12-2.71-5.115-2.528 c0,0-0.506-0.035-0.679,0.383c0,0-0.214,0.69,0.246,0.818c0,0,4.497,2.539,4.728,2.604c0,0,0.37,0.129-0.041,0.229 c0,0-0.181,0.072-0.965-0.163c0,0-0.791-0.252-1.267-0.316c0,0-2.906-0.971-3.064-0.853c0,0-0.502-0.037-0.541,0.423 c0,0-0.148,0.623,0.335,0.728c0,0,3.091,0.988,3.274,1.03c0,0,2.279,0.524,2.35,0.659c0,0,0.143,0.273,0.03,0.367 c0,0-0.547,0.139-1.373,0.104c0,0-2.727-0.271-2.943-0.264c0,0-0.663,0.038-0.625,0.478c0,0-0.004,0.601,0.51,0.606 c0,0,2.914,0.507,3.395,0.444c0,0,1.516,0.192,1.722,0.222c0,0,0.466,0.11,0.521,0.212c0,0,1.815,1.337,2.433,1.306 c0,0,0.516,0.149,1.02,0.306C11.83,19.725,14.053,18.012,14.326,15.915"/></svg>