<?xml version="1.0" encoding="UTF-8" standalone="no"?>
<svg width="13px" height="16px" viewBox="0 0 13 16">
    <!-- Generator: Sketch 3.8.2 (29753) - http://www.bohemiancoding.com/sketch -->
    <title></title>
    <defs></defs>
    <g id="Symbols" stroke="none" stroke-width="1" fill="none" fill-rule="evenodd">
        <g id="l_corporate-header" transform="translate(-885.000000, -41.000000)" fill="#666666">
            <g id="meta-navigation">
                <g transform="translate(448.000000, 41.000000)">
                    <g id="Group-3" transform="translate(428.000000, 0.000000)">
                        <g id="Group" transform="translate(9.000000, 0.000000)">
                            <path d="M6.532,7.361 L10.241,4.242 C10.245,4.177 10.26,4.115 10.26,4.049 C10.26,1.855 8.582,0.076 6.527,0.076 C4.472,0.076 2.805,1.854 2.805,4.049 C2.805,4.115 2.822,4.177 2.824,4.242 L6.532,7.361 L6.532,7.361 Z" id="Shape"></path>
                            <path d="M6.778,8.072 C6.778,8.072 6.805,14.191 6.805,15.968 L7.341,15.968 C8.803,14.64 12.744,11.074 12.744,11.074 L12.744,3.053 L6.778,8.072 L6.778,8.072 Z" id="Shape"></path>
                            <path d="M6.259,15.968 C6.259,14.192 6.286,8.072 6.286,8.072 L0.321,3.053 L0.321,11.074 L5.72,15.968 L6.259,15.968 L6.259,15.968 Z M5.291,13.27 L1.317,9.926 L1.317,9.019 L5.291,12.361 L5.291,13.27 L5.291,13.27 Z M1.317,6.95 L1.317,6.029 L5.291,9.372 L5.291,10.292 L1.317,6.95 L1.317,6.95 Z" id="Shape"></path>
                        </g>
                    </g>
                </g>
            </g>
        </g>
    </g>
</svg>
