<?xml version="1.0" encoding="UTF-8" standalone="no"?>
<svg width="21px" height="59px" viewBox="0 0 26 74" version="1.1" xmlns="http://www.w3.org/2000/svg" xmlns:xlink="http://www.w3.org/1999/xlink">
    <!-- Generator: Sketch 39.1 (31720) - http://www.bohemiancoding.com/sketch -->
    <title>Kind</title>
    <desc>Created with Sketch.</desc>
    <defs></defs>
    <g id="3-l-Dimension-Flagships" stroke="none" stroke-width="1" fill="none" fill-rule="evenodd">
        <path d="M9.39241339,13.2546893 L8,13.2546893 C6.07714844,13.2546893 0,14.2546893 0,20.2546893 C0,20.2546893 0.00788595693,43.3011934 0,43.2546893 C0.00525730462,45.2546893 3.00219727,46.2546893 5,46.2546893 L7,73.2546893 L19,73.2546893 L21,46.2546893 C23.0319824,46.2546893 26,45.2546893 26,43.2546893 C25.9973713,43.2822069 26,20.2546893 26,20.2546893 C26,14.2546893 20.0192871,13.2546893 18,13.2546893 L16.6075866,13.2546893 L17,13.2546893 L17,13 C18.8134841,11.7350539 20,9.63343439 20,7.25468928 C20,3.38869603 16.8659932,0.254689281 13,0.254689281 C9.13400675,0.254689281 6,3.38869603 6,7.25468928 C6,9.63343439 7.1865159,11.7350539 9,13 L9,13.2546893 L9.39241339,13.2546893 Z" id="Combined-Shape" fill="#8C1478"></path>
    </g>
</svg>
