<?xml version="1.0" encoding="UTF-8" standalone="no"?>
<svg width="20px" height="64px" viewBox="0 0 20 64" version="1.1" xmlns="http://www.w3.org/2000/svg" xmlns:xlink="http://www.w3.org/1999/xlink">
    <!-- Generator: Sketch 39.1 (31720) - http://www.bohemiancoding.com/sketch -->
    <title>Person</title>
    <desc>Created with Sketch.</desc>
    <defs></defs>
    <g id="3-l-Dimension-Flagships" stroke="none" stroke-width="1" fill="none" fill-rule="evenodd">
        <g id="3.2.2_l_flagship-percentiles-dotplot" transform="translate(-502.000000, -287.000000)" fill="#8C1478">
            <g id="Group" transform="translate(444.000000, 287.000000)">
                <path d="M78,14.3620269 C77.9312506,13.5286722 77.8038621,12.9539448 77.6259226,12.6563182 C76.7079163,11.1332906 72.5809322,10.0864657 70.8824184,9.71084028 L70.8824184,9.08069275 C71.5456476,8.43822963 72.020827,7.58024375 72.1765241,6.58268121 C72.1866343,6.51494548 72.223031,3.89788326 72.218987,3.8629891 C71.9601658,1.66055164 70.158528,0 68.0252755,0 C65.7969872,0 63.9407542,1.80628608 63.7971894,4.10930083 C63.7911232,4.20782553 63.7971894,6.25016036 63.8376302,6.52931366 C63.9852391,7.53508659 64.4705288,8.41770366 65.1539784,9.07453496 L65.1539784,9.71084028 C63.4493984,10.0844131 59.304216,11.1332906 58.3781215,12.6727389 C58.1981599,12.9703656 58.0727934,13.545093 58,14.4523412 C58,14.4523412 58.0060661,35.4996793 58.0040441,35.6577293 L58.0040441,35.6700449 C58.0040441,37.098653 60.2444647,38.0838999 61.7589728,38.3651058 L64.8789809,64 L71.2120109,64 L74.279446,38.3630532 C75.7838439,38.0777421 77.997978,37.0863374 77.997978,35.6536241 L77.997978,35.6413085 C77.997978,35.4832585 78,14.3620269 78,14.3620269" id="ic_person"></path>
            </g>
        </g>
    </g>
</svg>
