<?xml version="1.0" encoding="UTF-8"?>
<svg width="280px" height="328px" viewBox="0 0 280 328" version="1.1" xmlns="http://www.w3.org/2000/svg" xmlns:xlink="http://www.w3.org/1999/xlink">
    <!-- Generator: Sketch 45 (43475) - http://www.bohemiancoding.com/sketch -->
    <title>01-00-b-s.de.chart</title>
    <desc>Created with Sketch.</desc>
    <defs>
        <linearGradient x1="0%" y1="0%" x2="100%" y2="0%" id="linearGradient-1">
            <stop stop-color="#000000" offset="0%"></stop>
            <stop stop-color="#A33C6D" offset="100%"></stop>
        </linearGradient>
    </defs>
    <g id="1-static-charts" stroke="none" stroke-width="1" fill="none" fill-rule="evenodd">
        <g id="01-00-b-s.de.chart">
            <g id="Group" transform="translate(42.000000, 30.000000)">
                <polygon id="block" fill="#F2BF18" points="188 0 188 40 0 40 0 0"></polygon>
                <polygon id="block" fill="#B68B00" points="136 104 136 144 2.84217094e-14 144 2.84217094e-14 104"></polygon>
                <polygon id="block" fill="#7B5900" points="91 208 91 248 0 248 0 208"></polygon>
                <polygon id="block" fill="#7B5900" points="144 208 144 248 99 248 99 208"></polygon>
                <polygon id="block" fill="#B68B00" points="196 104 196 144 144 144 144 104"></polygon>
                <path d="M196.000017,104.470737 L60.0000173,104.470737 L60,40 C60.0008489,71.5292625 52.0001993,72.1217142 52.0000173,104.470737 C52.0000287,104 0.000652050352,104 1.73052099e-05,104.470737 C-0.0135883015,71.9348091 8.00003447,71.5292634 8,40 L196,40 L196.000017,104.470737 Z" id="flow" fill-opacity="0.1" fill="url(#linearGradient-1)" transform="translate(98.000009, 72.235368) scale(-1, 1) translate(-98.000009, -72.235368) "></path>
                <path d="M144,208 L53,208 C53,208 53,144.221646 53,144 C53,176.13855 45,176.138672 45,208 C45,208.055336 2.82278524e-09,208.055456 -5.68434189e-14,208 C-2.82290105e-09,176.138552 8,176.13855 8,144 C8,144.221646 144,144 144,144 C144,176.138551 144,208 144,208 Z" id="flow" fill-opacity="0.1" fill="url(#linearGradient-1)" transform="translate(72.000000, 176.000000) scale(-1, 1) translate(-72.000000, -176.000000) "></path>
                <text id="2,9-Mio." font-family="BundesSans-Bold, BundesSans" font-size="12" font-weight="bold" fill="#000000">
                    <tspan x="74.122" y="24">2,9 Mio.</tspan>
                </text>
                <text id="2,1-Mio." font-family="BundesSans-Bold, BundesSans" font-size="12" font-weight="bold" fill="#000000">
                    <tspan x="48.122" y="128">2,1 Mio.</tspan>
                </text>
                <text id="1,4-Mio." font-family="BundesSans-Bold, BundesSans" font-size="12" font-weight="bold" fill="#FFFFFF">
                    <tspan x="26.122" y="232">1,4 Mio.</tspan>
                </text>
                <text id="0,7-Mio." font-family="BundesSans-Bold, BundesSans" font-size="12" font-weight="bold" fill="#FFFFFF">
                    <tspan x="102.122" y="232">0,7 Mio.</tspan>
                </text>
                <text id="0,8-Mio." font-family="BundesSans-Bold, BundesSans" font-size="12" font-weight="bold" fill="#000000">
                    <tspan x="150.122" y="128">0,8 Mio.</tspan>
                </text>
            </g>
            <text id="Zusammen-mit/durch-a" font-family="BundesSans-Regular, BundesSans" font-size="12" font-weight="normal" line-spacing="16" fill="#454545">
                <tspan x="141" y="291">Zusammen mit/durch </tspan>
                <tspan x="141" y="307">amulante Pflegedienste</tspan>
            </text>
            <text id="Insgesamt" font-family="BundesSans-Regular, BundesSans" font-size="12" font-weight="normal" fill="#454545">
                <tspan x="42.108" y="23">Insgesamt</tspan>
            </text>
            <text id="zu-Hause-versorgt" font-family="BundesSans-Regular, BundesSans" font-size="12" font-weight="normal" fill="#454545">
                <tspan x="46" y="127">zu Hause versorgt</tspan>
            </text>
            <text id="Vollstationär-in-Hei" font-family="BundesSans-Regular, BundesSans" font-size="12" font-weight="normal" line-spacing="16" fill="#454545">
                <tspan x="186" y="187">Vollstationär </tspan>
                <tspan x="186" y="203">in Heimen</tspan>
            </text>
            <text id="Allein-durch-Angehör" font-family="BundesSans-Regular, BundesSans" font-size="12" font-weight="normal" line-spacing="16" fill="#454545">
                <tspan x="42" y="291">Allein durch</tspan>
                <tspan x="42" y="307">Angehörige</tspan>
            </text>
        </g>
    </g>
</svg>