<?xml version="1.0" encoding="UTF-8"?>
<svg width="610px" height="280px" viewBox="0 0 610 280" version="1.1" xmlns="http://www.w3.org/2000/svg" xmlns:xlink="http://www.w3.org/1999/xlink">
    <!-- Generator: Sketch 45 (43475) - http://www.bohemiancoding.com/sketch -->
    <title>01-00-b-l.en.chart</title>
    <desc>Created with Sketch.</desc>
    <defs>
        <linearGradient x1="0%" y1="0%" x2="100%" y2="0%" id="linearGradient-1">
            <stop stop-color="#000000" offset="0%"></stop>
            <stop stop-color="#A33C6D" offset="100%"></stop>
        </linearGradient>
    </defs>
    <g id="1-static-charts" stroke="none" stroke-width="1" fill="none" fill-rule="evenodd">
        <g id="01-00-b-l.en.chart">
            <polygon id="block" fill="#F2BF18" points="398 16 398 56 210 56 210 16"></polygon>
            <polygon id="block" fill="#B68B00" points="346 120 346 160 210 160 210 120"></polygon>
            <polygon id="block" fill="#7B5900" points="301 224 301 264 210 264 210 224"></polygon>
            <polygon id="block" fill="#7B5900" points="354 224 354 264 309 264 309 224"></polygon>
            <polygon id="block" fill="#B68B00" points="406 120 406 160 354 160 354 120"></polygon>
            <path d="M406.000035,120.470737 L270.000035,120.470737 L270.000017,56 C270.000866,87.5292625 262.000217,88.1217142 262.000035,120.470737 C262.000046,120 210.000669,120 210.000035,120.470737 C209.986429,87.9348091 218.000052,87.5292634 218.000017,56 L406.000017,56 L406.000035,120.470737 Z" id="flow" fill-opacity="0.1" fill="url(#linearGradient-1)" transform="translate(308.000026, 88.235368) scale(-1, 1) translate(-308.000026, -88.235368) "></path>
            <path d="M354,223.777778 L263,223.777778 C263,223.777778 263,160.000001 263,159.777778 C263,191.999999 255,192.000121 255,223.777778 C255,223.999879 210,223.999999 210,223.777778 C210,192.000001 218,191.999999 218,159.777778 C218,160.000001 354,159.777778 354,159.777778 C354,192 354,223.777778 354,223.777778 Z" id="flow" fill-opacity="0.1" fill="url(#linearGradient-1)" transform="translate(282.000000, 191.861088) scale(-1, 1) translate(-282.000000, -191.861088) "></path>
            <text id="2.9-Mio." font-family="BundesSans-Bold, BundesSans" font-size="12" font-weight="bold" fill="#000000">
                <tspan x="284.158" y="40">2.9 Mio.</tspan>
            </text>
            <text id="2.1-Mio." font-family="BundesSans-Bold, BundesSans" font-size="12" font-weight="bold" fill="#000000">
                <tspan x="258.158" y="144">2.1 Mio.</tspan>
            </text>
            <text id="1.4-Mio." font-family="BundesSans-Bold, BundesSans" font-size="12" font-weight="bold" fill="#FFFFFF">
                <tspan x="236.158" y="248">1.4 Mio.</tspan>
            </text>
            <text id="0.7-Mio." font-family="BundesSans-Bold, BundesSans" font-size="12" font-weight="bold" fill="#FFFFFF">
                <tspan x="312.158" y="248">0.7 Mio.</tspan>
            </text>
            <text id="0.8-Mio." font-family="BundesSans-Bold, BundesSans" font-size="12" font-weight="bold" fill="#000000">
                <tspan x="360.158" y="144">0.8 Mio.</tspan>
            </text>
            <text id="Overall" font-family="BundesSans-Regular, BundesSans" font-size="12" font-weight="normal" fill="#454545">
                <tspan x="158.624" y="40">Overall</tspan>
            </text>
            <text id="Home-care" font-family="BundesSans-Regular, BundesSans" font-size="12" font-weight="normal" fill="#454545">
                <tspan x="140.732" y="144">Home care</tspan>
            </text>
            <text id="Cared-for-by-relativ" font-family="BundesSans-Regular, BundesSans" font-size="12" font-weight="normal" line-spacing="12" fill="#454545">
                <tspan x="60.944" y="245">Cared for by relatives alone</tspan>
            </text>
            <text id="Together-with/by-out" font-family="BundesSans-Regular, BundesSans" font-size="12" font-weight="normal" line-spacing="12" fill="#454545">
                <tspan x="370" y="239">Together with/by </tspan>
                <tspan x="370" y="251">outpatient care services</tspan>
            </text>
            <text id="Inpatient-care-in-ho" font-family="BundesSans-Regular, BundesSans" font-size="12" font-weight="normal" line-spacing="12" fill="#454545">
                <tspan x="422" y="135">Inpatient care </tspan>
                <tspan x="422" y="147">in homes</tspan>
            </text>
        </g>
    </g>
</svg>