<?xml version="1.0" encoding="UTF-8"?>
<svg width="610px" height="280px" viewBox="0 0 610 280" version="1.1" xmlns="http://www.w3.org/2000/svg" xmlns:xlink="http://www.w3.org/1999/xlink">
    <!-- Generator: Sketch 40.3 (33839) - http://www.bohemiancoding.com/sketch -->
    <title>01-00-a_l_chart-english</title>
    <desc>Created with Sketch.</desc>
    <defs>
        <linearGradient x1="0%" y1="0%" x2="100%" y2="0%" id="linearGradient-1">
            <stop stop-color="#000000" offset="0%"></stop>
            <stop stop-color="#A33C6D" offset="100%"></stop>
        </linearGradient>
    </defs>
    <g id="3-l-dashboard-charts" stroke="none" stroke-width="1" fill="none" fill-rule="evenodd">
        <g id="01-00-a_l_chart-english">
            <polygon id="Rectangle-643" fill="#F2BF18" points="398 16 398 56 210 56 210 16"></polygon>
            <polygon id="Rectangle-643" fill="#B68B00" points="343 120 343 160 210 160 210 120"></polygon>
            <polygon id="Rectangle-643" fill="#7B5900" points="299 224 299 264 210 264 210 224"></polygon>
            <polygon id="Rectangle-643" fill="#7B5900" points="351 224 351 264 307 264 307 224"></polygon>
            <polygon id="Rectangle-643" fill="#B68B00" points="406 120 406 160 351 160 351 120"></polygon>
            <path d="M406.000017,120 L273.000017,120 C273.000017,120 273.99968,42.746331 274.000017,56 C274.000832,87.9999992 265.000182,88.1217142 265.000017,120 C265.000011,120 210.000635,120 210.000017,120 C209.986394,87.9348091 218.000017,88 218.000017,56 L406.000017,56 L406.000017,120 Z" id="Rectangle-643" fill-opacity="0.1" fill="url(#linearGradient-1)" transform="translate(308.000009, 87.235368) scale(-1, 1) translate(-308.000009, -87.235368) "></path>
            <path d="M351,224 L262,224 C262,224 263,160.000001 263,160 C263,191.999999 254,192.000121 254,224 C254,223.999879 210,223.999999 210,224 C210,192.000001 218,191.999999 218,160 C218,160.000001 351,160 351,160 L351,224 Z" id="Rectangle-643" fill-opacity="0.1" fill="url(#linearGradient-1)" transform="translate(280.500000, 184.888889) scale(-1, 1) translate(-280.500000, -184.888889) "></path>
            <text id="Overall" font-family="BundesSans-Regular, BundesSans" font-size="12" font-weight="normal" fill="#454545">
                <tspan x="158.624" y="40">Overall</tspan>
            </text>
            <text id="2.6-Mio." font-family="BundesSans-Bold, BundesSans" font-size="12" font-weight="bold" fill="#000000">
                <tspan x="291.658" y="40">2.6m</tspan>
            </text>
            <text id="1.8-Mio." font-family="BundesSans-Bold, BundesSans" font-size="12" font-weight="bold" fill="#000000">
                <tspan x="263.658" y="144">1.8m</tspan>
            </text>
            <text id="1.2-Mio." font-family="BundesSans-Bold, BundesSans" font-size="12" font-weight="bold" fill="#FFFFFF">
                <tspan x="241.658" y="248">1.2m</tspan>
            </text>
            <text id="0.6-Mio." font-family="BundesSans-Bold, BundesSans" font-size="12" font-weight="bold" fill="#FFFFFF">
                <tspan x="316.658" y="248">0.6m</tspan>
            </text>
            <text id="0.8-Mio." font-family="BundesSans-Bold, BundesSans" font-size="12" font-weight="bold" fill="#000000">
                <tspan x="365.658" y="144">0.8m</tspan>
            </text>
            <text id="Home-care" font-family="BundesSans-Regular, BundesSans" font-size="12" font-weight="normal" fill="#454545">
                <tspan x="140.732" y="144">Home care</tspan>
            </text>
            <text id="Cared-for-by-relativ" font-family="BundesSans-Regular, BundesSans" font-size="12" font-weight="normal" line-spacing="12" fill="#454545">
                <tspan x="60.944" y="245">Cared for by relatives alone</tspan>
            </text>
            <text id="Together-with/by-out" font-family="BundesSans-Regular, BundesSans" font-size="12" font-weight="normal" line-spacing="12" fill="#454545">
                <tspan x="367" y="239">Together with/by </tspan>
                <tspan x="367" y="251">outpatient care services</tspan>
            </text>
            <text id="Inpatient-care-in-ho" font-family="BundesSans-Regular, BundesSans" font-size="12" font-weight="normal" line-spacing="12" fill="#454545">
                <tspan x="422" y="135">Inpatient care </tspan>
                <tspan x="422" y="147">in homes</tspan>
            </text>
        </g>
    </g>
</svg>
