<?xml version="1.0" encoding="UTF-8" standalone="no"?>
<svg width="300px" height="960px" viewBox="0 0 300 960" version="1.1" xmlns="http://www.w3.org/2000/svg" xmlns:xlink="http://www.w3.org/1999/xlink">
    <!-- Generator: Sketch 39.1 (31720) - http://www.bohemiancoding.com/sketch -->
    <title>3.26_s_dashboard_chart_sankey-mobile</title>
    <desc>Created with Sketch.</desc>
    <defs></defs>
    <g id="4-s-dashboard-charts" stroke="none" stroke-width="1" fill="none" fill-rule="evenodd">
        <g id="3.26_s_dashboard_chart_sankey-mobile">
            <text id="Schulabschluss-der-E" font-family="BundesSans-Bold, BundesSans" font-size="14" font-weight="bold" line-spacing="16" fill="#666666">
                <tspan x="20.876" y="20">Schulabschluss </tspan>
                <tspan x="51.76" y="36">der Eltern</tspan>
            </text>
            <text id="Schulabschluss-der-K" font-family="BundesSans-Bold, BundesSans" font-size="14" font-weight="bold" line-spacing="16" fill="#666666">
                <tspan x="190" y="20">Schulabschluss</tspan>
                <tspan x="190" y="36">der Kinder</tspan>
            </text>
            <text id="100%-Haupt--oder-Rea" font-family="BundesSans-Bold, BundesSans" font-size="12" font-weight="bold" line-spacing="12" fill="#454545">
                <tspan x="82.604" y="336">100%</tspan>
                <tspan x="48.644" y="348">Haupt- oder </tspan>
                <tspan x="12.824" y="360">Realschulabschluss</tspan>
            </text>
            <text id="100%-Fachhochschul-" font-family="BundesSans-Bold, BundesSans" font-size="12" font-weight="bold" line-spacing="12" fill="#454545">
                <tspan x="82.604" y="71">100%</tspan>
                <tspan x="4.76" y="83">Fachhochschul- oder </tspan>
                <tspan x="33.476" y="95">Hochschulreife</tspan>
            </text>
            <text id="18.7%-Fachhochschul-" font-family="BundesSans-Bold, BundesSans" font-size="12" font-weight="bold" line-spacing="12" fill="#454545">
                <tspan x="190" y="394">18.7%</tspan>
                <tspan x="190" y="406" font-family="BundesSans-Regular, BundesSans" font-weight="normal">Fachhochschul- oder </tspan>
                <tspan x="190" y="418" font-family="BundesSans-Regular, BundesSans" font-weight="normal">Hochschulreife</tspan>
            </text>
            <text id="78.6%-Haupt--oder-Re" font-family="BundesSans-Bold, BundesSans" font-size="12" font-weight="bold" line-spacing="12" fill="#454545">
                <tspan x="190" y="703">78.6%</tspan>
                <tspan x="190" y="715">Haupt- oder </tspan>
                <tspan x="190" y="727">Realschulabschluss</tspan>
            </text>
            <text id="2.7%-Kein-Schulabsch" font-family="BundesSans-Bold, BundesSans" font-size="12" font-weight="bold" line-spacing="12" fill="#454545">
                <tspan x="190" y="760">2.7%</tspan>
                <tspan x="190" y="772" font-family="BundesSans-Regular, BundesSans" font-weight="normal">Kein Schulabschluss</tspan>
            </text>
            <text id="62.0%-Fachhochschul-" font-family="BundesSans-Bold, BundesSans" font-size="12" font-weight="bold" line-spacing="12" fill="#454545">
                <tspan x="190" y="155">62.0%</tspan>
                <tspan x="190" y="167">Fachhochschul- oder </tspan>
                <tspan x="190" y="179">Hochschulreife</tspan>
            </text>
            <text id="35.2%-Haupt--oder-Re" font-family="BundesSans-Bold, BundesSans" font-size="12" font-weight="bold" line-spacing="12" fill="#454545">
                <tspan x="190" y="226">35.2%</tspan>
                <tspan x="190" y="238" font-family="BundesSans-Regular, BundesSans" font-weight="normal">Haupt- oder </tspan>
                <tspan x="190" y="250" font-family="BundesSans-Regular, BundesSans" font-weight="normal">Realschulabschluss</tspan>
            </text>
            <text id="2.9%-Kein-Schulabsch" font-family="BundesSans-Bold, BundesSans" font-size="12" font-weight="bold" line-spacing="12" fill="#454545">
                <tspan x="190" y="276">2.9%</tspan>
                <tspan x="190" y="288" font-family="BundesSans-Regular, BundesSans" font-weight="normal">Kein Schulabschluss</tspan>
            </text>
            <rect id="parents" fill="#FF8BA6" x="190" y="738" width="40" height="9"></rect>
            <rect id="parents" fill="#FF8BA6" x="190" y="261" width="40" height="2"></rect>
            <rect id="parents" fill="#C40046" x="70" y="367" width="40" height="332"></rect>
            <path d="M110,367 C150.185153,367.182455 150.185154,319.186748 190,319 C190,319.186748 190,328 190,328 C156.094116,328.181919 150,376.177626 110,376 C150.185154,376.177626 150.185154,376.177626 190,376 C190,385.857324 190,637 190,637 C150.185154,637.037564 150.185154,637.037564 110,637 C150.185154,637.037564 150.185154,685.033271 190,685 C190,685.033271 190,747 190,747 C150.185154,747 150.185154,699.004293 110,699 C110,699.004293 110,367.182455 110,367 Z" id="Rectangle-3" fill-opacity="0.1" fill="#000000" transform="translate(150.000000, 533.000000) scale(1, -1) translate(-150.000000, -533.000000) "></path>
            <rect id="parents" fill="#C40046" x="190" y="429" width="40" height="261"></rect>
            <rect id="parents" fill="#C40046" x="190" y="190" width="40" height="23"></rect>
            <rect id="parents" fill="#810019" x="70" y="102" width="40" height="65"></rect>
            <rect id="parents" fill="#810019" x="190" y="319" width="40" height="62"></rect>
            <rect id="parents" fill="#810019" x="190" y="102" width="40" height="40"></rect>
            <path d="M110,198 C147.282227,198.485664 150,102.00337 190,102 C190,102.00337 190,104 190,104 C150,104 150,199.898818 110,200 C150.185154,199.898818 150.185154,151.657671 190,152 L190,175 C150.185154,175.276559 150.185153,223 110,223 L190,223 C190,223 190,263 190,263 C150.185154,263 150.185154,263 110,263 L110,198 Z" id="Rectangle-3" fill-opacity="0.1" fill="#000000" transform="translate(150.000000, 182.500000) scale(1, -1) translate(-150.000000, -182.500000) "></path>
            <rect id="parents" fill="#FF8BA6" x="70" y="899" width="40" height="14"></rect>
            <rect id="parents" fill="#FF8BA6" x="190" y="910" width="40" height="3"></rect>
            <rect id="parents" fill="#C40046" x="190" y="852" width="40" height="10"></rect>
            <rect id="parents" fill="#810019" x="190" y="803" width="40" height="1"></rect>
            <path d="M110,803 L190,803 L190,806 C190,806 110,806.271264 110,806 C150,806.271264 150,854.232184 190,854.232184 L190,864 C150,864.898851 150,815.871264 110,815.8 C150,815.871264 150,912.85977 190,911.933333 C190,911.933333 190,913 190,913 C148.171143,913 149.206055,816.080811 110,816.933333 L110,803 Z" id="Rectangle-3" fill-opacity="0.1" fill="#000000" transform="translate(150.000000, 858.000000) scale(1, -1) translate(-150.000000, -858.000000) "></path>
            <text id="100%-Kein-Schulabsch" font-family="BundesSans-Bold, BundesSans" font-size="12" font-weight="bold" line-spacing="12" fill="#454545">
                <tspan x="82.604" y="880">100%</tspan>
                <tspan x="8.3" y="892">Kein Schulabschluss</tspan>
            </text>
            <text id="7.8%-Fachhochschul-" font-family="BundesSans-Bold, BundesSans" font-size="12" font-weight="bold" line-spacing="12" fill="#454545">
                <tspan x="190" y="817">7.8%</tspan>
                <tspan x="190" y="829" font-family="BundesSans-Regular, BundesSans" font-weight="normal">Fachhochschul- oder </tspan>
                <tspan x="190" y="841" font-family="BundesSans-Regular, BundesSans" font-weight="normal">Hochschulreife</tspan>
            </text>
            <text id="73.8%-Haupt--oder-Re" font-family="BundesSans-Bold, BundesSans" font-size="12" font-weight="bold" line-spacing="12" fill="#454545">
                <tspan x="190" y="875">73.8%</tspan>
                <tspan x="190" y="887" font-family="BundesSans-Regular, BundesSans" font-weight="normal">Haupt- oder </tspan>
                <tspan x="190" y="899" font-family="BundesSans-Regular, BundesSans" font-weight="normal">Realschulabschluss</tspan>
            </text>
            <text id="18.4%-Kein-Schulabsc" font-family="BundesSans-Bold, BundesSans" font-size="12" font-weight="bold" line-spacing="12" fill="#454545">
                <tspan x="190" y="926">18.4%</tspan>
                <tspan x="190" y="938">Kein Schulabschluss</tspan>
            </text>
        </g>
    </g>
</svg>