<?xml version="1.0" encoding="UTF-8"?>
<svg width="300px" height="1080px" viewBox="0 0 300 1080" version="1.1" xmlns="http://www.w3.org/2000/svg" xmlns:xlink="http://www.w3.org/1999/xlink">
    <!-- Generator: Sketch 48.1 (47250) - http://www.bohemiancoding.com/sketch -->
    <title>03-03-a95-s.de.chart</title>
    <desc>Created with Sketch.</desc>
    <defs></defs>
    <g id="1-static-charts" stroke="none" stroke-width="1" fill="none" fill-rule="evenodd">
        <g id="03-03-a95-s.de.chart">
            <text id="Schulabschluss-der-E" font-family="BundesSans-Bold, BundesSans" font-size="14" font-weight="bold" line-spacing="16" fill="#666666">
                <tspan x="20.876" y="20">Schulabschluss </tspan>
                <tspan x="51.76" y="36">der Eltern</tspan>
            </text>
            <text id="Schulabschluss-der-K" font-family="BundesSans-Bold, BundesSans" font-size="14" font-weight="bold" line-spacing="16" fill="#666666">
                <tspan x="190" y="20">Schulabschluss</tspan>
                <tspan x="190" y="36">der Kinder</tspan>
            </text>
            <text id="100%-Haupt--oder-Rea" font-family="BundesSans-Bold, BundesSans" font-size="12" font-weight="bold" line-spacing="12" fill="#454545">
                <tspan x="82.604" y="388">100%</tspan>
                <tspan x="48.644" y="400">Haupt- oder </tspan>
                <tspan x="12.824" y="412">Realschulabschluss</tspan>
            </text>
            <text id="100%-Fachhochschul-" font-family="BundesSans-Bold, BundesSans" font-size="12" font-weight="bold" line-spacing="12" fill="#454545">
                <tspan x="82.604" y="87">100%</tspan>
                <tspan x="4.76" y="99">Fachhochschul- oder </tspan>
                <tspan x="33.476" y="111">Hochschulreife</tspan>
            </text>
            <text id="18,7%-Fachhochschul-" font-family="BundesSans-Bold, BundesSans" font-size="12" font-weight="bold" line-spacing="12" fill="#454545">
                <tspan x="190" y="438">18,7%</tspan>
                <tspan x="190" y="450" font-family="BundesSans-Regular, BundesSans" font-weight="normal">Fachhochschul- oder </tspan>
                <tspan x="190" y="462" font-family="BundesSans-Regular, BundesSans" font-weight="normal">Hochschulreife</tspan>
            </text>
            <text id="78,6%-Haupt--oder-Re" font-family="BundesSans-Bold, BundesSans" font-size="12" font-weight="bold" line-spacing="12" fill="#454545">
                <tspan x="190" y="755">78,6%</tspan>
                <tspan x="190" y="767">Haupt- oder </tspan>
                <tspan x="190" y="779">Realschulabschluss</tspan>
            </text>
            <text id="2,7%-Kein-Schulabsch" font-family="BundesSans-Bold, BundesSans" font-size="12" font-weight="bold" line-spacing="12" fill="#454545">
                <tspan x="190" y="820">2,7%</tspan>
                <tspan x="190" y="832" font-family="BundesSans-Regular, BundesSans" font-weight="normal">Kein Schulabschluss</tspan>
            </text>
            <text id="62,0%-Fachhochschul-" font-family="BundesSans-Bold, BundesSans" font-size="12" font-weight="bold" line-spacing="12" fill="#454545">
                <tspan x="190" y="171">62,0%</tspan>
                <tspan x="190" y="183">Fachhochschul- oder </tspan>
                <tspan x="190" y="195">Hochschulreife</tspan>
            </text>
            <text id="35,2%-Haupt--oder-Re" font-family="BundesSans-Bold, BundesSans" font-size="12" font-weight="bold" line-spacing="12" fill="#454545">
                <tspan x="190" y="250">35,2%</tspan>
                <tspan x="190" y="262" font-family="BundesSans-Regular, BundesSans" font-weight="normal">Haupt- oder </tspan>
                <tspan x="190" y="274" font-family="BundesSans-Regular, BundesSans" font-weight="normal">Realschulabschluss</tspan>
            </text>
            <text id="2,9%-Kein-Schulabsch" font-family="BundesSans-Bold, BundesSans" font-size="12" font-weight="bold" line-spacing="12" fill="#454545">
                <tspan x="190" y="308">2,9%</tspan>
                <tspan x="190" y="320" font-family="BundesSans-Regular, BundesSans" font-weight="normal">Kein Schulabschluss</tspan>
            </text>
            <rect id="parents" fill="#FF8BA6" x="190" y="798" width="40" height="9"></rect>
            <rect id="parents" fill="#FF8BA6" x="190" y="293" width="40" height="2"></rect>
            <rect id="parents" fill="#C40046" x="70" y="419" width="40" height="332"></rect>
            <path d="M110,419 C150.185153,419.182455 150.185154,363.186748 190,363 C190,363.186748 190,372 190,372 C156.094116,372.181919 150,428.177626 110,428 C150.185154,428.177626 150.185154,428.177626 190,428 C190,437.857324 190,689 190,689 C150.185154,689.037564 150.185154,689.037564 110,689 C150.185154,689.037564 150.185154,745.033271 190,745 C190,745.033271 190,807 190,807 C150.185154,807 150.185154,751.004293 110,751 C110,751.004293 110,419.182455 110,419 Z" id="Rectangle-3" fill-opacity="0.1" fill="#000000" transform="translate(150.000000, 585.000000) scale(1, -1) translate(-150.000000, -585.000000) "></path>
            <rect id="parents" fill="#C40046" x="190" y="481" width="40" height="261"></rect>
            <rect id="parents" fill="#C40046" x="190" y="214" width="40" height="23"></rect>
            <rect id="parents" fill="#810019" x="70" y="118" width="40" height="65"></rect>
            <rect id="parents" fill="#810019" x="190" y="363" width="40" height="62"></rect>
            <rect id="parents" fill="#810019" x="190" y="118" width="40" height="40"></rect>
            <path d="M110,230 C147.282227,230.485664 150,118.00337 190,118 C190,118.00337 190,120 190,120 C150,120 150,231.898818 110,232 C150.185154,231.898818 150.185154,175.657671 190,176 L190,199 C150.185154,199.276559 150.185153,255 110,255 L190,255 C190,255 190,295 190,295 C150.185154,295 150.185154,295 110,295 L110,230 Z" id="Rectangle-3" fill-opacity="0.1" fill="#000000" transform="translate(150.000000, 206.500000) scale(1, -1) translate(-150.000000, -206.500000) "></path>
            <rect id="parents" fill="#FF8BA6" x="70" y="987" width="40" height="14"></rect>
            <rect id="parents" fill="#FF8BA6" x="190" y="998" width="40" height="3"></rect>
            <rect id="parents" fill="#C40046" x="190" y="932" width="40" height="10"></rect>
            <rect id="parents" fill="#810019" x="190" y="875" width="40" height="1"></rect>
            <path d="M110,875 L190,875 L190,878 C190,878 110,878.271264 110,878 C150,878.271264 150,934.232184 190,934.232184 L190,944 C150,944.898851 150,887.871264 110,887.8 C150,887.871264 150,1000.85977 190,999.933333 C190,999.933333 190,1001 190,1001 C148.171143,1001 149.206055,888.080811 110,888.933333 L110,875 Z" id="Rectangle-3" fill-opacity="0.1" fill="#000000" transform="translate(150.000000, 938.000000) scale(1, -1) translate(-150.000000, -938.000000) "></path>
            <text id="100%-Kein-Schulabsch" font-family="BundesSans-Bold, BundesSans" font-size="12" font-weight="bold" line-spacing="12" fill="#454545">
                <tspan x="82.604" y="968">100%</tspan>
                <tspan x="8.3" y="980">Kein Schulabschluss</tspan>
            </text>
            <text id="7,8%-Fachhochschul-" font-family="BundesSans-Bold, BundesSans" font-size="12" font-weight="bold" line-spacing="12" fill="#454545">
                <tspan x="190" y="889">7,8%</tspan>
                <tspan x="190" y="901" font-family="BundesSans-Regular, BundesSans" font-weight="normal">Fachhochschul- oder </tspan>
                <tspan x="190" y="913" font-family="BundesSans-Regular, BundesSans" font-weight="normal">Hochschulreife</tspan>
            </text>
            <text id="73,8%-Haupt--oder-Re" font-family="BundesSans-Bold, BundesSans" font-size="12" font-weight="bold" line-spacing="12" fill="#454545">
                <tspan x="190" y="955">73,8%</tspan>
                <tspan x="190" y="967" font-family="BundesSans-Regular, BundesSans" font-weight="normal">Haupt- oder </tspan>
                <tspan x="190" y="979" font-family="BundesSans-Regular, BundesSans" font-weight="normal">Realschulabschluss</tspan>
            </text>
            <text id="18,4%-Kein-Schulabsc" font-family="BundesSans-Bold, BundesSans" font-size="12" font-weight="bold" line-spacing="12" fill="#454545">
                <tspan x="190" y="1014">18,4%</tspan>
                <tspan x="190" y="1026">Kein Schulabschluss</tspan>
            </text>
        </g>
    </g>
</svg>