<?xml version="1.0" encoding="UTF-8"?>
<svg width="610px" height="779px" viewBox="0 0 610 779" version="1.1" xmlns="http://www.w3.org/2000/svg" xmlns:xlink="http://www.w3.org/1999/xlink">
    <!-- Generator: Sketch 45 (43475) - http://www.bohemiancoding.com/sketch -->
    <title>03-03-a95-l.en.chart</title>
    <desc>Created with Sketch.</desc>
    <defs></defs>
    <g id="1-static-charts" stroke="none" stroke-width="1" fill="none" fill-rule="evenodd">
        <g id="03-03-a95-l.en.chart">
            <text id="Parents’-education-l" font-family="BundesSans-Bold, BundesSans" font-size="14" font-weight="bold" fill="#666666">
                <tspan x="125.056" y="24">Parents’ education level</tspan>
            </text>
            <text id="Children’s-education" font-family="BundesSans-Bold, BundesSans" font-size="14" font-weight="bold" fill="#666666">
                <tspan x="345" y="24">Children’s education level</tspan>
            </text>
            <text id="100%-Middle-school-o" font-family="BundesSans-Bold, BundesSans" font-size="12" font-weight="bold" line-spacing="12" fill="#454545">
                <tspan x="181.604" y="413">100%</tspan>
                <tspan x="125.06" y="425">Middle school or</tspan>
                <tspan x="37.556" y="437">secondary modern school diploma</tspan>
            </text>
            <text id="100%-University-or-u" font-family="BundesSans-Bold, BundesSans" font-size="12" font-weight="bold" line-spacing="12" fill="#454545">
                <tspan x="181.604" y="55">100%</tspan>
                <tspan x="79.412" y="67">University or university of</tspan>
                <tspan x="14.924" y="79">applied sciences entrance qualification</tspan>
            </text>
            <text id="18.7%-University-or" font-family="BundesSans-Bold, BundesSans" font-size="12" font-weight="bold" line-spacing="12" fill="#454545">
                <tspan x="401" y="227">18.7%</tspan>
                <tspan x="401" y="239" font-family="BundesSans-Regular, BundesSans" font-weight="normal">University or university of</tspan>
                <tspan x="401" y="251" font-family="BundesSans-Regular, BundesSans" font-weight="normal">applied sciences entrance qualification</tspan>
            </text>
            <text id="78.6%-Middle-school" font-family="BundesSans-Bold, BundesSans" font-size="12" font-weight="bold" line-spacing="12" fill="#454545">
                <tspan x="401" y="413">78.6%</tspan>
                <tspan x="401" y="425">Middle school or</tspan>
                <tspan x="401" y="437">secondary modern school diploma</tspan>
            </text>
            <text id="2.7%-No-school-leavi" font-family="BundesSans-Bold, BundesSans" font-size="12" font-weight="bold" line-spacing="12" fill="#454545">
                <tspan x="401" y="576">2.7%</tspan>
                <tspan x="401" y="588" font-family="BundesSans-Regular, BundesSans" font-weight="normal">No school-leaving qualification</tspan>
            </text>
            <text id="62.0%-University-or" font-family="BundesSans-Bold, BundesSans" font-size="12" font-weight="bold" line-spacing="12" fill="#454545">
                <tspan x="401" y="49">62.0%</tspan>
                <tspan x="401" y="61">University or university of</tspan>
                <tspan x="401" y="73">applied sciences entrance qualification</tspan>
            </text>
            <text id="35.2%-Middle-school" font-family="BundesSans-Bold, BundesSans" font-size="12" font-weight="bold" line-spacing="12" fill="#454545">
                <tspan x="401" y="104">35.2%</tspan>
                <tspan x="401" y="116" font-family="BundesSans-Regular, BundesSans" font-weight="normal">Middle school or</tspan>
                <tspan x="401" y="128" font-family="BundesSans-Regular, BundesSans" font-weight="normal">secondary modern school diploma</tspan>
            </text>
            <text id="2.9%-No-school-leavi" font-family="BundesSans-Bold, BundesSans" font-size="12" font-weight="bold" line-spacing="12" fill="#454545">
                <tspan x="401" y="150">2.9%</tspan>
                <tspan x="401" y="162" font-family="BundesSans-Regular, BundesSans" font-weight="normal">No school-leaving qualification</tspan>
            </text>
            <rect id="parents" fill="#FF8BA6" x="345" y="576" width="40" height="9"></rect>
            <rect id="parents" fill="#FF8BA6" x="345" y="155" width="40" height="2"></rect>
            <rect id="parents" fill="#C40046" x="225" y="229" width="40" height="332"></rect>
            <path d="M265,229 C305.185153,229.182455 305.185154,205.186748 345,205 C345,205.186748 345,214 345,214 C311.094116,214.181919 305,238.177626 265,238 C305.185154,238.177626 305.185154,238.177626 345,238 C345,247.857324 345,499 345,499 C305.185154,499.037564 305.185154,499.037564 265,499 C305.185154,499.037564 305.185154,523.033271 345,523 C345,523.033271 345,585 345,585 C305.185154,585 305.185154,561.004293 265,561 C265,561.004293 265,229.182455 265,229 Z" id="Rectangle-3" fill-opacity="0.1" fill="#000000" transform="translate(305.000000, 395.000000) scale(1, -1) translate(-305.000000, -395.000000) "></path>
            <rect id="parents" fill="#C40046" x="345" y="291" width="40" height="261"></rect>
            <rect id="parents" fill="#C40046" x="345" y="104" width="40" height="23"></rect>
            <rect id="parents" fill="#810019" x="225" y="40" width="40" height="65"></rect>
            <rect id="parents" fill="#810019" x="345" y="205" width="40" height="62"></rect>
            <rect id="parents" fill="#810019" x="345" y="40" width="40" height="40"></rect>
            <path d="M265,92 C305.185153,92.4856642 305,40.0033705 345,40 C345,40.0033705 345,42 345,42 C305,42 305,93.8988181 265,94 C305.185154,93.8988181 305.185154,69.6576712 345,70 L345,93 C305.185154,93.2765594 305.185153,117 265,117 L345,117 C345,117 345,157 345,157 C305.185154,157 305.185154,157 265,157 L265,92 Z" id="Rectangle-3" fill-opacity="0.1" fill="#000000" transform="translate(305.000000, 98.500000) scale(1, -1) translate(-305.000000, -98.500000) "></path>
            <rect id="parents" fill="#FF8BA6" x="225" y="720" width="40" height="14"></rect>
            <rect id="parents" fill="#FF8BA6" x="345" y="731" width="40" height="3"></rect>
            <rect id="parents" fill="#C40046" x="345" y="680" width="40" height="10"></rect>
            <rect id="parents" fill="#810019" x="345" y="633" width="40" height="1"></rect>
            <path d="M265,633 L345,633 L345,636 C345,636 265,636.271264 265,636 C305,636.271264 305,677.232184 345,677.232184 L345,687 C305,687.898851 305,645.871264 265,645.8 C305,645.871264 305,733.85977 345,732.933333 C345,732.933333 345,734 345,734 C303.171143,734 304.206055,646.080811 265,646.933333 L265,633 Z" id="Rectangle-3" fill-opacity="0.1" fill="#000000" transform="translate(305.000000, 683.500000) scale(1, -1) translate(-305.000000, -683.500000) "></path>
            <text id="100%-No-school-leavi" font-family="BundesSans-Bold, BundesSans" font-size="12" font-weight="bold" line-spacing="12" fill="#454545">
                <tspan x="181.604" y="722">100%</tspan>
                <tspan x="52.184" y="734">No school-leaving qualification</tspan>
            </text>
            <text id="7.8%-University-or-u" font-family="BundesSans-Bold, BundesSans" font-size="12" font-weight="bold" line-spacing="12" fill="#454545">
                <tspan x="401" y="624">7.8%</tspan>
                <tspan x="401" y="636" font-family="BundesSans-Regular, BundesSans" font-weight="normal">University or university of</tspan>
                <tspan x="401" y="648" font-family="BundesSans-Regular, BundesSans" font-weight="normal">applied sciences entrance qualification</tspan>
            </text>
            <text id="73.8%-Middle-school" font-family="BundesSans-Bold, BundesSans" font-size="12" font-weight="bold" line-spacing="12" fill="#454545">
                <tspan x="401" y="676">73.8%</tspan>
                <tspan x="401" y="688" font-family="BundesSans-Regular, BundesSans" font-weight="normal">Middle school or</tspan>
                <tspan x="401" y="700" font-family="BundesSans-Regular, BundesSans" font-weight="normal">secondary modern school diploma</tspan>
            </text>
            <text id="18.4%-No-school-leav" font-family="BundesSans-Bold, BundesSans" font-size="12" font-weight="bold" line-spacing="12" fill="#454545">
                <tspan x="401" y="728">18.4%</tspan>
                <tspan x="401" y="740">No school-leaving qualification</tspan>
            </text>
        </g>
    </g>
</svg>