<?xml version="1.0" encoding="UTF-8"?>
<svg width="610px" height="462px" viewBox="0 0 610 462" version="1.1" xmlns="http://www.w3.org/2000/svg" xmlns:xlink="http://www.w3.org/1999/xlink">
    <!-- Generator: Sketch 48.1 (47250) - http://www.bohemiancoding.com/sketch -->
    <title>03-03-b14-l.en.chart</title>
    <desc>Created with Sketch.</desc>
    <defs></defs>
    <g id="1-static-charts" stroke="none" stroke-width="1" fill="none" fill-rule="evenodd">
        <g id="03-03-b14-l.en.chart">
            <text id="100%-Middle-school-o" font-family="BundesSans-Bold, BundesSans" font-size="12" font-weight="bold" line-spacing="12" fill="#454545">
                <tspan x="181.604" y="237">100%</tspan>
                <tspan x="125.06" y="249">Middle school or</tspan>
                <tspan x="37.556" y="261">secondary modern school diploma</tspan>
            </text>
            <text id="100%-University-or-u" font-family="BundesSans-Bold, BundesSans" font-size="12" font-weight="bold" line-spacing="12" fill="#454545">
                <tspan x="181.604" y="47">100%</tspan>
                <tspan x="79.412" y="59">University or university of</tspan>
                <tspan x="14.924" y="71">applied sciences entrance qualification</tspan>
            </text>
            <text id="31%-University-or-un" font-family="BundesSans-Bold, BundesSans" font-size="12" font-weight="bold" line-spacing="12" fill="#454545">
                <tspan x="401" y="185">31%</tspan>
                <tspan x="401" y="197" font-family="BundesSans-Regular, BundesSans" font-weight="normal">University or university of</tspan>
                <tspan x="401" y="209" font-family="BundesSans-Regular, BundesSans" font-weight="normal">applied sciences entrance qualification</tspan>
            </text>
            <text id="64.4%-Middle-school" font-family="BundesSans-Bold, BundesSans" font-size="12" font-weight="bold" line-spacing="12" fill="#454545">
                <tspan x="401" y="237">64.4%</tspan>
                <tspan x="401" y="249">Middle school or</tspan>
                <tspan x="401" y="261">secondary modern school diploma</tspan>
            </text>
            <text id="4.5%-No-school-leavi" font-family="BundesSans-Bold, BundesSans" font-size="12" font-weight="bold" line-spacing="12" fill="#454545">
                <tspan x="401" y="287">4.5%</tspan>
                <tspan x="401" y="299" font-family="BundesSans-Regular, BundesSans" font-weight="normal">No school-leaving qualification</tspan>
            </text>
            <text id="64.3%-University-or" font-family="BundesSans-Bold, BundesSans" font-size="12" font-weight="bold" line-spacing="12" fill="#454545">
                <tspan x="401" y="41">64.3%</tspan>
                <tspan x="401" y="53">University or university of</tspan>
                <tspan x="401" y="65">applied sciences entrance qualification</tspan>
            </text>
            <text id="32%-Middle-school-or" font-family="BundesSans-Bold, BundesSans" font-size="12" font-weight="bold" line-spacing="12" fill="#454545">
                <tspan x="401" y="87">32%</tspan>
                <tspan x="401" y="99" font-family="BundesSans-Regular, BundesSans" font-weight="normal">Middle school or</tspan>
                <tspan x="401" y="111" font-family="BundesSans-Regular, BundesSans" font-weight="normal">secondary modern school diploma</tspan>
            </text>
            <text id="3.7%-No-school-leavi" font-family="BundesSans-Bold, BundesSans" font-size="12" font-weight="bold" line-spacing="12" fill="#454545">
                <tspan x="401" y="133">3.7%</tspan>
                <tspan x="401" y="145" font-family="BundesSans-Regular, BundesSans" font-weight="normal">No school-leaving qualification</tspan>
            </text>
            <rect id="parents" fill="#FF8BA6" x="345" y="289" width="40" height="2"></rect>
            <rect id="parents" fill="#FF8BA6" x="345" y="139" width="40" height="1"></rect>
            <rect id="parents" fill="#C40046" x="225" y="210" width="40" height="57"></rect>
            <path d="M265,212 C305.185153,212.182455 305.185154,188.186748 345,188 C345,188.186748 345,190 345,190 C311.094116,190.181919 305,214.177626 265,214 C305.185154,214.177626 305.185154,214.177626 345,214 C345,223.857324 345,251 345,251 C305.185154,251.037564 305.185154,251.037564 265,251 C305.043834,251.037432 319.128276,275.02162 345,275 C345,275.033271 345,291 345,291 C305.185154,291 305.185154,269.004293 265,269 C265,269.004293 265,212.182455 265,212 Z" id="flow" fill-opacity="0.1" fill="#000000" transform="translate(305.000000, 239.500000) scale(1, -1) translate(-305.000000, -239.500000) "></path>
            <rect id="parents" fill="#C40046" x="345" y="228" width="40" height="37"></rect>
            <rect id="parents" fill="#C40046" x="345" y="95" width="40" height="8"></rect>
            <rect id="parents" fill="#810019" x="225" y="40" width="40" height="25"></rect>
            <rect id="parents" fill="#810019" x="345" y="188" width="40" height="16"></rect>
            <rect id="parents" fill="#810019" x="345" y="40" width="40" height="15"></rect>
            <path d="M265,115 C303.627197,115.621094 305,40.0033705 345,40 C345,40.0033705 345,41 345,41 C305,41 305,115.898818 265,116 C305,116 299,77 345,77 L345,85 C305.185154,85.2765594 305.185153,125 265,125 C305.185153,125 305,125 345,125 C345,125 345,140 345,140 C305.185154,140 305.185154,140 265,140 L265,115 Z" id="flow" fill-opacity="0.1" fill="#000000" transform="translate(305.000000, 90.000000) scale(1, -1) translate(-305.000000, -90.000000) "></path>
            <rect id="parents" fill="#FF8BA6" x="225" y="408" width="40" height="14"></rect>
            <rect id="parents" fill="#FF8BA6" x="345" y="420" width="40" height="2"></rect>
            <rect id="parents" fill="#C40046" x="345" y="382" width="40" height="8"></rect>
            <rect id="parents" fill="#810019" x="345" y="339" width="40" height="3"></rect>
            <path d="M265,339 L345,339 L345,341 C345,341 265,341.271264 265,341 C305,341.271264 305,371.232184 345,371 L345,379 C305,379.898851 307,349.871264 265,350 C305,349.871264 306,419 345,419 C345,419 345,422 345,422 C303,422 302,353 265,353 L265,339 Z" id="flow" fill-opacity="0.1" fill="#000000" transform="translate(305.000000, 380.500000) scale(1, -1) translate(-305.000000, -380.500000) "></path>
            <text id="100%-No-school-leavi" font-family="BundesSans-Bold, BundesSans" font-size="12" font-weight="bold" line-spacing="12" fill="#454545">
                <tspan x="181.604" y="411">100%</tspan>
                <tspan x="52.184" y="423">No school-leaving qualification</tspan>
            </text>
            <text id="25.9%-University-or" font-family="BundesSans-Bold, BundesSans" font-size="12" font-weight="bold" line-spacing="12" fill="#454545">
                <tspan x="401" y="329">25.9%</tspan>
                <tspan x="401" y="341" font-family="BundesSans-Regular, BundesSans" font-weight="normal">University or university of</tspan>
                <tspan x="401" y="353" font-family="BundesSans-Regular, BundesSans" font-weight="normal">applied sciences entrance qualification</tspan>
            </text>
            <text id="56.2%-Middle-school" font-family="BundesSans-Bold, BundesSans" font-size="12" font-weight="bold" line-spacing="12" fill="#454545">
                <tspan x="401" y="373">56.2%</tspan>
                <tspan x="401" y="385" font-family="BundesSans-Regular, BundesSans" font-weight="normal">Middle school or</tspan>
                <tspan x="401" y="397" font-family="BundesSans-Regular, BundesSans" font-weight="normal">secondary modern school diploma</tspan>
            </text>
            <text id="17.9%-No-school-leav" font-family="BundesSans-Bold, BundesSans" font-size="12" font-weight="bold" line-spacing="12" fill="#454545">
                <tspan x="401" y="417">17.9%</tspan>
                <tspan x="401" y="429">No school-leaving qualification</tspan>
            </text>
            <text id="Parents’-education-l" font-family="BundesSans-Bold, BundesSans" font-size="14" font-weight="bold" fill="#666666">
                <tspan x="125.056" y="24">Parents’ education level</tspan>
            </text>
            <text id="Children’s-education" font-family="BundesSans-Bold, BundesSans" font-size="14" font-weight="bold" fill="#666666">
                <tspan x="345" y="24">Children’s education level</tspan>
            </text>
        </g>
    </g>
</svg>