<?xml version="1.0" encoding="UTF-8"?>
<svg width="300px" height="1232px" viewBox="0 0 300 1232" version="1.1" xmlns="http://www.w3.org/2000/svg" xmlns:xlink="http://www.w3.org/1999/xlink">
    <!-- Generator: Sketch 42 (36781) - http://www.bohemiancoding.com/sketch -->
    <title>03-03-a_s_chart-1995-english</title>
    <desc>Created with Sketch.</desc>
    <defs></defs>
    <g id="4-s-dashboard-charts" stroke="none" stroke-width="1" fill="none" fill-rule="evenodd">
        <g id="03-03-a_s_chart-1995-english">
            <text id="Parents’-education-l" font-family="BundesSans-Bold, BundesSans" font-size="14" font-weight="bold" line-spacing="16" fill="#666666">
                <tspan x="62.176" y="20">Parents’ </tspan>
                <tspan x="20.792" y="36">education level</tspan>
            </text>
            <text id="Children’s-education" font-family="BundesSans-Bold, BundesSans" font-size="14" font-weight="bold" line-spacing="16" fill="#666666">
                <tspan x="190" y="20">Children’s </tspan>
                <tspan x="190" y="36">education level</tspan>
            </text>
            <text id="100%-Middle-school-o" font-family="BundesSans-Bold, BundesSans" font-size="12" font-weight="bold" line-spacing="12" fill="#454545">
                <tspan x="82.604" y="456">100%</tspan>
                <tspan x="26.06" y="468">Middle school or</tspan>
                <tspan x="17.564" y="480">secondary modern</tspan>
                <tspan x="33.488" y="492">school diploma</tspan>
            </text>
            <text id="100%-University-or-u" font-family="BundesSans-Bold, BundesSans" font-size="12" font-weight="bold" line-spacing="12" fill="#454545">
                <tspan x="82.604" y="71">100%</tspan>
                <tspan x="45.572" y="83">University or</tspan>
                <tspan x="47.336" y="95">university of</tspan>
                <tspan x="28.592" y="107">applied sciences</tspan>
                <tspan x="-0.172" y="119">entrance qualification</tspan>
            </text>
            <text id="18.7%-University-or" font-family="BundesSans-Bold, BundesSans" font-size="12" font-weight="bold" line-spacing="12" fill="#454545">
                <tspan x="190" y="494">18.7%</tspan>
                <tspan x="190" y="506" font-family="BundesSans-Regular, BundesSans" font-weight="normal">University or</tspan>
                <tspan x="190" y="518" font-family="BundesSans-Regular, BundesSans" font-weight="normal">university of</tspan>
                <tspan x="190" y="530" font-family="BundesSans-Regular, BundesSans" font-weight="normal">applied sciences</tspan>
                <tspan x="190" y="542" font-family="BundesSans-Regular, BundesSans" font-weight="normal">entrance qualification</tspan>
            </text>
            <text id="78.6%-Middle-school" font-family="BundesSans-Bold, BundesSans" font-size="12" font-weight="bold" line-spacing="12" fill="#454545">
                <tspan x="190" y="835">78.6%</tspan>
                <tspan x="190" y="847">Middle school or</tspan>
                <tspan x="190" y="859">secondary modern</tspan>
                <tspan x="190" y="871">school diploma</tspan>
            </text>
            <text id="2.7%-No-school-leavi" font-family="BundesSans-Bold, BundesSans" font-size="12" font-weight="bold" line-spacing="12" fill="#454545">
                <tspan x="190" y="912">2.7%</tspan>
                <tspan x="190" y="924" font-family="BundesSans-Regular, BundesSans" font-weight="normal">No school-leaving</tspan>
                <tspan x="190" y="936" font-family="BundesSans-Regular, BundesSans" font-weight="normal">qualification</tspan>
            </text>
            <text id="62.0%-University-or" font-family="BundesSans-Bold, BundesSans" font-size="12" font-weight="bold" line-spacing="12" fill="#454545">
                <tspan x="190" y="179">62.0%</tspan>
                <tspan x="190" y="191">University or</tspan>
                <tspan x="190" y="203">university of</tspan>
                <tspan x="190" y="215">applied sciences</tspan>
                <tspan x="190" y="227">entrance qualification</tspan>
            </text>
            <text id="35.2%-Middle-school" font-family="BundesSans-Bold, BundesSans" font-size="12" font-weight="bold" line-spacing="12" fill="#454545">
                <tspan x="190" y="282">35.2%</tspan>
                <tspan x="190" y="294" font-family="BundesSans-Regular, BundesSans" font-weight="normal">Middle school or</tspan>
                <tspan x="190" y="306" font-family="BundesSans-Regular, BundesSans" font-weight="normal">secondary modern</tspan>
                <tspan x="190" y="318" font-family="BundesSans-Regular, BundesSans" font-weight="normal">school diploma</tspan>
            </text>
            <text id="2.9%-No-school-leavi" font-family="BundesSans-Bold, BundesSans" font-size="12" font-weight="bold" line-spacing="12" fill="#454545">
                <tspan x="190" y="352">2.9%</tspan>
                <tspan x="190" y="364" font-family="BundesSans-Regular, BundesSans" font-weight="normal">No school-leaving</tspan>
                <tspan x="190" y="376" font-family="BundesSans-Regular, BundesSans" font-weight="normal">qualification</tspan>
            </text>
            <rect id="parents" fill="#FF8BA6" x="190" y="890" width="40" height="9"></rect>
            <rect id="parents" fill="#FF8BA6" x="190" y="337" width="40" height="2"></rect>
            <rect id="parents" fill="#C40046" x="70" y="499" width="40" height="332"></rect>
            <path d="M110,487 C150.185153,487.182455 150.185154,419.186748 190,419 C190,419.186748 190,428 190,428 C156.094116,428.181919 150,496.177626 110,496 C150.185154,496.177626 150.185154,496.177626 190,496 C190,505.857324 190,757 190,757 C150.185154,757.037564 150.185154,757.037564 110,757 C150.185154,757.037564 150.185154,837.033271 190,837 C190,837.033271 190,899 190,899 C150.185154,899 150.185154,819.004293 110,819 C110,819.004293 110,487.182455 110,487 Z" id="Rectangle-3" fill-opacity="0.1" fill="#000000" transform="translate(150.000000, 659.000000) scale(1, -1) translate(-150.000000, -659.000000) "></path>
            <rect id="parents" fill="#C40046" x="190" y="561" width="40" height="261"></rect>
            <rect id="parents" fill="#C40046" x="190" y="246" width="40" height="23"></rect>
            <rect id="parents" fill="#810019" x="70" y="126" width="40" height="65"></rect>
            <rect id="parents" fill="#810019" x="190" y="419" width="40" height="62"></rect>
            <rect id="parents" fill="#810019" x="190" y="126" width="40" height="40"></rect>
            <path d="M110,274 C147.282227,274.485664 150,126.00337 190,126 C190,126.00337 190,128 190,128 C150,128 150,275.898818 110,276 C150.185154,275.898818 150.185154,195.657671 190,196 L190,219 C150.185154,219.276559 150.185153,299 110,299 L190,299 C190,299 190,339 190,339 C150.185154,339 150.185154,339 110,339 L110,274 Z" id="Rectangle-3" fill-opacity="0.1" fill="#000000" transform="translate(150.000000, 232.500000) scale(1, -1) translate(-150.000000, -232.500000) "></path>
            <rect id="parents" fill="#FF8BA6" x="70" y="1127" width="40" height="14"></rect>
            <rect id="parents" fill="#FF8BA6" x="190" y="1138" width="40" height="3"></rect>
            <rect id="parents" fill="#C40046" x="190" y="1060" width="40" height="10"></rect>
            <rect id="parents" fill="#810019" x="190" y="979" width="40" height="1"></rect>
            <path d="M110,979 L190,979 L190,982 C190,982 110,982.271264 110,982 C150,982.271264 150,1050.23218 190,1050.23218 L190,1060 C150,1060.89885 150,991.871264 110,991.8 C150,991.871264 150,1140.85977 190,1139.93333 C190,1139.93333 190,1141 190,1141 C148.171143,1141 149.206055,992.080811 110,992.933333 L110,979 Z" id="Rectangle-3" fill-opacity="0.1" fill="#000000" transform="translate(150.000000, 1060.000000) scale(1, -1) translate(-150.000000, -1060.000000) "></path>
            <text id="100%-No-school-leavi" font-family="BundesSans-Bold, BundesSans" font-size="12" font-weight="bold" line-spacing="12" fill="#454545">
                <tspan x="82.604" y="1096">100%</tspan>
                <tspan x="19.184" y="1108">No school-leaving</tspan>
                <tspan x="46.496" y="1120">qualification</tspan>
            </text>
            <text id="7.8%-University-or-u" font-family="BundesSans-Bold, BundesSans" font-size="12" font-weight="bold" line-spacing="12" fill="#454545">
                <tspan x="190" y="993">7.8%</tspan>
                <tspan x="190" y="1005" font-family="BundesSans-Regular, BundesSans" font-weight="normal">University or</tspan>
                <tspan x="190" y="1017" font-family="BundesSans-Regular, BundesSans" font-weight="normal">university of</tspan>
                <tspan x="190" y="1029" font-family="BundesSans-Regular, BundesSans" font-weight="normal">applied sciences</tspan>
                <tspan x="190" y="1041" font-family="BundesSans-Regular, BundesSans" font-weight="normal">entrance qualification</tspan>
            </text>
            <text id="73.8%-Middle-school" font-family="BundesSans-Bold, BundesSans" font-size="12" font-weight="bold" line-spacing="12" fill="#454545">
                <tspan x="190" y="1083">73.8%</tspan>
                <tspan x="190" y="1095" font-family="BundesSans-Regular, BundesSans" font-weight="normal">Middle school or</tspan>
                <tspan x="190" y="1107" font-family="BundesSans-Regular, BundesSans" font-weight="normal">secondary modern</tspan>
                <tspan x="190" y="1119" font-family="BundesSans-Regular, BundesSans" font-weight="normal">school diploma</tspan>
            </text>
            <text id="18.4%-No-school-leav" font-family="BundesSans-Bold, BundesSans" font-size="12" font-weight="bold" line-spacing="12" fill="#454545">
                <tspan x="190" y="1154">18.4%</tspan>
                <tspan x="190" y="1166">No school-leaving</tspan>
                <tspan x="190" y="1178">qualification</tspan>
            </text>
        </g>
    </g>
</svg>