<?xml version="1.0" encoding="UTF-8"?>
<svg width="610px" height="412px" viewBox="0 0 610 412" version="1.1" xmlns="http://www.w3.org/2000/svg" xmlns:xlink="http://www.w3.org/1999/xlink">
    <!-- Generator: Sketch 48.1 (47250) - http://www.bohemiancoding.com/sketch -->
    <title>03-03-b14-l.de.chart</title>
    <desc>Created with Sketch.</desc>
    <defs></defs>
    <g id="1-static-charts" stroke="none" stroke-width="1" fill="none" fill-rule="evenodd">
        <g id="03-03-b14-l.de.chart">
            <text id="Schulabschluss-der-E" font-family="BundesSans-Bold, BundesSans" font-size="14" font-weight="bold" fill="#666666">
                <tspan x="114.724" y="24">Schulabschluss der Eltern</tspan>
            </text>
            <text id="Schulabschluss-der-K" font-family="BundesSans-Bold, BundesSans" font-size="14" font-weight="bold" fill="#666666">
                <tspan x="345" y="24">Schulabschluss der Kinder</tspan>
            </text>
            <text id="100%-Haupt--oder-Rea" font-family="BundesSans-Bold, BundesSans" font-size="12" font-weight="bold" line-spacing="12" fill="#454545">
                <tspan x="181.604" y="216">100%</tspan>
                <tspan x="47.972" y="228">Haupt- oder Realschulabschluss</tspan>
            </text>
            <text id="100%-Fachhochschul-" font-family="BundesSans-Bold, BundesSans" font-size="12" font-weight="bold" line-spacing="12" fill="#454545">
                <tspan x="181.604" y="47">100%</tspan>
                <tspan x="24.74" y="59">Fachhochschul- oder Hochschulreife</tspan>
            </text>
            <text id="31%-Fachhochschul--o" font-family="BundesSans-Bold, BundesSans" font-size="12" font-weight="bold" line-spacing="12" fill="#454545">
                <tspan x="401" y="164">31%</tspan>
                <tspan x="401" y="176" font-family="BundesSans-Regular, BundesSans" font-weight="normal">Fachhochschul- oder Hochschulreife</tspan>
            </text>
            <text id="64,4%-Haupt--oder-Re" font-family="BundesSans-Bold, BundesSans" font-size="12" font-weight="bold" line-spacing="12" fill="#454545">
                <tspan x="401" y="216">64,4%</tspan>
                <tspan x="401" y="228">Haupt- oder Realschulabschluss</tspan>
            </text>
            <text id="4,5%-Kein-Schulabsch" font-family="BundesSans-Bold, BundesSans" font-size="12" font-weight="bold" line-spacing="12" fill="#454545">
                <tspan x="401" y="258">4,5%</tspan>
                <tspan x="401" y="270" font-family="BundesSans-Regular, BundesSans" font-weight="normal">Kein Schulabschluss</tspan>
            </text>
            <text id="64,3%-Fachhochschul-" font-family="BundesSans-Bold, BundesSans" font-size="12" font-weight="bold" line-spacing="12" fill="#454545">
                <tspan x="401" y="43">64,3%</tspan>
                <tspan x="401" y="55">Fachhochschul- oder Hochschulreife</tspan>
            </text>
            <text id="32%-Haupt--oder-Real" font-family="BundesSans-Bold, BundesSans" font-size="12" font-weight="bold" line-spacing="12" fill="#454545">
                <tspan x="401" y="77">32%</tspan>
                <tspan x="401" y="89" font-family="BundesSans-Regular, BundesSans" font-weight="normal">Haupt- oder Realschulabschluss</tspan>
            </text>
            <text id="3,7%-Kein-Schulabsch" font-family="BundesSans-Bold, BundesSans" font-size="12" font-weight="bold" line-spacing="12" fill="#454545">
                <tspan x="401" y="109">3,7%</tspan>
                <tspan x="401" y="121" font-family="BundesSans-Regular, BundesSans" font-weight="normal">Kein Schulabschluss</tspan>
            </text>
            <rect id="parents" fill="#FF8BA6" x="345" y="261" width="40" height="2"></rect>
            <rect id="parents" fill="#FF8BA6" x="345" y="111" width="40" height="1"></rect>
            <rect id="parents" fill="#C40046" x="225" y="182" width="40" height="57"></rect>
            <path d="M265,184 C305.185153,184.182455 305.185154,160.186748 345,160 C345,160.186748 345,162 345,162 C311.094116,162.181919 305,186.177626 265,186 C305.185154,186.177626 305.185154,186.177626 345,186 C345,195.857324 345,223 345,223 C305.185154,223.037564 305.185154,223.037564 265,223 C305.043834,223.037432 319.128276,247.02162 345,247 C345,247.033271 345,263 345,263 C305.185154,263 305.185154,241.004293 265,241 C265,241.004293 265,184.182455 265,184 Z" id="flow" fill-opacity="0.1" fill="#000000" transform="translate(305.000000, 211.500000) scale(1, -1) translate(-305.000000, -211.500000) "></path>
            <rect id="parents" fill="#C40046" x="345" y="200" width="40" height="37"></rect>
            <rect id="parents" fill="#C40046" x="345" y="79" width="40" height="8"></rect>
            <rect id="parents" fill="#810019" x="225" y="40" width="40" height="25"></rect>
            <rect id="parents" fill="#810019" x="345" y="160" width="40" height="16"></rect>
            <rect id="parents" fill="#810019" x="345" y="40" width="40" height="15"></rect>
            <path d="M265,87 C303.627197,87.6210938 305,40.0033705 345,40 C345,40.0033705 345,41 345,41 C305,41 305,87.8988181 265,88 C305.185154,87.8988181 297,65 345,65 L345,73 C305.185154,73.2765594 305.185153,97 265,97 L345,97 C345,97 345,112 345,112 C305.185154,112 305.185154,112 265,112 L265,87 Z" id="flow" fill-opacity="0.1" fill="#000000" transform="translate(305.000000, 76.000000) scale(1, -1) translate(-305.000000, -76.000000) "></path>
            <rect id="parents" fill="#FF8BA6" x="225" y="358" width="40" height="14"></rect>
            <rect id="parents" fill="#FF8BA6" x="345" y="370" width="40" height="2"></rect>
            <rect id="parents" fill="#C40046" x="345" y="338" width="40" height="8"></rect>
            <rect id="parents" fill="#810019" x="345" y="311" width="40" height="3"></rect>
            <path d="M265,311 L345,311 L345,313 C345,313 265,313.271264 265,313 C305,313.271264 305,337.232184 345,337 L345,345 C305,345.898851 305,321.871264 265,322 C305,321.871264 303.5,369 345,369 C345,369 345,372 345,372 C301,372 303.5,325 265,325 L265,311 Z" id="flow" fill-opacity="0.1" fill="#000000" transform="translate(305.000000, 341.500000) scale(1, -1) translate(-305.000000, -341.500000) "></path>
            <text id="100%-Kein-Schulabsch" font-family="BundesSans-Bold, BundesSans" font-size="12" font-weight="bold" line-spacing="12" fill="#454545">
                <tspan x="181.604" y="361">100%</tspan>
                <tspan x="107.3" y="373">Kein Schulabschluss</tspan>
            </text>
            <text id="25,9%-Fachhochschul-" font-family="BundesSans-Bold, BundesSans" font-size="12" font-weight="bold" line-spacing="12" fill="#454545">
                <tspan x="401" y="307">25,9%</tspan>
                <tspan x="401" y="319" font-family="BundesSans-Regular, BundesSans" font-weight="normal">Fachhochschul- oder Hochschulreife</tspan>
            </text>
            <text id="56,2%-Haupt--oder-Re" font-family="BundesSans-Bold, BundesSans" font-size="12" font-weight="bold" line-spacing="12" fill="#454545">
                <tspan x="401" y="337">56,2%</tspan>
                <tspan x="401" y="349" font-family="BundesSans-Regular, BundesSans" font-weight="normal">Haupt- oder Realschulabschluss</tspan>
            </text>
            <text id="17,9%-Kein-Schulabsc" font-family="BundesSans-Bold, BundesSans" font-size="12" font-weight="bold" line-spacing="12" fill="#454545">
                <tspan x="401" y="367">17,9%</tspan>
                <tspan x="401" y="379">Kein Schulabschluss</tspan>
            </text>
        </g>
    </g>
</svg>