<?xml version="1.0" encoding="UTF-8"?>
<svg width="300px" height="752px" viewBox="0 0 300 752" version="1.1" xmlns="http://www.w3.org/2000/svg" xmlns:xlink="http://www.w3.org/1999/xlink">
    <!-- Generator: Sketch 48.1 (47250) - http://www.bohemiancoding.com/sketch -->
    <title>03-03-b14-s.de.chart</title>
    <desc>Created with Sketch.</desc>
    <defs></defs>
    <g id="1-static-charts" stroke="none" stroke-width="1" fill="none" fill-rule="evenodd">
        <g id="03-03-b14-s.de.chart">
            <text id="Schulabschluss-der-E" font-family="BundesSans-Bold, BundesSans" font-size="14" font-weight="bold" line-spacing="16" fill="#666666">
                <tspan x="20.876" y="20">Schulabschluss </tspan>
                <tspan x="51.76" y="36">der Eltern</tspan>
            </text>
            <text id="Schulabschluss-der-K" font-family="BundesSans-Bold, BundesSans" font-size="14" font-weight="bold" line-spacing="16" fill="#666666">
                <tspan x="190" y="20">Schulabschluss</tspan>
                <tspan x="190" y="36">der Kinder</tspan>
            </text>
            <text id="100%-Haupt--oder-Rea" font-family="BundesSans-Bold, BundesSans" font-size="12" font-weight="bold" line-spacing="12" fill="#454545">
                <tspan x="82.604" y="343">100%</tspan>
                <tspan x="48.644" y="355">Haupt- oder </tspan>
                <tspan x="12.824" y="367">Realschulabschluss</tspan>
            </text>
            <text id="100%-Fachhochschul-" font-family="BundesSans-Bold, BundesSans" font-size="12" font-weight="bold" line-spacing="12" fill="#454545">
                <tspan x="82.604" y="89">100%</tspan>
                <tspan x="4.76" y="101">Fachhochschul- oder </tspan>
                <tspan x="33.476" y="113">Hochschulreife</tspan>
            </text>
            <text id="31%-Fachhochschul--o" font-family="BundesSans-Bold, BundesSans" font-size="12" font-weight="bold" line-spacing="12" fill="#454545">
                <tspan x="190" y="349">31%</tspan>
                <tspan x="190" y="361" font-family="BundesSans-Regular, BundesSans" font-weight="normal">Fachhochschul- oder </tspan>
                <tspan x="190" y="373" font-family="BundesSans-Regular, BundesSans" font-weight="normal">Hochschulreife</tspan>
            </text>
            <text id="64,4%-Haupt--oder-Re" font-family="BundesSans-Bold, BundesSans" font-size="12" font-weight="bold" line-spacing="12" fill="#454545">
                <tspan x="190" y="442">64,4%</tspan>
                <tspan x="190" y="454">Haupt- oder </tspan>
                <tspan x="190" y="466">Realschulabschluss</tspan>
            </text>
            <text id="4,5%-Kein-Schulabsch" font-family="BundesSans-Bold, BundesSans" font-size="12" font-weight="bold" line-spacing="12" fill="#454545">
                <tspan x="190" y="500">4,5%</tspan>
                <tspan x="190" y="512" font-family="BundesSans-Regular, BundesSans" font-weight="normal">Kein Schulabschluss</tspan>
            </text>
            <text id="64,3%-Fachhochschul-" font-family="BundesSans-Bold, BundesSans" font-size="12" font-weight="bold" line-spacing="12" fill="#454545">
                <tspan x="190" y="148">64,3%</tspan>
                <tspan x="190" y="160">Fachhochschul- oder </tspan>
                <tspan x="190" y="172">Hochschulreife</tspan>
            </text>
            <text id="32%-Haupt--oder-Real" font-family="BundesSans-Bold, BundesSans" font-size="12" font-weight="bold" line-spacing="12" fill="#454545">
                <tspan x="190" y="212">32%</tspan>
                <tspan x="190" y="224" font-family="BundesSans-Regular, BundesSans" font-weight="normal">Haupt- oder </tspan>
                <tspan x="190" y="236" font-family="BundesSans-Regular, BundesSans" font-weight="normal">Realschulabschluss</tspan>
            </text>
            <text id="3,7%-Kein-Schulabsch" font-family="BundesSans-Bold, BundesSans" font-size="12" font-weight="bold" line-spacing="12" fill="#454545">
                <tspan x="190" y="269">3,7%</tspan>
                <tspan x="190" y="281" font-family="BundesSans-Regular, BundesSans" font-weight="normal">Kein Schulabschluss</tspan>
            </text>
            <text id="100%-Kein-Schulabsch" font-family="BundesSans-Bold, BundesSans" font-size="12" font-weight="bold" line-spacing="12" fill="#454545">
                <tspan x="82.604" y="643">100%</tspan>
                <tspan x="8.3" y="655">Kein Schulabschluss</tspan>
            </text>
            <text id="25,9%-Fachhochschul-" font-family="BundesSans-Bold, BundesSans" font-size="12" font-weight="bold" line-spacing="12" fill="#454545">
                <tspan x="190" y="567">25,9%</tspan>
                <tspan x="190" y="579" font-family="BundesSans-Regular, BundesSans" font-weight="normal">Fachhochschul- oder </tspan>
                <tspan x="190" y="591" font-family="BundesSans-Regular, BundesSans" font-weight="normal">Hochschulreife</tspan>
            </text>
            <text id="56,2%-Haupt--oder-Re" font-family="BundesSans-Bold, BundesSans" font-size="12" font-weight="bold" line-spacing="12" fill="#454545">
                <tspan x="190" y="631">56,2%</tspan>
                <tspan x="190" y="643" font-family="BundesSans-Regular, BundesSans" font-weight="normal">Haupt- oder </tspan>
                <tspan x="190" y="655" font-family="BundesSans-Regular, BundesSans" font-weight="normal">Realschulabschluss</tspan>
            </text>
            <text id="17,9%-Kein-Schulabsc" font-family="BundesSans-Bold, BundesSans" font-size="12" font-weight="bold" line-spacing="12" fill="#454545">
                <tspan x="190" y="689">17,9%</tspan>
                <tspan x="190" y="701">Kein Schulabschluss</tspan>
            </text>
            <g id="Group-3" transform="translate(70.000000, 551.000000)">
                <rect id="parents" fill="#FF8BA6" x="0" y="111" width="40" height="14"></rect>
                <rect id="parents" fill="#FF8BA6" x="120" y="123" width="40" height="2"></rect>
                <rect id="parents" fill="#C40046" x="120" y="59" width="40" height="8"></rect>
                <rect id="parents" fill="#810019" x="120" y="0" width="40" height="3"></rect>
                <path d="M40,0 L120,0 L120,2 C120,2 40,2.27126437 40,2 C80,2 83,58 120,58 L120,66 C80,66 80,10.8712645 40,11 C80,10.8712645 80,122 120,122 C120,122 120,125 120,125 C76,125 78.5,14 40,14 L40,0 Z" id="flow" fill-opacity="0.1" fill="#000000" transform="translate(80.000000, 62.500000) scale(1, -1) translate(-80.000000, -62.500000) "></path>
            </g>
            <g id="Group-2" transform="translate(70.000000, 320.000000)">
                <rect id="parents" fill="#FF8BA6" x="120" y="165" width="40" height="2"></rect>
                <rect id="parents" fill="#C40046" x="0" y="54" width="40" height="57"></rect>
                <path d="M40,56 C80.1851531,56.1824553 80.1851535,0.186748411 120,0 L120,2 C86.0941161,2.18191871 79.9999997,58.1776256 40,58 C80.1851535,58.1776256 80.1851535,58.1776256 120,58 C120,67.8573242 120,95 120,95 C80.1851535,95.0375643 80.1851535,95.0375643 40,95 C80.0438336,95.0374322 94.1282758,151.02162 120,151 C120,151.033271 120,167 120,167 C80.1851535,167 80.1851535,113.004293 40,113 C40,113.004293 40,56.1824553 40,56 Z" id="flow" fill-opacity="0.1" fill="#000000" transform="translate(80.000000, 83.500000) scale(1, -1) translate(-80.000000, -83.500000) "></path>
                <rect id="parents" fill="#C40046" x="120" y="72" width="40" height="37"></rect>
                <rect id="parents" fill="#810019" x="120" y="0" width="40" height="16"></rect>
            </g>
            <g id="Group" transform="translate(70.000000, 120.000000)">
                <rect id="parents" fill="#FF8BA6" x="120" y="135" width="40" height="1"></rect>
                <rect id="parents" fill="#C40046" x="120" y="71" width="40" height="8"></rect>
                <rect id="parents" fill="#810019" x="0" y="0" width="40" height="25"></rect>
                <rect id="parents" fill="#810019" x="120" y="0" width="40" height="15"></rect>
                <path d="M40,111 C78,111 80,0.00337047083 120,0 C120,0.00337047083 120,1 120,1 C81,1 79.9999997,111.898818 40,112 C80.1851535,111.898818 72,57 120,57 L120,65 C80.1851535,65.2765594 80.1851527,121 40,121 L120,121 C120,121 120,136 120,136 C80.1851535,136 80.1851535,136 40,136 L40,111 Z" id="flow" fill-opacity="0.1" fill="#000000" transform="translate(80.000000, 68.000000) scale(1, -1) translate(-80.000000, -68.000000) "></path>
            </g>
        </g>
    </g>
</svg>