<?xml version="1.0" encoding="UTF-8"?>
<svg width="300px" height="1080px" viewBox="0 0 300 1080" version="1.1" xmlns="http://www.w3.org/2000/svg" xmlns:xlink="http://www.w3.org/1999/xlink">
    <!-- Generator: Sketch 48.1 (47250) - http://www.bohemiancoding.com/sketch -->
    <title>03-03-a14-s.de.chart</title>
    <desc>Created with Sketch.</desc>
    <defs></defs>
    <g id="1-static-charts" stroke="none" stroke-width="1" fill="none" fill-rule="evenodd">
        <g id="03-03-a14-s.de.chart">
            <text id="Schulabschluss-der-E" font-family="BundesSans-Bold, BundesSans" font-size="14" font-weight="bold" line-spacing="16" fill="#666666">
                <tspan x="20.876" y="20">Schulabschluss </tspan>
                <tspan x="51.76" y="36">der Eltern</tspan>
            </text>
            <text id="Schulabschluss-der-K" font-family="BundesSans-Bold, BundesSans" font-size="14" font-weight="bold" line-spacing="16" fill="#666666">
                <tspan x="190" y="20">Schulabschluss</tspan>
                <tspan x="190" y="36">der Kinder</tspan>
            </text>
            <text id="100%-Haupt--oder-Rea" font-family="BundesSans-Bold, BundesSans" font-size="12" font-weight="bold" line-spacing="12" fill="#454545">
                <tspan x="82.604" y="429">100%</tspan>
                <tspan x="48.644" y="441">Haupt- oder </tspan>
                <tspan x="12.824" y="453">Realschulabschluss</tspan>
            </text>
            <text id="100%-Fachhochschul-" font-family="BundesSans-Bold, BundesSans" font-size="12" font-weight="bold" line-spacing="12" fill="#454545">
                <tspan x="82.604" y="89">100%</tspan>
                <tspan x="4.76" y="101">Fachhochschul- oder</tspan>
                <tspan x="33.476" y="113">Hochschulreife</tspan>
            </text>
            <text id="31,8%-Fachhochschul-" font-family="BundesSans-Bold, BundesSans" font-size="12" font-weight="bold" line-spacing="12" fill="#454545">
                <tspan x="190" y="486">31,8%</tspan>
                <tspan x="190" y="498" font-family="BundesSans-Regular, BundesSans" font-weight="normal">Fachhochschul- oder </tspan>
                <tspan x="190" y="510" font-family="BundesSans-Regular, BundesSans" font-weight="normal">Hochschulreife</tspan>
            </text>
            <text id="64,8%-Haupt--oder-Re" font-family="BundesSans-Bold, BundesSans" font-size="12" font-weight="bold" line-spacing="12" fill="#454545">
                <tspan x="190" y="689">64,8%</tspan>
                <tspan x="190" y="701">Haupt- oder </tspan>
                <tspan x="190" y="713">Realschulabschluss</tspan>
            </text>
            <text id="3,4%-Kein-Schulabsch" font-family="BundesSans-Bold, BundesSans" font-size="12" font-weight="bold" line-spacing="12" fill="#454545">
                <tspan x="190" y="757">3,4%</tspan>
                <tspan x="190" y="769" font-family="BundesSans-Regular, BundesSans" font-weight="normal">Kein Schulabschluss</tspan>
            </text>
            <text id="70,7%-Fachhochschul-" font-family="BundesSans-Bold, BundesSans" font-size="12" font-weight="bold" line-spacing="12" fill="#454545">
                <tspan x="190" y="207">70,7%</tspan>
                <tspan x="190" y="219">Fachhochschul- oder </tspan>
                <tspan x="190" y="231">Hochschulreife</tspan>
            </text>
            <text id="26,9%-Haupt--oder-Re" font-family="BundesSans-Bold, BundesSans" font-size="12" font-weight="bold" line-spacing="12" fill="#454545">
                <tspan x="190" y="294">26,9%</tspan>
                <tspan x="190" y="306" font-family="BundesSans-Regular, BundesSans" font-weight="normal">Haupt- oder </tspan>
                <tspan x="190" y="318" font-family="BundesSans-Regular, BundesSans" font-weight="normal">Realschulabschluss</tspan>
            </text>
            <text id="2,5%-Kein-Schulabsch" font-family="BundesSans-Bold, BundesSans" font-size="12" font-weight="bold" line-spacing="12" fill="#454545">
                <tspan x="190" y="352">2,5%</tspan>
                <tspan x="190" y="364" font-family="BundesSans-Regular, BundesSans" font-weight="normal">Kein Schulabschluss</tspan>
            </text>
            <text id="100%-Kein-Schulabsch" font-family="BundesSans-Bold, BundesSans" font-size="12" font-weight="bold" line-spacing="12" fill="#454545">
                <tspan x="82.604" y="901">100%</tspan>
                <tspan x="8.3" y="913">Kein Schulabschluss</tspan>
            </text>
            <text id="24,3%-Fachhochschul-" font-family="BundesSans-Bold, BundesSans" font-size="12" font-weight="bold" line-spacing="12" fill="#454545">
                <tspan x="190" y="824">24,3%</tspan>
                <tspan x="190" y="836" font-family="BundesSans-Regular, BundesSans" font-weight="normal">Fachhochschul- oder </tspan>
                <tspan x="190" y="848" font-family="BundesSans-Regular, BundesSans" font-weight="normal">Hochschulreife</tspan>
            </text>
            <text id="55,9%-Haupt--oder-Re" font-family="BundesSans-Bold, BundesSans" font-size="12" font-weight="bold" line-spacing="12" fill="#454545">
                <tspan x="190" y="889">55,9%</tspan>
                <tspan x="190" y="901" font-family="BundesSans-Regular, BundesSans" font-weight="normal">Haupt- oder </tspan>
                <tspan x="190" y="913" font-family="BundesSans-Regular, BundesSans" font-weight="normal">Realschulabschluss</tspan>
            </text>
            <text id="19,8%-Kein-Schulabsc" font-family="BundesSans-Bold, BundesSans" font-size="12" font-weight="bold" line-spacing="12" fill="#454545">
                <tspan x="190" y="948">19,8%</tspan>
                <tspan x="190" y="960">Kein Schulabschluss</tspan>
            </text>
            <g id="Group-2" transform="translate(70.000000, 403.000000)">
                <rect id="parents" fill="#FF8BA6" x="120" y="334" width="40" height="8"></rect>
                <rect id="parents" fill="#C40046" x="0" y="57" width="40" height="228"></rect>
                <path d="M40,56 C80.1851531,56.1824553 80.1851535,0.186748411 120,0 L120,7 C86.0941161,7.18191871 79.9999997,67.1776256 40,67 C80.1851535,67.1776256 80.1851535,67.1776256 120,67 L120,215 C80.1851535,215.037564 80.1851535,215.037564 40,215 C80.1851535,215.037564 80.1851535,270.033271 120,270 C120,270.033271 120,341 120,341 C80.1851535,341 80.1851535,284.004293 40,284 C40,284.004293 40,56.1824553 40,56 Z" id="flow" fill-opacity="0.1" fill="#000000" transform="translate(80.000000, 170.500000) scale(1, -1) translate(-80.000000, -170.500000) "></path>
                <rect id="parents" fill="#C40046" x="120" y="126" width="40" height="148"></rect>
                <rect id="parents" fill="#810019" x="120" y="0" width="40" height="71"></rect>
            </g>
            <g id="Group" transform="translate(70.000000, 120.000000)">
                <rect id="parents" fill="#FF8BA6" x="120" y="216" width="40" height="3"></rect>
                <rect id="parents" fill="#C40046" x="120" y="130" width="40" height="29"></rect>
                <rect id="parents" fill="#810019" x="0" y="0" width="40" height="106"></rect>
                <rect id="parents" fill="#810019" x="120" y="0" width="40" height="75"></rect>
                <path d="M40,113 C80.1851531,113.485664 80,0.00337047083 120,0 C120,0.00337047083 120,3 120,3 C81.25,3 82.0982558,114.89351 40,115 C80.1851535,114.898818 89,60 120,60 L120,89 C93.5,89 80.1851527,144 40,144 L120,144 C120,144 120,219 120,219 C80.1851535,219 80.1851535,219 40,219 L40,113 Z" id="flow" fill-opacity="0.1" fill="#000000" transform="translate(80.000000, 109.500000) scale(1, -1) translate(-80.000000, -109.500000) "></path>
            </g>
            <g id="Group-3" transform="translate(70.000000, 807.000000)">
                <rect id="parents" fill="#FF8BA6" x="0" y="113" width="40" height="15"></rect>
                <rect id="parents" fill="#FF8BA6" x="120" y="125" width="40" height="3"></rect>
                <rect id="parents" fill="#C40046" x="120" y="60" width="40" height="8"></rect>
                <rect id="parents" fill="#810019" x="120" y="0" width="40" height="4"></rect>
                <path d="M40,0 L120,0 L120,3 L40,3 C89,3 92.8579102,60 120,60 L120,68 C85,68 80,11.8712644 40,12 C80,11.8712644 80,124 120,124 C120,124 120,128 120,128 C78.1711426,128 79.2060547,14.0808105 40,14.9333333 L40,0 Z" id="flow" fill-opacity="0.1" fill="#000000" transform="translate(80.000000, 64.000000) scale(1, -1) translate(-80.000000, -64.000000) "></path>
            </g>
        </g>
    </g>
</svg>