<?xml version="1.0" encoding="UTF-8" standalone="no"?>
<svg width="300px" height="960px" viewBox="0 0 300 960" version="1.1" xmlns="http://www.w3.org/2000/svg" xmlns:xlink="http://www.w3.org/1999/xlink">
    <!-- Generator: Sketch 39.1 (31720) - http://www.bohemiancoding.com/sketch -->
    <title>3.26_s_dashboard_chart_sankey-mobile</title>
    <desc>Created with Sketch.</desc>
    <defs></defs>
    <g id="4-s-dashboard-charts" stroke="none" stroke-width="1" fill="none" fill-rule="evenodd">
        <g id="3.26_s_dashboard_chart_sankey-mobile">
            <text id="Schulabschluss-der-E" font-family="BundesSans-Bold, BundesSans" font-size="14" font-weight="bold" line-spacing="16" fill="#666666">
                <tspan x="20.876" y="20">Schulabschluss </tspan>
                <tspan x="51.76" y="36">der Eltern</tspan>
            </text>
            <text id="Schulabschluss-der-K" font-family="BundesSans-Bold, BundesSans" font-size="14" font-weight="bold" line-spacing="16" fill="#666666">
                <tspan x="190" y="20">Schulabschluss</tspan>
                <tspan x="190" y="36">der Kinder</tspan>
            </text>
            <text id="100%-Haupt--oder-Rea" font-family="BundesSans-Bold, BundesSans" font-size="12" font-weight="bold" line-spacing="12" fill="#454545">
                <tspan x="82.604" y="383">100%</tspan>
                <tspan x="48.644" y="395">Haupt- oder </tspan>
                <tspan x="12.824" y="407">Realschulabschluss</tspan>
            </text>
            <text id="100%-Fachhochschul-" font-family="BundesSans-Bold, BundesSans" font-size="12" font-weight="bold" line-spacing="12" fill="#454545">
                <tspan x="82.604" y="71">100%</tspan>
                <tspan x="4.76" y="83">Fachhochschul- oder</tspan>
                <tspan x="33.476" y="95">Hochschulreife</tspan>
            </text>
            <text id="29.6%-Fachhochschul-" font-family="BundesSans-Bold, BundesSans" font-size="12" font-weight="bold" line-spacing="12" fill="#454545">
                <tspan x="190" y="444">29.6%</tspan>
                <tspan x="190" y="456" font-family="BundesSans-Regular, BundesSans" font-weight="normal">Fachhochschul- oder </tspan>
                <tspan x="190" y="468" font-family="BundesSans-Regular, BundesSans" font-weight="normal">Hochschulreife</tspan>
            </text>
            <text id="67.1%-Haupt--oder-Re" font-family="BundesSans-Bold, BundesSans" font-size="12" font-weight="bold" line-spacing="12" fill="#454545">
                <tspan x="190" y="649">67.1%</tspan>
                <tspan x="190" y="661">Haupt- oder </tspan>
                <tspan x="190" y="673">Realschulabschluss</tspan>
            </text>
            <text id="3.2%-Kein-Schulabsch" font-family="BundesSans-Bold, BundesSans" font-size="12" font-weight="bold" line-spacing="12" fill="#454545">
                <tspan x="190" y="705">3.2%</tspan>
                <tspan x="190" y="717" font-family="BundesSans-Regular, BundesSans" font-weight="normal">Kein Schulabschluss</tspan>
            </text>
            <text id="68.0%-Fachhochschul-" font-family="BundesSans-Bold, BundesSans" font-size="12" font-weight="bold" line-spacing="12" fill="#454545">
                <tspan x="190" y="188">68.0%</tspan>
                <tspan x="190" y="200">Fachhochschul- oder </tspan>
                <tspan x="190" y="212">Hochschulreife</tspan>
            </text>
            <text id="29.6%-Haupt--oder-Re" font-family="BundesSans-Bold, BundesSans" font-size="12" font-weight="bold" line-spacing="12" fill="#454545">
                <tspan x="190" y="268">29.6%</tspan>
                <tspan x="190" y="280" font-family="BundesSans-Regular, BundesSans" font-weight="normal">Haupt- oder </tspan>
                <tspan x="190" y="292" font-family="BundesSans-Regular, BundesSans" font-weight="normal">Realschulabschluss</tspan>
            </text>
            <text id="2.4%-Kein-Schulabsch" font-family="BundesSans-Bold, BundesSans" font-size="12" font-weight="bold" line-spacing="12" fill="#454545">
                <tspan x="190" y="319">2.4%</tspan>
                <tspan x="190" y="331" font-family="BundesSans-Regular, BundesSans" font-weight="normal">Kein Schulabschluss</tspan>
            </text>
            <rect id="parents" fill="#FF8BA6" x="190" y="684" width="40" height="8"></rect>
            <rect id="parents" fill="#FF8BA6" x="190" y="303" width="40" height="3"></rect>
            <rect id="parents" fill="#C40046" x="70" y="414" width="40" height="230"></rect>
            <path d="M110,410 C150.185153,410.182455 150.185154,362.186748 190,362 C190,362.186748 190,370 190,370 C156.094116,370.181919 150,418.177626 110,418 C150.185154,418.177626 150.185154,418.177626 190,418 L190,575 C150.185154,575.037564 150.185154,570.037564 110,570 C150.185154,570.037564 150.185154,623.033271 190,623 C190,623.033271 190,692 190,692 C150.185154,692 150.185154,640.004293 110,640 C110,640.004293 110,410.182455 110,410 Z" id="Rectangle-3" fill-opacity="0.1" fill="#000000" transform="translate(150.000000, 527.000000) scale(1, -1) translate(-150.000000, -527.000000) "></path>
            <rect id="parents" fill="#C40046" x="190" y="479" width="40" height="157"></rect>
            <rect id="parents" fill="#C40046" x="190" y="223" width="40" height="32"></rect>
            <rect id="parents" fill="#810019" x="70" y="102" width="40" height="107"></rect>
            <rect id="parents" fill="#810019" x="190" y="362" width="40" height="69"></rect>
            <rect id="parents" fill="#810019" x="190" y="102" width="40" height="73"></rect>
            <path d="M110,199 C150.185153,199.485664 150,102.00337 190,102 C190,102.00337 190,105 190,105 C150,105 150,201.898818 110,202 C150.185154,201.898818 150.185154,152.657671 190,153 L190,185 C150.185154,185.276559 150.185153,233 110,233 L190,233 C190,233 190,306 190,306 C150.185154,306 150.185154,306 110,306 L110,199 Z" id="Rectangle-3" fill-opacity="0.1" fill="#000000" transform="translate(150.000000, 204.000000) scale(1, -1) translate(-150.000000, -204.000000) "></path>
            <rect id="parents" fill="#FF8BA6" x="70" y="843" width="40" height="15"></rect>
            <rect id="parents" fill="#FF8BA6" x="190" y="855" width="40" height="3"></rect>
            <rect id="parents" fill="#C40046" x="190" y="798" width="40" height="9"></rect>
            <rect id="parents" fill="#810019" x="190" y="748" width="40" height="3"></rect>
            <path d="M110,748 L190,748 L190,751 C190,751 110,751.271264 110,751 C150,751.271264 150,799.232184 190,799.232184 L190,808 C150,808.898851 150,759.871264 110,759.8 C150,759.871264 150,855.85977 190,854.933333 C190,854.933333 190,858 190,858 C148.171143,858 149.206055,762.080811 110,762.933333 L110,748 Z" id="Rectangle-3" fill-opacity="0.1" fill="#000000" transform="translate(150.000000, 803.000000) scale(1, -1) translate(-150.000000, -803.000000) "></path>
            <text id="100%-Kein-Schulabsch" font-family="BundesSans-Bold, BundesSans" font-size="12" font-weight="bold" line-spacing="12" fill="#454545">
                <tspan x="82.604" y="824">100%</tspan>
                <tspan x="8.3" y="836">Kein Schulabschluss</tspan>
            </text>
            <text id="21.3%-Fachhochschul-" font-family="BundesSans-Bold, BundesSans" font-size="12" font-weight="bold" line-spacing="12" fill="#454545">
                <tspan x="190" y="764">21.3%</tspan>
                <tspan x="190" y="776" font-family="BundesSans-Regular, BundesSans" font-weight="normal">Fachhochschul- oder </tspan>
                <tspan x="190" y="788" font-family="BundesSans-Regular, BundesSans" font-weight="normal">Hochschulreife</tspan>
            </text>
            <text id="62.0%-Haupt--oder-Re" font-family="BundesSans-Bold, BundesSans" font-size="12" font-weight="bold" line-spacing="12" fill="#454545">
                <tspan x="190" y="820">62.0%</tspan>
                <tspan x="190" y="832" font-family="BundesSans-Regular, BundesSans" font-weight="normal">Haupt- oder </tspan>
                <tspan x="190" y="844" font-family="BundesSans-Regular, BundesSans" font-weight="normal">Realschulabschluss</tspan>
            </text>
            <text id="16.6%-Kein-Schulabsc" font-family="BundesSans-Bold, BundesSans" font-size="12" font-weight="bold" line-spacing="12" fill="#454545">
                <tspan x="190" y="871">16.6%</tspan>
                <tspan x="190" y="883">Kein Schulabschluss</tspan>
            </text>
        </g>
    </g>
</svg>