<?xml version="1.0" encoding="UTF-8"?>
<svg width="610px" height="694px" viewBox="0 0 610 694" version="1.1" xmlns="http://www.w3.org/2000/svg" xmlns:xlink="http://www.w3.org/1999/xlink">
    <!-- Generator: Sketch 48.1 (47250) - http://www.bohemiancoding.com/sketch -->
    <title>03-03-a14-l.en.chart</title>
    <desc>Created with Sketch.</desc>
    <defs></defs>
    <g id="1-static-charts" stroke="none" stroke-width="1" fill="none" fill-rule="evenodd">
        <g id="03-03-a14-l.en.chart">
            <text id="100%-Middle-school-o" font-family="BundesSans-Bold, BundesSans" font-size="12" font-weight="bold" line-spacing="12" fill="#454545">
                <tspan x="181.604" y="404">100%</tspan>
                <tspan x="125.06" y="416">Middle school or</tspan>
                <tspan x="37.556" y="428">secondary modern school diploma</tspan>
            </text>
            <text id="100%-University-or-u" font-family="BundesSans-Bold, BundesSans" font-size="12" font-weight="bold" line-spacing="12" fill="#454545">
                <tspan x="181.604" y="68">100%</tspan>
                <tspan x="79.412" y="80">University or university of</tspan>
                <tspan x="14.924" y="92">applied sciences entrance qualification</tspan>
            </text>
            <text id="31.8%-University-or" font-family="BundesSans-Bold, BundesSans" font-size="12" font-weight="bold" line-spacing="12" fill="#454545">
                <tspan x="401" y="269">31.8%</tspan>
                <tspan x="401" y="281" font-family="BundesSans-Regular, BundesSans" font-weight="normal">University or university of</tspan>
                <tspan x="401" y="293" font-family="BundesSans-Regular, BundesSans" font-weight="normal">applied sciences entrance qualification</tspan>
            </text>
            <text id="64.8%-Middle-school" font-family="BundesSans-Bold, BundesSans" font-size="12" font-weight="bold" line-spacing="12" fill="#454545">
                <tspan x="401" y="404">64.8%</tspan>
                <tspan x="401" y="416">Middle school or</tspan>
                <tspan x="401" y="428">secondary modern school diploma</tspan>
            </text>
            <text id="3.4%-No-school-leavi" font-family="BundesSans-Bold, BundesSans" font-size="12" font-weight="bold" line-spacing="12" fill="#454545">
                <tspan x="401" y="513">3.4%</tspan>
                <tspan x="401" y="525" font-family="BundesSans-Regular, BundesSans" font-weight="normal">No school-leaving qualification</tspan>
            </text>
            <text id="70.7%-University-or" font-family="BundesSans-Bold, BundesSans" font-size="12" font-weight="bold" line-spacing="12" fill="#454545">
                <tspan x="401" y="68">70.7%</tspan>
                <tspan x="401" y="80">University or university of</tspan>
                <tspan x="401" y="92">applied sciences entrance qualification</tspan>
            </text>
            <text id="26.9%-Middle-school" font-family="BundesSans-Bold, BundesSans" font-size="12" font-weight="bold" line-spacing="12" fill="#454545">
                <tspan x="401" y="142">26.9%</tspan>
                <tspan x="401" y="154" font-family="BundesSans-Regular, BundesSans" font-weight="normal">Middle school or</tspan>
                <tspan x="401" y="166" font-family="BundesSans-Regular, BundesSans" font-weight="normal">secondary modern school diploma</tspan>
            </text>
            <text id="2.5%-No-school-leavi" font-family="BundesSans-Bold, BundesSans" font-size="12" font-weight="bold" line-spacing="12" fill="#454545">
                <tspan x="401" y="186">2.5%</tspan>
                <tspan x="401" y="198" font-family="BundesSans-Regular, BundesSans" font-weight="normal">No school-leaving qualification</tspan>
            </text>
            <rect id="parents" fill="#FF8BA6" x="225" y="639" width="40" height="15"></rect>
            <rect id="parents" fill="#FF8BA6" x="345" y="651" width="40" height="3"></rect>
            <rect id="parents" fill="#C40046" x="345" y="609" width="40" height="8"></rect>
            <rect id="parents" fill="#810019" x="345" y="568" width="40" height="4"></rect>
            <path d="M265,568 L345,568 L345,571 C345,571 265,571.271264 265,571 C305,571.271264 308,605.232184 345,605.232184 L345,613 C305,613 305,579.871264 265,579.8 C305,579.871264 307.5,650 345,650 L345,654 C303.5,654 304.206055,582.080811 265,582.933333 L265,568 Z" id="Rectangle-3" fill-opacity="0.1" fill="#000000" transform="translate(305.000000, 611.000000) scale(1, -1) translate(-305.000000, -611.000000) "></path>
            <text id="100%-No-school-leavi" font-family="BundesSans-Bold, BundesSans" font-size="12" font-weight="bold" line-spacing="12" fill="#454545">
                <tspan x="181.604" y="643">100%</tspan>
                <tspan x="52.184" y="655">No school-leaving qualification</tspan>
            </text>
            <text id="24.3%-University-or" font-family="BundesSans-Bold, BundesSans" font-size="12" font-weight="bold" line-spacing="12" fill="#454545">
                <tspan x="401" y="561">24.3%</tspan>
                <tspan x="401" y="573" font-family="BundesSans-Regular, BundesSans" font-weight="normal">University or university of</tspan>
                <tspan x="401" y="585" font-family="BundesSans-Regular, BundesSans" font-weight="normal">applied sciences entrance qualification</tspan>
            </text>
            <text id="55.9%-Middle-school" font-family="BundesSans-Bold, BundesSans" font-size="12" font-weight="bold" line-spacing="12" fill="#454545">
                <tspan x="401" y="605">55.9%</tspan>
                <tspan x="401" y="617" font-family="BundesSans-Regular, BundesSans" font-weight="normal">Middle school or</tspan>
                <tspan x="401" y="629" font-family="BundesSans-Regular, BundesSans" font-weight="normal">secondary modern school diploma</tspan>
            </text>
            <text id="19.8%-No-school-leav" font-family="BundesSans-Bold, BundesSans" font-size="12" font-weight="bold" line-spacing="12" fill="#454545">
                <tspan x="401" y="649">19.8%</tspan>
                <tspan x="401" y="661">No school-leaving qualification</tspan>
            </text>
            <text id="Parents’-education-l" font-family="BundesSans-Bold, BundesSans" font-size="14" font-weight="bold" fill="#666666">
                <tspan x="125.056" y="24">Parents’ education level</tspan>
            </text>
            <text id="Children’s-education" font-family="BundesSans-Bold, BundesSans" font-size="14" font-weight="bold" fill="#666666">
                <tspan x="345" y="24">Children’s education level</tspan>
            </text>
            <rect id="parents" fill="#FF8BA6" x="345" y="193" width="40" height="3"></rect>
            <rect id="parents" fill="#C40046" x="345" y="138" width="40" height="29"></rect>
            <rect id="parents" fill="#810019" x="225" y="40" width="40" height="106"></rect>
            <rect id="parents" fill="#810019" x="345" y="40" width="40" height="75"></rect>
            <path d="M265,90 C305.185153,90.4856642 305,40.0033705 345,40 C345,40.0033705 345,43 345,43 C306.25,43 307.098256,91.8935104 265,92 C305.185154,91.8988181 314,69 345,69 L345,98 C318.5,98 305.185153,121 265,121 C305.185153,121 305,121 345,121 C345,121 345,196 345,196 C305.185154,196 305.185154,196 265,196 L265,90 Z" id="flow" fill-opacity="0.1" fill="#000000" transform="translate(305.000000, 118.000000) scale(1, -1) translate(-305.000000, -118.000000) "></path>
            <rect id="parents" fill="#FF8BA6" x="345" y="513" width="40" height="8"></rect>
            <rect id="parents" fill="#C40046" x="225" y="268" width="40" height="228"></rect>
            <path d="M265,268 C305.185153,268.182455 305.185154,243.186748 345,243 L345,251 C311.094116,251.181919 305,279.177626 265,279 C305.185154,279.177626 305.185154,279.177626 345,279 L345,427 C305.185154,427.037564 305.185154,427.037564 265,427 C305.185154,427.037564 305.185154,450.033271 345,450 C345,450.033271 345,521 345,521 C305.185154,521 305.185154,496.004293 265,496 C265,496.004293 265,268.182455 265,268 Z" id="flow" fill-opacity="0.1" fill="#000000" transform="translate(305.000000, 382.000000) scale(1, -1) translate(-305.000000, -382.000000) "></path>
            <rect id="parents" fill="#C40046" x="345" y="337" width="40" height="148"></rect>
            <rect id="parents" fill="#810019" x="345" y="243" width="40" height="71"></rect>
        </g>
    </g>
</svg>