<?xml version="1.0" encoding="UTF-8"?>
<svg width="610px" height="424px" viewBox="0 0 610 424" version="1.1" xmlns="http://www.w3.org/2000/svg" xmlns:xlink="http://www.w3.org/1999/xlink">
    <!-- Generator: Sketch 40.3 (33839) - http://www.bohemiancoding.com/sketch -->
    <title>03-03-b_l_chart-2014-english</title>
    <desc>Created with Sketch.</desc>
    <defs></defs>
    <g id="3-l-dashboard-charts" stroke="none" stroke-width="1" fill="none" fill-rule="evenodd">
        <g id="03-03-b_l_chart-2014-english">
            <text id="100%-Secondary-schoo" font-family="BundesSans-Bold, BundesSans" font-size="12" font-weight="bold" line-spacing="12" fill="#454545">
                <tspan x="181.604" y="237">100%</tspan>
                <tspan x="64.376" y="249">Secondary school graduation</tspan>
            </text>
            <text id="100%-Vocational-scho" font-family="BundesSans-Bold, BundesSans" font-size="12" font-weight="bold" line-spacing="12" fill="#454545">
                <tspan x="181.604" y="48">100%</tspan>
                <tspan x="106.592" y="60">Vocational school or </tspan>
                <tspan x="46.736" y="72">university entrance qualification</tspan>
            </text>
            <text id="27.5%-Vocational-sch" font-family="BundesSans-Bold, BundesSans" font-size="12" font-weight="bold" line-spacing="12" fill="#454545">
                <tspan x="401" y="174">27.5%</tspan>
                <tspan x="401" y="186" font-family="BundesSans-Regular, BundesSans" font-weight="normal">Vocational school or </tspan>
                <tspan x="401" y="198" font-family="BundesSans-Regular, BundesSans" font-weight="normal">university entrance qualification</tspan>
            </text>
            <text id="68.7%-Secondary-scho" font-family="BundesSans-Bold, BundesSans" font-size="12" font-weight="bold" line-spacing="12" fill="#454545">
                <tspan x="401" y="237">68.7%</tspan>
                <tspan x="401" y="249">Secondary school graduation</tspan>
            </text>
            <text id="3.8%-No-school-gradu" font-family="BundesSans-Bold, BundesSans" font-size="12" font-weight="bold" line-spacing="12" fill="#454545">
                <tspan x="401" y="280">3.8%</tspan>
                <tspan x="401" y="292" font-family="BundesSans-Regular, BundesSans" font-weight="normal">No school graduation</tspan>
            </text>
            <text id="60.8%-Vocational-sch" font-family="BundesSans-Bold, BundesSans" font-size="12" font-weight="bold" line-spacing="12" fill="#454545">
                <tspan x="401" y="44">60.8%</tspan>
                <tspan x="401" y="56">Vocational school or </tspan>
                <tspan x="401" y="68">university entrance qualification</tspan>
            </text>
            <text id="35.6%-Secondary-scho" font-family="BundesSans-Bold, BundesSans" font-size="12" font-weight="bold" line-spacing="12" fill="#454545">
                <tspan x="401" y="91">35.6%</tspan>
                <tspan x="401" y="103" font-family="BundesSans-Regular, BundesSans" font-weight="normal">Secondary school graduation</tspan>
            </text>
            <text id="3.6%-No-school-gradu" font-family="BundesSans-Bold, BundesSans" font-size="12" font-weight="bold" line-spacing="12" fill="#454545">
                <tspan x="401" y="121">3.6%</tspan>
                <tspan x="401" y="133" font-family="BundesSans-Regular, BundesSans" font-weight="normal">No school graduation</tspan>
            </text>
            <rect id="parents" fill="#FF8BA6" x="345" y="283" width="40" height="2"></rect>
            <rect id="parents" fill="#FF8BA6" x="345" y="128" width="40" height="1"></rect>
            <rect id="parents" fill="#C40046" x="225" y="206" width="40" height="55"></rect>
            <path d="M265,201 C305.185153,201.182455 305.185154,177.186748 345,177 C345,177.186748 345,179 345,179 C311.094116,179.181919 305,203.177626 265,203 C305.185154,203.177626 305.185154,203.177626 345,203 C345,212.857324 345,241 345,241 C305.185154,241.037564 305.185154,241.037564 265,241 C305.185154,241.037564 305.185154,270.033271 345,270 C345,270.033271 345,285 345,285 C305.185154,285 305.185154,256.004293 265,256 C265,256.004293 265,201.182455 265,201 Z" id="Rectangle-3" fill-opacity="0.1" fill="#000000" transform="translate(305.000000, 231.000000) scale(1, -1) translate(-305.000000, -231.000000) "></path>
            <rect id="parents" fill="#C40046" x="345" y="221" width="40" height="38"></rect>
            <rect id="parents" fill="#C40046" x="345" y="95" width="40" height="9"></rect>
            <rect id="parents" fill="#810019" x="225" y="40" width="40" height="24"></rect>
            <rect id="parents" fill="#810019" x="345" y="177" width="40" height="15"></rect>
            <rect id="parents" fill="#810019" x="345" y="40" width="40" height="15"></rect>
            <path d="M265,105 C303.627197,105.621094 305,40.0033705 345,40 C345,40.0033705 345,41 345,41 C305,41 305,105.898818 265,106 C305.185154,105.898818 305.185154,64.6576712 345,65 L345,74 C305.185154,74.2765594 305.185153,114 265,114 L345,114 C345,114 345,129 345,129 C305.185154,129 305.185154,129 265,129 L265,105 Z" id="Rectangle-3" fill-opacity="0.1" fill="#000000" transform="translate(305.000000, 84.500000) scale(1, -1) translate(-305.000000, -84.500000) "></path>
            <rect id="parents" fill="#FF8BA6" x="225" y="389" width="40" height="14"></rect>
            <rect id="parents" fill="#FF8BA6" x="345" y="401" width="40" height="2"></rect>
            <rect id="parents" fill="#C40046" x="345" y="368" width="40" height="9"></rect>
            <rect id="parents" fill="#810019" x="345" y="333" width="40" height="3"></rect>
            <path d="M265,333 L345,333 L345,335 C345,335 265,335.271264 265,335 C305,335.271264 305,359.232184 345,359.232184 L345,368 C305,368.898851 305,343.871264 265,343.8 C305,343.871264 305,400.85977 345,399.933333 C345,399.933333 345,403 345,403 C303.171143,403 304.206055,346.080811 265,346.933333 L265,333 Z" id="Rectangle-3" fill-opacity="0.1" fill="#000000" transform="translate(305.000000, 368.000000) scale(1, -1) translate(-305.000000, -368.000000) "></path>
            <text id="100%-No-school-gradu" font-family="BundesSans-Bold, BundesSans" font-size="12" font-weight="bold" line-spacing="12" fill="#454545">
                <tspan x="181.604" y="392">100%</tspan>
                <tspan x="101.756" y="404">No school graduation</tspan>
            </text>
            <text id="23.1%-Vocational-sch" font-family="BundesSans-Bold, BundesSans" font-size="12" font-weight="bold" line-spacing="12" fill="#454545">
                <tspan x="401" y="322">23.1%</tspan>
                <tspan x="401" y="334" font-family="BundesSans-Regular, BundesSans" font-weight="normal">Vocational school or </tspan>
                <tspan x="401" y="346" font-family="BundesSans-Regular, BundesSans" font-weight="normal">university entrance qualification</tspan>
            </text>
            <text id="63.2%-Secondary-scho" font-family="BundesSans-Bold, BundesSans" font-size="12" font-weight="bold" line-spacing="12" fill="#454545">
                <tspan x="401" y="367">63.2%</tspan>
                <tspan x="401" y="379" font-family="BundesSans-Regular, BundesSans" font-weight="normal">Secondary school graduation</tspan>
            </text>
            <text id="13.7%-No-school-grad" font-family="BundesSans-Bold, BundesSans" font-size="12" font-weight="bold" line-spacing="12" fill="#454545">
                <tspan x="401" y="398">13.7%</tspan>
                <tspan x="401" y="410">No school graduation</tspan>
            </text>
            <text id="Parents’-education-l" font-family="BundesSans-Bold, BundesSans" font-size="14" font-weight="bold" fill="#666666">
                <tspan x="125.056" y="24">Parents’ education level</tspan>
            </text>
            <text id="Children’s-education" font-family="BundesSans-Bold, BundesSans" font-size="14" font-weight="bold" fill="#666666">
                <tspan x="345" y="24">Children’s education level</tspan>
            </text>
        </g>
    </g>
</svg>