<?xml version="1.0" encoding="UTF-8"?>
<svg width="300px" height="896px" viewBox="0 0 300 896" version="1.1" xmlns="http://www.w3.org/2000/svg" xmlns:xlink="http://www.w3.org/1999/xlink">
    <!-- Generator: Sketch 45 (43475) - http://www.bohemiancoding.com/sketch -->
    <title>03-03-b14-s.en.chart</title>
    <desc>Created with Sketch.</desc>
    <defs></defs>
    <g id="1-static-charts" stroke="none" stroke-width="1" fill="none" fill-rule="evenodd">
        <g id="03-03-b14-s.en.chart">
            <text id="100%-Middle-school-o" font-family="BundesSans-Bold, BundesSans" font-size="12" font-weight="bold" line-spacing="12" fill="#454545">
                <tspan x="82.604" y="403">100%</tspan>
                <tspan x="26.06" y="415">Middle school or</tspan>
                <tspan x="17.564" y="427">secondary modern</tspan>
                <tspan x="33.488" y="439">school diploma</tspan>
            </text>
            <text id="29.4%-University-or" font-family="BundesSans-Bold, BundesSans" font-size="12" font-weight="bold" line-spacing="12" fill="#454545">
                <tspan x="190" y="397">29.4%</tspan>
                <tspan x="190" y="409" font-family="BundesSans-Regular, BundesSans" font-weight="normal">University or</tspan>
                <tspan x="190" y="421" font-family="BundesSans-Regular, BundesSans" font-weight="normal">university of</tspan>
                <tspan x="190" y="433" font-family="BundesSans-Regular, BundesSans" font-weight="normal">applied sciences</tspan>
                <tspan x="190" y="445" font-family="BundesSans-Regular, BundesSans" font-weight="normal">entrance qualification</tspan>
            </text>
            <text id="66.5%-Middle-school" font-family="BundesSans-Bold, BundesSans" font-size="12" font-weight="bold" line-spacing="12" fill="#454545">
                <tspan x="190" y="514">66.5%</tspan>
                <tspan x="190" y="526">Middle school or</tspan>
                <tspan x="190" y="538">secondary modern</tspan>
                <tspan x="190" y="550">school diploma</tspan>
            </text>
            <text id="4.1%-No-school-leavi" font-family="BundesSans-Bold, BundesSans" font-size="12" font-weight="bold" line-spacing="12" fill="#454545">
                <tspan x="190" y="584">4.1%</tspan>
                <tspan x="190" y="596" font-family="BundesSans-Regular, BundesSans" font-weight="normal">No school-leaving</tspan>
                <tspan x="190" y="608" font-family="BundesSans-Regular, BundesSans" font-weight="normal">qualification</tspan>
            </text>
            <text id="63.7%-University-or" font-family="BundesSans-Bold, BundesSans" font-size="12" font-weight="bold" line-spacing="12" fill="#454545">
                <tspan x="190" y="148">63.7%</tspan>
                <tspan x="190" y="160">University or</tspan>
                <tspan x="190" y="172">university of</tspan>
                <tspan x="190" y="184">applied sciences</tspan>
                <tspan x="190" y="196">entrance qualification</tspan>
            </text>
            <text id="33.1%-Middle-school" font-family="BundesSans-Bold, BundesSans" font-size="12" font-weight="bold" line-spacing="12" fill="#454545">
                <tspan x="190" y="236">33.1%</tspan>
                <tspan x="190" y="248" font-family="BundesSans-Regular, BundesSans" font-weight="normal">Middle school or</tspan>
                <tspan x="190" y="260" font-family="BundesSans-Regular, BundesSans" font-weight="normal">secondary modern</tspan>
                <tspan x="190" y="272" font-family="BundesSans-Regular, BundesSans" font-weight="normal">school diploma</tspan>
            </text>
            <text id="3.2%-No-school-leavi" font-family="BundesSans-Bold, BundesSans" font-size="12" font-weight="bold" line-spacing="12" fill="#454545">
                <tspan x="190" y="305">3.2%</tspan>
                <tspan x="190" y="317" font-family="BundesSans-Regular, BundesSans" font-weight="normal">No school-leaving</tspan>
                <tspan x="190" y="329" font-family="BundesSans-Regular, BundesSans" font-weight="normal">qualification</tspan>
            </text>
            <text id="100%-No-school-leavi" font-family="BundesSans-Bold, BundesSans" font-size="12" font-weight="bold" line-spacing="12" fill="#454545">
                <tspan x="82.604" y="763">100%</tspan>
                <tspan x="19.184" y="775">No school-leaving</tspan>
                <tspan x="46.496" y="787">qualification</tspan>
            </text>
            <text id="24.6%-University-or" font-family="BundesSans-Bold, BundesSans" font-size="12" font-weight="bold" line-spacing="12" fill="#454545">
                <tspan x="190" y="663">24.6%</tspan>
                <tspan x="190" y="675" font-family="BundesSans-Regular, BundesSans" font-weight="normal">University or</tspan>
                <tspan x="190" y="687" font-family="BundesSans-Regular, BundesSans" font-weight="normal">university of</tspan>
                <tspan x="190" y="699" font-family="BundesSans-Regular, BundesSans" font-weight="normal">applied sciences</tspan>
                <tspan x="190" y="711" font-family="BundesSans-Regular, BundesSans" font-weight="normal">entrance qualification</tspan>
            </text>
            <text id="61.9%-Middle-school" font-family="BundesSans-Bold, BundesSans" font-size="12" font-weight="bold" line-spacing="12" fill="#454545">
                <tspan x="190" y="751">61.9%</tspan>
                <tspan x="190" y="763" font-family="BundesSans-Regular, BundesSans" font-weight="normal">Middle school or</tspan>
                <tspan x="190" y="775" font-family="BundesSans-Regular, BundesSans" font-weight="normal">secondary modern</tspan>
                <tspan x="190" y="787" font-family="BundesSans-Regular, BundesSans" font-weight="normal">school diploma</tspan>
            </text>
            <text id="13.4%-No-school-leav" font-family="BundesSans-Bold, BundesSans" font-size="12" font-weight="bold" line-spacing="12" fill="#454545">
                <tspan x="190" y="821">13.4%</tspan>
                <tspan x="190" y="833">No school-leaving</tspan>
                <tspan x="190" y="845">qualification</tspan>
            </text>
            <text id="Parents’-education-l" font-family="BundesSans-Bold, BundesSans" font-size="14" font-weight="bold" line-spacing="16" fill="#666666">
                <tspan x="62.176" y="20">Parents’ </tspan>
                <tspan x="20.792" y="36">education level</tspan>
            </text>
            <text id="Children’s-education" font-family="BundesSans-Bold, BundesSans" font-size="14" font-weight="bold" line-spacing="16" fill="#666666">
                <tspan x="190" y="20">Children’s </tspan>
                <tspan x="190" y="36">education level</tspan>
            </text>
            <text id="100%-University-or-u" font-family="BundesSans-Bold, BundesSans" font-size="12" font-weight="bold" line-spacing="12" fill="#454545">
                <tspan x="82.604" y="65">100%</tspan>
                <tspan x="45.572" y="77">University or</tspan>
                <tspan x="47.336" y="89">university of</tspan>
                <tspan x="28.592" y="101">applied sciences</tspan>
                <tspan x="-0.172" y="113">entrance qualification</tspan>
            </text>
            <g id="Group-3" transform="translate(70.000000, 647.000000)">
                <rect id="parents" fill="#FF8BA6" x="0" y="147" width="40" height="14"></rect>
                <rect id="parents" fill="#FF8BA6" x="120" y="159" width="40" height="2"></rect>
                <rect id="parents" fill="#C40046" x="120" y="83" width="40" height="8"></rect>
                <rect id="parents" fill="#810019" x="120" y="0" width="40" height="3"></rect>
                <path d="M40,0 L120,0 L120,2 C120,2 40,2.27126437 40,2 C80,2 85.5,70 120,70 L120,78 C80,78 77.5,11 40,11 C80,10.8712645 80,158 120,158 C120,158 120,161 120,161 C76,161 78.5,14 40,14 L40,0 Z" id="flow" fill-opacity="0.1" fill="#000000" transform="translate(80.000000, 80.500000) scale(1, -1) translate(-80.000000, -80.500000) "></path>
            </g>
            <g id="Group-2" transform="translate(70.000000, 368.000000)">
                <rect id="parents" fill="#FF8BA6" x="120" y="201" width="40" height="2"></rect>
                <rect id="parents" fill="#C40046" x="0" y="78" width="40" height="57"></rect>
                <path d="M40,68 C78,68.1824553 80.1851535,0.186748411 120,-2.84217094e-14 L120,2 C82.5,2 79.9999997,70.1776256 40,70 C80.1851535,70.1776256 80.1851535,70.1776256 120,70 C120,79.8573242 120,107 120,107 C80.1851535,107.037564 80.1851535,107.037564 40,107 C80.0438336,107.037432 94.1282758,187.02162 120,187 C120,187.033271 120,203 120,203 C80.1851535,203 80.1851535,125.004293 40,125 C40,125.004293 40,68.1824553 40,68 Z" id="flow" fill-opacity="0.1" fill="#000000" transform="translate(80.000000, 101.500000) scale(1, -1) translate(-80.000000, -101.500000) "></path>
                <rect id="parents" fill="#C40046" x="120" y="96" width="40" height="37"></rect>
                <rect id="parents" fill="#810019" x="120" y="0" width="40" height="16"></rect>
            </g>
            <g id="Group" transform="translate(70.000000, 120.000000)">
                <rect id="parents" fill="#FF8BA6" x="120" y="171" width="40" height="1"></rect>
                <rect id="parents" fill="#C40046" x="120" y="95" width="40" height="8"></rect>
                <rect id="parents" fill="#810019" x="0" y="0" width="40" height="25"></rect>
                <rect id="parents" fill="#810019" x="120" y="0" width="40" height="15"></rect>
                <path d="M40,147 C78,147 80,0.00337047083 120,-8.52651283e-14 C120,0.00337047083 120,1 120,1 C81,1 79.9999997,147.898818 40,148 C80.1851535,147.898818 72,69 120,69 L120,77 C80.1851535,77.2765594 80.1851527,157 40,157 L120,157 C120,157 120,172 120,172 C80.1851535,172 80.1851535,172 40,172 L40,147 Z" id="flow" fill-opacity="0.1" fill="#000000" transform="translate(80.000000, 86.000000) scale(1, -1) translate(-80.000000, -86.000000) "></path>
            </g>
        </g>
    </g>
</svg>