<?xml version="1.0" encoding="UTF-8" standalone="no"?>
<svg width="610px" height="656px" viewBox="0 0 610 656" version="1.1" xmlns="http://www.w3.org/2000/svg" xmlns:xlink="http://www.w3.org/1999/xlink">
    <!-- Generator: Sketch 39.1 (31720) - http://www.bohemiancoding.com/sketch -->
    <title>3.27_l_dashboard_chart_sankey-grouped</title>
    <desc>Created with Sketch.</desc>
    <defs></defs>
    <g id="3-l-dashboard-charts" stroke="none" stroke-width="1" fill="none" fill-rule="evenodd">
        <g id="3.27_l_dashboard_chart_sankey-grouped">
            <text id="Schulabschluss-der-E" font-family="BundesSans-Bold, BundesSans" font-size="14" font-weight="bold" fill="#666666">
                <tspan x="114.724" y="24">Schulabschluss der Eltern</tspan>
            </text>
            <text id="Schulabschluss-der-K" font-family="BundesSans-Bold, BundesSans" font-size="14" font-weight="bold" fill="#666666">
                <tspan x="345" y="24">Schulabschluss der Kinder</tspan>
            </text>
            <text id="100%-Haupt--oder-Rea" font-family="BundesSans-Bold, BundesSans" font-size="12" font-weight="bold" line-spacing="12" fill="#454545">
                <tspan x="181.604" y="413">100%</tspan>
                <tspan x="47.972" y="425">Haupt- oder Realschulabschluss</tspan>
            </text>
            <text id="100%-Fachhochschul-" font-family="BundesSans-Bold, BundesSans" font-size="12" font-weight="bold" line-spacing="12" fill="#454545">
                <tspan x="181.604" y="74">100%</tspan>
                <tspan x="24.74" y="86">Fachhochschul- oder Hochschulreife</tspan>
            </text>
            <text id="29.6%-Fachhochschul-" font-family="BundesSans-Bold, BundesSans" font-size="12" font-weight="bold" line-spacing="12" fill="#454545">
                <tspan x="401" y="276">29.6%</tspan>
                <tspan x="401" y="288" font-family="BundesSans-Regular, BundesSans" font-weight="normal">Fachhochschul- oder Hochschulreife</tspan>
            </text>
            <text id="67.1%-Haupt--oder-Re" font-family="BundesSans-Bold, BundesSans" font-size="12" font-weight="bold" line-spacing="12" fill="#454545">
                <tspan x="401" y="413">67.1%</tspan>
                <tspan x="401" y="425">Haupt- oder Realschulabschluss</tspan>
            </text>
            <text id="3.2%-Kein-Schulabsch" font-family="BundesSans-Bold, BundesSans" font-size="12" font-weight="bold" line-spacing="12" fill="#454545">
                <tspan x="401" y="517">3.2%</tspan>
                <tspan x="401" y="529" font-family="BundesSans-Regular, BundesSans" font-weight="normal">Kein Schulabschluss</tspan>
            </text>
            <text id="68.0%-Fachhochschul-" font-family="BundesSans-Bold, BundesSans" font-size="12" font-weight="bold" line-spacing="12" fill="#454545">
                <tspan x="401" y="74">68.0%</tspan>
                <tspan x="401" y="86">Fachhochschul- oder Hochschulreife</tspan>
            </text>
            <text id="29.6%-Haupt--oder-Re" font-family="BundesSans-Bold, BundesSans" font-size="12" font-weight="bold" line-spacing="12" fill="#454545">
                <tspan x="401" y="147">29.6%</tspan>
                <tspan x="401" y="159" font-family="BundesSans-Regular, BundesSans" font-weight="normal">Haupt- oder Realschulabschluss</tspan>
            </text>
            <text id="2.4%-Kein-Schulabsch" font-family="BundesSans-Bold, BundesSans" font-size="12" font-weight="bold" line-spacing="12" fill="#454545">
                <tspan x="401" y="186">2.4%</tspan>
                <tspan x="401" y="198" font-family="BundesSans-Regular, BundesSans" font-weight="normal">Kein Schulabschluss</tspan>
            </text>
            <rect id="parents" fill="#FF8BA6" x="345" y="518" width="40" height="8"></rect>
            <rect id="parents" fill="#FF8BA6" x="345" y="193" width="40" height="3"></rect>
            <rect id="parents" fill="#C40046" x="225" y="272" width="40" height="230"></rect>
            <path d="M265,268 C305.185153,268.182455 305.185154,244.186748 345,244 C345,244.186748 345,252 345,252 C311.094116,252.181919 305,276.177626 265,276 C305.185154,276.177626 305.185154,276.177626 345,276 L345,433 C305.185154,433.037564 305.185154,428.037564 265,428 C305.185154,428.037564 305.185154,457.033271 345,457 C345,457.033271 345,526 345,526 C305.185154,526 305.185154,498.004293 265,498 C265,498.004293 265,268.182455 265,268 Z" id="Rectangle-3" fill-opacity="0.1" fill="#000000" transform="translate(305.000000, 385.000000) scale(1, -1) translate(-305.000000, -385.000000) "></path>
            <rect id="parents" fill="#C40046" x="345" y="337" width="40" height="157"></rect>
            <rect id="parents" fill="#C40046" x="345" y="137" width="40" height="32"></rect>
            <rect id="parents" fill="#810019" x="225" y="40" width="40" height="107"></rect>
            <rect id="parents" fill="#810019" x="345" y="244" width="40" height="69"></rect>
            <rect id="parents" fill="#810019" x="345" y="40" width="40" height="73"></rect>
            <path d="M265,89 C305.185153,89.4856642 305,40.0033705 345,40 C345,40.0033705 345,43 345,43 C305,43 305,91.8988181 265,92 C305.185154,91.8988181 305.185154,66.6576712 345,67 L345,99 C305.185154,99.2765594 305.185153,123 265,123 L345,123 C345,123 345,196 345,196 C305.185154,196 305.185154,196 265,196 L265,89 Z" id="Rectangle-3" fill-opacity="0.1" fill="#000000" transform="translate(305.000000, 118.000000) scale(1, -1) translate(-305.000000, -118.000000) "></path>
            <rect id="parents" fill="#FF8BA6" x="225" y="621" width="40" height="15"></rect>
            <rect id="parents" fill="#FF8BA6" x="345" y="633" width="40" height="3"></rect>
            <rect id="parents" fill="#C40046" x="345" y="600" width="40" height="9"></rect>
            <rect id="parents" fill="#810019" x="345" y="574" width="40" height="3"></rect>
            <path d="M265,574 L345,574 L345,577 C345,577 265,577.271264 265,577 C305,577.271264 305,601.232184 345,601.232184 L345,610 C305,610.898851 305,585.871264 265,585.8 C305,585.871264 305,633.85977 345,632.933333 C345,632.933333 345,636 345,636 C303.171143,636 304.206055,588.080811 265,588.933333 L265,574 Z" id="Rectangle-3" fill-opacity="0.1" fill="#000000" transform="translate(305.000000, 605.000000) scale(1, -1) translate(-305.000000, -605.000000) "></path>
            <text id="100%-Kein-Schulabsch" font-family="BundesSans-Bold, BundesSans" font-size="12" font-weight="bold" line-spacing="12" fill="#454545">
                <tspan x="181.604" y="624">100%</tspan>
                <tspan x="107.3" y="636">Kein Schulabschluss</tspan>
            </text>
            <text id="21.3%-Fachhochschul-" font-family="BundesSans-Bold, BundesSans" font-size="12" font-weight="bold" line-spacing="12" fill="#454545">
                <tspan x="401" y="570">21.3%</tspan>
                <tspan x="401" y="582" font-family="BundesSans-Regular, BundesSans" font-weight="normal">Fachhochschul- oder Hochschulreife</tspan>
            </text>
            <text id="62.0%-Haupt--oder-Re" font-family="BundesSans-Bold, BundesSans" font-size="12" font-weight="bold" line-spacing="12" fill="#454545">
                <tspan x="401" y="599">62.0%</tspan>
                <tspan x="401" y="611" font-family="BundesSans-Regular, BundesSans" font-weight="normal">Haupt- oder Realschulabschluss</tspan>
            </text>
            <text id="16.6%-Kein-Schulabsc" font-family="BundesSans-Bold, BundesSans" font-size="12" font-weight="bold" line-spacing="12" fill="#454545">
                <tspan x="401" y="630">16.6%</tspan>
                <tspan x="401" y="642">Kein Schulabschluss</tspan>
            </text>
        </g>
    </g>
</svg>