<?xml version="1.0" encoding="utf-8"?>
<!-- Generator: Adobe Illustrator 16.0.3, SVG Export Plug-In . SVG Version: 6.00 Build 0)  -->
<!DOCTYPE svg PUBLIC "-//W3C//DTD SVG 1.1//EN" "http://www.w3.org/Graphics/SVG/1.1/DTD/svg11.dtd">
<svg version="1.1" id="Ebene_1" xmlns="http://www.w3.org/2000/svg" xmlns:xlink="http://www.w3.org/1999/xlink" x="0px" y="0px"
   width="180px" height="58.162px" viewBox="0 0 180 58.162" enable-background="new 0 0 180 58.162" xml:space="preserve">
<line fill="none" x1="57.585" y1="43.996" x2="57.585" y2="43.996"/>
<g>
  <g>
    <path d="M72.681,17.696c-0.391,0.345-1.51,1.156-3.839,1.156c-3.289,0-5.759-1.639-5.759-6.211c0-4.21,3.075-6.108,6.167-6.108
      c2.204,0,3.271,0.915,3.591,1.173l-0.835,1.743c-0.32-0.275-1.12-0.966-2.613-0.966c-2.063,0-3.804,1.243-3.804,4.158
      c0,3.019,1.333,4.261,3.59,4.261c0.479,0,0.906-0.051,1.28-0.138v-2.606h-2.116v-1.863h4.337L72.681,17.696L72.681,17.696z"/>
    <path d="M84.643,13.657c0,3.486-1.6,5.194-4.834,5.194c-3.235,0-4.675-1.605-4.675-5.194V6.739h2.381v6.988
      c0,2.208,0.765,3.175,2.382,3.175c1.688,0,2.453-0.931,2.453-3.175V6.739h2.292V13.657L84.643,13.657z"/>
    <path d="M96.268,8.636h-3.554v10.008h-2.382V8.636h-3.591V6.739h9.669L96.268,8.636z"/>
    <path d="M106.251,6.739v10.007h4.87l-0.141,1.898h-7.111V6.739H106.251z"/>
    <path d="M120.142,8.636h-4.604v3.054h4.266v1.898h-4.266v3.157h5.19l-0.142,1.898h-7.431V6.739h7.128L120.142,8.636z"/>
    <path d="M128.805,12.502v0.035c1.156,0.223,2.542,1.104,2.542,2.76c0,1.966-1.511,3.347-5.03,3.347h-3.057V6.739h2.897
      c3.59,0,4.851,1.208,4.851,3.141C131.008,11.587,129.854,12.191,128.805,12.502z M126.157,8.568h-0.517v3.192h0.498
      c1.689,0,2.47-0.639,2.47-1.708C128.609,9.137,127.916,8.568,126.157,8.568z M126.424,13.554h-0.783v3.227h0.676
      c1.813,0,2.577-0.57,2.577-1.639C128.894,14.124,128.023,13.554,126.424,13.554z"/>
    <path d="M141.016,8.636h-4.604v3.054h4.267v1.898h-4.267v3.157h5.191l-0.143,1.898h-7.429V6.739h7.127L141.016,8.636z"/>
    <path d="M153.643,18.644H151.6l-5.048-7.436h-0.037v7.436h-2.38V6.739h2.043l5.048,7.385h0.036V6.739h2.381V18.644z"/>
    <path d="M163.41,8.413h-1.458V6.739h5.297v1.674h-1.458v8.558h1.475v1.673h-5.333v-1.673h1.475L163.41,8.413L163.41,8.413z"/>
    <path d="M179.421,18.644h-2.044l-5.047-7.436h-0.036v7.436h-2.381V6.739h2.043l5.048,7.385h0.036V6.739h2.381V18.644z"/>
    <path d="M63.61,38.346V26.442h2.847c4.521,0,6.59,1.673,6.59,5.781c0,4.295-2.588,6.124-6.746,6.124H63.61z M65.922,28.357v8.076
      h0.38c2.829,0,4.331-1.157,4.331-4.21c0-2.865-1.415-3.866-4.175-3.866H65.922z"/>
    <path d="M81.851,28.34h-4.469v3.053h4.14v1.899h-4.14v3.158h5.038l-0.139,1.897H75.07V26.442h6.919L81.851,28.34z"/>
    <path d="M93.473,33.361c0,3.485-1.553,5.194-4.692,5.194c-3.14,0-4.538-1.605-4.538-5.194v-6.919h2.312v6.987
      c0,2.209,0.742,3.174,2.312,3.174c1.639,0,2.382-0.931,2.382-3.174v-6.987h2.225V33.361z"/>
    <path d="M104.419,28.34h-3.451v10.006h-2.312V28.34h-3.485v-1.898h9.386L104.419,28.34z"/>
    <path d="M111.901,28.995c-0.276-0.224-0.984-0.828-2.122-0.828c-1.105,0-1.605,0.483-1.605,1.069c0,0.742,0.344,1.104,1.311,1.691
      l1.294,0.793c1.623,1.001,2.33,1.949,2.33,3.468c0,1.656-1.174,3.365-4.054,3.365c-1.916,0-2.916-0.829-3.313-1.157l0.759-1.932
      c0.396,0.396,1.276,1.121,2.519,1.121c1.225,0,1.795-0.518,1.795-1.104c0-0.793-0.345-1.208-1.26-1.812l-1.294-0.863
      c-1.639-1.086-2.347-1.932-2.347-3.519c0-1.691,1.416-3.054,3.796-3.054c1.673,0,2.536,0.656,2.915,0.932L111.901,28.995z"/>
    <path d="M120.566,26.235c2.036,0,3.002,0.897,3.277,1.139l-0.811,1.742c-0.345-0.311-1.104-0.931-2.363-0.931
      c-1.932,0-3.486,1.19-3.486,4.142c0,3.053,1.278,4.277,3.296,4.277c1.432,0,2.226-0.603,2.604-0.913l0.622,1.639
      c-0.379,0.345-1.311,1.225-3.554,1.225c-3.141,0-5.4-1.692-5.4-6.195C114.751,27.995,117.667,26.235,120.566,26.235z"/>
    <path d="M135.028,38.346h-2.313v-5.056h-4.744v5.056h-2.312V26.442h2.312v4.951h4.744v-4.951h2.313V38.346z"/>
    <path d="M140.153,26.442v10.008h4.727l-0.138,1.897h-6.901V26.442L140.153,26.442L140.153,26.442z"/>
    <path d="M154.311,38.346l-1.036-3.208h-3.674l-1.036,3.208h-2.313l4.383-11.905h1.812l4.365,11.905H154.311z M151.465,29.41
      h-0.035l-1.311,4.071h2.656L151.465,29.41z"/>
    <path d="M167.706,38.346h-1.984l-4.899-7.436h-0.035v7.436h-2.312V26.442h1.983l4.9,7.385h0.034v-7.385h2.313V38.346
      L167.706,38.346z"/>
    <path d="M170.563,38.346V26.442h2.847c4.521,0,6.59,1.673,6.59,5.781c0,4.295-2.587,6.124-6.746,6.124H170.563z M172.875,28.357
      v8.076h0.379c2.83,0,4.331-1.157,4.331-4.21c0-2.865-1.415-3.866-4.176-3.866H172.875z"/>
  </g>
</g>
<g>
  <path d="M72.16,55.32h-0.996l-2.189-7.415h-0.027l-2.229,7.415h-0.995l-2.482-9.251h1.221l1.805,7.401h0.026l2.189-7.401h1.076
    l2.11,7.401h0.026l1.858-7.401h1.167L72.16,55.32z"/>
  <path d="M78.661,51.74h0.531v-0.496c0-1.127-0.438-1.556-1.26-1.556c-0.77,0-1.3,0.362-1.58,0.59l-0.398-0.805
    c0.333-0.254,0.982-0.751,2.176-0.751c1.395,0,2.137,0.818,2.137,2.521v2.734c0,0.55,0.053,1.166,0.08,1.341h-1.036l-0.04-0.711
    h-0.026c-0.226,0.362-0.77,0.872-1.778,0.872c-1.049,0-1.725-0.751-1.725-1.837C75.741,52.316,77.002,51.74,78.661,51.74z
     M79.191,53.911v-1.394l-0.609,0.026c-1.208,0.055-1.765,0.349-1.765,1.033c0,0.63,0.425,0.979,0.889,0.979
    C78.555,54.554,78.953,54.166,79.191,53.911z"/>
  <path d="M86.085,50.224c-0.226-0.187-0.704-0.563-1.407-0.563c-0.691,0-1.022,0.294-1.022,0.669c0,0.51,0.292,0.737,0.968,1.086
    l0.478,0.242c0.995,0.509,1.54,1.059,1.54,1.997c0,0.979-0.717,1.824-2.269,1.824c-1.062,0-1.62-0.416-1.912-0.685l0.398-0.952
    c0.279,0.282,0.743,0.67,1.513,0.67c0.809,0,1.221-0.309,1.221-0.724c0-0.617-0.398-0.844-1.115-1.233l-0.465-0.254
    c-0.916-0.496-1.367-1.032-1.367-1.918c0-0.951,0.85-1.662,2.057-1.662c1.022,0,1.513,0.429,1.739,0.616L86.085,50.224z"/>
  <path d="M97.778,55.32h-0.996v-0.725h-0.026c-0.199,0.242-0.717,0.886-1.964,0.886c-1.314,0-2.03-0.818-2.03-2.615v-3.981h1.075
    v3.807c0,1.274,0.371,1.824,1.233,1.824c0.903,0,1.367-0.443,1.632-0.698v-4.933h1.076v6.436H97.778z"/>
  <path d="M104.372,55.32v-3.808c0-1.232-0.372-1.823-1.274-1.823c-0.864,0-1.381,0.429-1.672,0.696v4.935h-1.075v-6.436h0.996v0.725
    h0.025c0.252-0.283,0.876-0.886,1.979-0.886c1.354,0,2.096,0.857,2.096,2.615v3.981H104.372z"/>
  <path d="M111.263,50.224c-0.226-0.187-0.703-0.563-1.407-0.563c-0.69,0-1.022,0.294-1.022,0.669c0,0.51,0.292,0.737,0.97,1.086
    l0.476,0.242c0.996,0.509,1.541,1.059,1.541,1.997c0,0.979-0.717,1.824-2.27,1.824c-1.062,0-1.619-0.416-1.912-0.685l0.398-0.952
    c0.279,0.282,0.744,0.67,1.514,0.67c0.81,0,1.22-0.309,1.22-0.724c0-0.617-0.396-0.844-1.114-1.233l-0.464-0.254
    c-0.916-0.496-1.366-1.032-1.366-1.918c0-0.951,0.849-1.662,2.056-1.662c1.023,0,1.513,0.429,1.738,0.616L111.263,50.224z"/>
  <path d="M124.115,55.32h-0.876l-1.274-3.58h-0.027l-1.38,3.58h-0.901l-2.296-6.436h1.142l1.645,5.04h0.027l1.34-3.445l-0.57-1.595
    h1.141l1.646,5.04h0.027l1.632-5.04h1.022L124.115,55.32z"/>
  <path d="M128.923,47.329c-0.425,0-0.756-0.295-0.756-0.764c0-0.47,0.333-0.778,0.756-0.778c0.425,0,0.77,0.308,0.77,0.778
    C129.693,47.033,129.348,47.329,128.923,47.329z M129.454,55.32h-1.074v-6.436h1.074V55.32z"/>
  <path d="M136.132,50.144c-0.132-0.106-0.597-0.469-1.313-0.469c-1.155,0-2.004,0.671-2.004,2.333c0,1.85,0.77,2.507,1.897,2.507
    c0.677,0,1.102-0.255,1.314-0.429l0.318,0.817c-0.239,0.215-0.756,0.577-1.832,0.577c-1.672,0-2.813-1.005-2.813-3.432
    c0-2.346,1.592-3.326,3.078-3.326c0.97,0,1.434,0.362,1.699,0.564L136.132,50.144z"/>
  <path d="M142.531,55.32v-3.808c0-1.232-0.373-1.823-1.274-1.823c-0.863,0-1.38,0.429-1.672,0.696v4.935h-1.075v-9.479l1.075-0.121
    v3.821h0.026c0.319-0.321,0.916-0.818,1.898-0.818c1.354,0,2.096,0.857,2.096,2.615v3.982H142.531L142.531,55.32z"/>
  <path d="M149.079,49.808h-1.646v3.326c0,1.005,0.252,1.38,0.956,1.38c0.345,0,0.609-0.122,0.743-0.187l0.105,0.87
    c-0.105,0.067-0.464,0.282-1.141,0.282c-1.248,0-1.739-0.724-1.739-2.2v-3.473h-0.875v-0.764l0.875-0.161l0.119-1.797h0.956v1.797
    h1.778L149.079,49.808z"/>
  <path d="M151.991,47.329c-0.424,0-0.756-0.295-0.756-0.764c0-0.47,0.333-0.778,0.756-0.778c0.425,0,0.77,0.308,0.77,0.778
    C152.76,47.033,152.415,47.329,151.991,47.329z M152.522,55.32h-1.075v-6.436h1.075V55.32z"/>
  <path d="M160.442,49.728h-0.969c0.226,0.334,0.359,0.738,0.359,1.167c0,1.368-1.076,2.171-2.496,2.171
    c-0.186,0-0.358-0.013-0.531-0.04c-0.212,0.093-0.531,0.28-0.531,0.63c0,0.267,0.199,0.455,0.677,0.455h1.3
    c1.341,0,2.11,0.563,2.11,1.703c0,1.219-1.154,2.347-3.372,2.347c-1.512,0-2.389-0.591-2.389-1.744c0-0.979,0.731-1.38,1.116-1.581
    V54.81c-0.279-0.215-0.397-0.55-0.397-0.911c0-0.671,0.582-0.993,0.754-1.074v-0.027c-0.649-0.322-1.073-0.951-1.073-1.902
    c0-1.449,1.073-2.173,2.415-2.173c0.345,0,0.664,0.053,0.956,0.16h2.202L160.442,49.728z M156.302,55.065
    c-0.333,0.201-0.665,0.522-0.665,1.14c0,0.724,0.479,1.033,1.435,1.033c1.552,0,2.215-0.604,2.215-1.261
    c0-0.618-0.317-0.858-1.035-0.858h-1.405C156.633,55.118,156.461,55.104,156.302,55.065z M157.43,49.621
    c-0.729,0-1.38,0.349-1.38,1.275c0,0.924,0.65,1.273,1.354,1.273c0.73,0,1.379-0.349,1.379-1.273
    C158.783,49.969,158.134,49.621,157.43,49.621z"/>
  <path d="M167.084,47.329c-0.424,0-0.757-0.295-0.757-0.764c0-0.47,0.333-0.778,0.757-0.778c0.425,0,0.77,0.308,0.77,0.778
    C167.854,47.033,167.508,47.329,167.084,47.329z M167.615,55.32h-1.074v-6.436h1.074V55.32z"/>
  <path d="M173.375,50.224c-0.227-0.187-0.704-0.563-1.409-0.563c-0.688,0-1.021,0.294-1.021,0.669c0,0.51,0.292,0.737,0.968,1.086
    l0.478,0.242c0.996,0.509,1.541,1.059,1.541,1.997c0,0.979-0.719,1.824-2.271,1.824c-1.062,0-1.619-0.416-1.912-0.685l0.4-0.952
    c0.278,0.282,0.742,0.67,1.512,0.67c0.809,0,1.221-0.309,1.221-0.724c0-0.617-0.397-0.844-1.115-1.233l-0.464-0.254
    c-0.915-0.496-1.366-1.032-1.366-1.918c0-0.951,0.849-1.662,2.056-1.662c1.022,0,1.513,0.429,1.738,0.616L173.375,50.224z"/>
  <path d="M179.263,49.808h-1.646v3.326c0,1.005,0.252,1.38,0.955,1.38c0.347,0,0.611-0.122,0.744-0.187l0.106,0.87
    c-0.106,0.067-0.464,0.282-1.142,0.282c-1.248,0-1.737-0.724-1.737-2.2v-3.473h-0.877v-0.764l0.877-0.161l0.119-1.797h0.956v1.797
    h1.777L179.263,49.808z"/>
</g>
<g>
  <path fill="#FF0000" d="M42.982,13.206c0-0.025-0.009-0.044-0.009-0.077v0.161C42.974,13.264,42.982,13.238,42.982,13.206z"/>
  <path fill="#FF0000" d="M9.968,11.078C9.31,10.405,8.932,9.606,8.932,8.633v5.688c0,5.616,12.393,5.495,20.048,7.564
    c1.86-0.702,3.833-1.335,5.695-1.993C32.68,14.068,14.517,15.72,9.968,11.078z"/>
  <path opacity="0.7" fill="#FF0000" enable-background="new    " d="M24.543,5.687V0C21.875,0.167,8.931,1.355,8.931,8.633
    c0,0.974,0.379,1.772,1.037,2.446C13.093,6.664,22.335,5.824,24.543,5.687z"/>
  <path fill="#FF0000" d="M42.982,18.898c0-0.027-0.009-0.05-0.009-0.078v0.162C42.974,18.95,42.982,18.925,42.982,18.898z"/>
  <path fill="#FFCC00" d="M52.254,49.68c-2.701-0.01-7.562-0.089-12.677-0.551c-14.713-0.975-35.89-3.862-39.142-12.311
    C0.16,36.094,0,35.328,0,34.527v5.685c0,13.804,42.91,15.007,52.171,15.093c0.393,0.005,3.129,0.006,4.339,0.006v-5.628
    C55.303,49.682,52.588,49.68,52.254,49.68z"/>
  <path fill="#FF0000" d="M20.592,35.46c0,5.116,9.896,7.168,18.985,7.988c5.115,0.462,9.976,0.541,12.677,0.55
    c0.334,0,3.048,0.003,4.256,0.003v-0.006v5.636v0.058c-1.208,0-3.922-0.002-4.256-0.002c-2.701-0.01-7.562-0.089-12.677-0.551
    c-9.089-0.82-18.985-2.872-18.985-7.989V35.46z"/>
  <path opacity="0.7" enable-background="new    " d="M41.831,16.056c-1.459,1.641-4.156,2.777-7.155,3.837
    c-1.862,0.658-3.835,1.29-5.695,1.992c-4.52,1.705-8.387,3.844-8.387,7.886c0,0.92,0.332,1.735,0.91,2.468
    c0.769-1.179,1.962-2.044,3.322-2.775c1.149-0.666,2.455-1.238,3.833-1.769c1.956-0.757,4.046-1.419,6.017-2.111
    c4.446-1.573,8.235-3.309,8.299-6.602v-0.162V13.29C42.955,14.363,42.534,15.267,41.831,16.056z"/>
  <path d="M41.831,16.056c0.703-0.79,1.124-1.694,1.143-2.767v-0.161c-0.076-4.089-6.176-6.36-13.193-6.388v5.688
    C35.011,12.45,39.731,13.717,41.831,16.056z"/>
  <path d="M21.548,32.3c-0.017-0.019-0.03-0.038-0.045-0.06 M21.502,32.24c-0.579-0.733-0.91-1.548-0.91-2.468v5.689
    c0,5.116,9.896,7.167,18.985,7.988c5.115,0.462,9.976,0.541,12.677,0.55c0.334,0,3.048,0.004,4.256,0.004v-0.006v-5.684
    c-1.233,0-4.024,0-4.417-0.005c-5.511-0.029-19.374-0.32-26.734-3.434c-1.662-0.704-2.984-1.554-3.813-2.574"/>
  <path opacity="0.7" fill="#FF0000" enable-background="new    " d="M34.675,25.586L34.675,25.586
    c-1.971,0.691-4.062,1.354-6.017,2.11c-1.379,0.53-2.684,1.103-3.834,1.769c-1.359,0.731-2.553,1.596-3.322,2.775
    c0.015,0.021,0.029,0.041,0.045,0.06c0.829,1.021,2.15,1.87,3.812,2.574c4.152-2.084,9.507-3.229,9.507-8.199v-1.157L34.675,25.586
    z"/>
  <g opacity="0.7">
    <path fill="#FFCC00" d="M0.001,34.527c0,0.8,0.159,1.566,0.436,2.291c1.475-5.328,6.274-7.145,8.494-7.713v-5.693
      C6.288,24.092,0.001,26.543,0.001,34.527z"/>
  </g>
</g>
</svg>
